<svg xmlns="http://www.w3.org/2000/svg" viewBox="0 0 236.17 612.36"><defs><style>.cls-1{fill:#cca672;stroke:#873732;stroke-miterlimit:10;fill-rule:evenodd;}</style></defs><g id="Layer_2" data-name="Layer 2"><g id="Réteg_1" data-name="Réteg 1"><path id="path10" class="cls-1" d="M235.23,207l-112,98.3V608.6l112-401.6ZM113,608.7V305.3L.93,206.9,113,608.7ZM115.53.9l-8.9,13.3V24.9c-14.4,2.6-26.2,10-35.9,20a12.66,12.66,0,0,0-8.1-3.4c-6.7,0-12.2,8.9-12.2,15.6a24.58,24.58,0,0,0,3.5,11.8,23.35,23.35,0,0,0-6.6-1.1c-7,0-12.2,6.6-12.2,14.3s4.1,14.9,11.1,17.8c-7.8,1.1-13.7,8.9-13.7,19.3,0,10.7,6.7,19.5,14.8,19.5a13,13,0,0,0,8.9-3.3c1.8,4.8,4.4,6,7.4,6.7-2.3,1.1-8.5,5.5-8.5,10.4,0,5.1,2.9,9.5,6.2,9.5,0,0,27-17.3,54.1-17.3s54,17.3,54,17.3c3.4,0,6.3-4.4,6.3-9.5,0-4.9-6.3-9.3-8.5-10.4,3.1-.7,5.6-2,7.4-6.7a12.79,12.79,0,0,0,8.9,3.3c8.1,0,14.8-8.8,14.8-19.5,0-10.4-6-18.2-13.8-19.3,7.1-2.9,11.1-10,11.1-17.8s-5.1-14.3-12.1-14.3a24.59,24.59,0,0,0-6.7,1.1,22.8,22.8,0,0,0,3.7-11.8c0-6.7-5.5-15.6-12.2-15.6a12.46,12.46,0,0,0-8.1,3.4c-9.6-10-21.5-17.5-35.9-20V14.2L115.53.9Zm0,286c21.8,0,39.6-16.7,39.6-37s-17.7-37.1-39.6-37.1-39.7,16.7-39.7,37.1,17.9,37,39.7,37Zm8.9-174.3s7.1-18.6,7.1-27.7c0-8.9-7.1-29.3-7.1-30,15.1,6.7,33.2,20,33.2,41.5,0,11.8-7,26.6-12.6,35.9a73.88,73.88,0,0,0-20.6-4.5V112.6Zm-17.8,15.1A73.88,73.88,0,0,0,86,132.2c-5.6-9.3-12.7-24.1-12.7-35.9,0-21.5,18.2-34.8,33.3-41.5,0,.7-7.1,21.1-7.1,30,0,9.2,7.1,27.7,7.1,27.7v15.2Zm8.9,22.3c-10,2.3-18.4,7.8-18.4,17.8a18.25,18.25,0,0,0,3.2,10.4l7.1,10.7c1.6-1.1,5.2-1.1,8.2-1.1s6.6,0,8.2,1.1l7-10.7a17.62,17.62,0,0,0,3.3-10.4c-.1-10-8.6-15.5-18.6-17.8Zm0,43.3c-20.8,0-34.1,11.5-34.1,15.1,0,4.1,2.6,7.4,5.9,7.4,0,0,14.2-8.9,28.2-8.9s28.1,8.9,28.1,8.9c3.4,0,6-3.3,6-7.4,0-3.6-13.3-15.1-34.1-15.1Zm14.1-3.3c7.5,0,17.5,7.3,17.5,7.3l9.5-5.9c6.3-3.7,14.9-9.3,14.9-17.5,0-7.3-7.4-9.9-14.9-9.9-10.4,0-15.1,7.4-20.6,16.2l-6.4,9.8Zm-34.5-9.6c-5.5-8.8-10.4-16.2-20.6-16.2-7.5,0-14.9,2.6-14.9,9.9,0,8.2,8.5,13.8,14.9,17.5l9.5,5.9s10-7.3,17.5-7.3l-6.4-9.8Zm29-134.7c20.6,2.9,43.6,25.5,43.6,50.3,0,14-8.4,30.8-14,39.5l-3.3-1.5c5.9-10.4,12.6-25.1,12.6-37.7,0-24-20.4-40.3-38.8-46.6l-.1-4Zm-17.1,4c-18.6,6.4-38.8,22.6-38.8,46.6,0,12.6,6.7,27.3,12.6,37.7l-3.3,1.5c-5.6-8.8-14-25.5-14-39.5,0-24.8,23-47.4,43.6-50.3l-.1,4Z"/></g></g></svg>