<svg xmlns="http://www.w3.org/2000/svg" width="367.1" height="408.9" viewBox="0 0 367.1 408.9">
  <g id="meditácio" transform="translate(-142.1 -148.7)">
    <g id="Group_975" data-name="Group 975">
      <g id="Group_974" data-name="Group 974">
        <g id="Group_973" data-name="Group 973">
          <g id="Group_972" data-name="Group 972">
            <path id="Path_9966" data-name="Path 9966" d="M286.3,493.6c-.2-.1-.1,0,.4.2l.4.1Z" fill="#202020"/>
            <path id="Path_9967" data-name="Path 9967" d="M289.9,495.3c.7.2,1.5.3,1.1,0-.7-.1-.8-.2-1.6-.3-.5-.2-.9-.4-.8-.4a3.582,3.582,0,0,0-1.1-.4c.6.3,1.4.7,2.4,1.1Z" fill="#202020"/>
            <path id="Path_9968" data-name="Path 9968" d="M346.1,490.2h0Z" fill="#202020"/>
            <path id="Path_9969" data-name="Path 9969" d="M380.2,479.9c-.3.1-.3.2-.3.3Z" fill="#202020"/>
            <path id="Path_9970" data-name="Path 9970" d="M386.2,478.8a.756.756,0,0,0-.4.1C386,478.9,386.1,478.9,386.2,478.8Z" fill="#202020"/>
            <path id="Path_9971" data-name="Path 9971" d="M346.1,490.2l1-.1C347.1,489.9,346.6,490.1,346.1,490.2Z" fill="#202020"/>
            <path id="Path_9972" data-name="Path 9972" d="M297.6,496.7h-.5c.1,0,.3.1.5,0Z" fill="#202020"/>
            <path id="Path_9973" data-name="Path 9973" d="M331.2,495.1l-.3.1c-.1.1-.1.2-.2.3Z" fill="#202020"/>
            <path id="Path_9974" data-name="Path 9974" d="M319.3,497.7c.3,0,.3-.4.4-.6a.55.55,0,0,1-.5.3A.368.368,0,0,0,319.3,497.7Z" fill="#202020"/>
            <path id="Path_9975" data-name="Path 9975" d="M300.1,497.9h0Z" fill="#202020"/>
            <path id="Path_9976" data-name="Path 9976" d="M339.5,492.8c0,.1.1.1.2.1A.349.349,0,0,0,339.5,492.8Z" fill="#202020"/>
            <path id="Path_9977" data-name="Path 9977" d="M345.2,257.4h0C345.3,257.3,345.2,257.3,345.2,257.4Z" fill="#202020"/>
            <path id="Path_9978" data-name="Path 9978" d="M348.3,243.7v.2h0Z" fill="#202020"/>
            <path id="Path_9979" data-name="Path 9979" d="M397,476.1h0C396.7,476.3,396.9,476.2,397,476.1Z" fill="#202020"/>
            <path id="Path_9980" data-name="Path 9980" d="M438.1,391.8c.1,1.2-.7-1.8-.5,0C437.6,391.6,438.3,393.2,438.1,391.8Z" fill="#202020"/>
            <path id="Path_9981" data-name="Path 9981" d="M297.9,496.8a.9.9,0,0,1,.5.1A1.087,1.087,0,0,0,297.9,496.8Z" fill="#202020"/>
            <path id="Path_9982" data-name="Path 9982" d="M437.6,391.7h0v0Z" fill="#202020"/>
            <path id="Path_9983" data-name="Path 9983" d="M420.5,464h0Z" fill="#202020"/>
            <path id="Path_9984" data-name="Path 9984" d="M402.9,472.8l.5-.1A1.087,1.087,0,0,1,402.9,472.8Z" fill="#202020"/>
            <path id="Path_9985" data-name="Path 9985" d="M427.1,456.1c.2-.2.3-.2.5-.5h-.1C427.5,455.8,427.4,455.9,427.1,456.1Z" fill="#202020"/>
            <path id="Path_9986" data-name="Path 9986" d="M433,447.3c-.1,0-.1.1-.2.1,0,.1-.1.2-.1.3Z" fill="#202020"/>
            <path id="Path_9987" data-name="Path 9987" d="M360.7,284.1a1.421,1.421,0,0,1-.2-.6C360.5,283.8,359.2,283,360.7,284.1Z" fill="#202020"/>
            <path id="Path_9988" data-name="Path 9988" d="M297.6,496.8h0Z" fill="#202020"/>
            <path id="Path_9989" data-name="Path 9989" d="M424.1,453.1a12.7,12.7,0,0,0,1-1.2A5.3,5.3,0,0,1,424.1,453.1Z" fill="#202020"/>
            <path id="Path_9990" data-name="Path 9990" d="M415.4,326.1l-.1-.3A1.007,1.007,0,0,0,415.4,326.1Z" fill="#202020"/>
            <path id="Path_9991" data-name="Path 9991" d="M427.8,448.1a2.177,2.177,0,0,0,.8-.5v-.2Z" fill="#202020"/>
            <path id="Path_9992" data-name="Path 9992" d="M360.5,283.5Z" fill="#202020"/>
            <path id="Path_9993" data-name="Path 9993" d="M351.4,277.2c1.1,1.2.9.2,1.3.3,1.5,1.2.4.9.7,1.5,1,.7,2,.9,2.7,1.5,0,.1.1.2-.1.2,1.2.5,3,2.2,4.5,2.6a.31.31,0,0,1,.1.2.956.956,0,0,1,.2-.7c.6.4,1.3.4,1.3.9-.4-.3-.5-.1-.7-.2l.7.3c.3.8-.9-.4-1.1-.1a33.539,33.539,0,0,1,3.8,1.9c-.1.6-2.3-1.3-1.3-.1l-1.3-1.1c.7,1.4-.8-.6-.3.8,1.8,1.4,2.3,1.2,4.1,2.5.6,0,.1-.5.7-.5,3,1.2,1.5,2.5,3.9,3,.7,0,1.2-.5,2.6.6l-.8.3c1.9,1.1,1.5-.2,3.4,1.2-.5,0-1.6-.6-1.4-.4,1.1,1.1,1.1.1,2.1.6v.6c2.1.9,4.7,1.6,7.1,2.5-.2.1-.7.1-.2.5a70,70,0,0,1,9.3,3.9l1.3-.1c.3.1.4.4.1.4,1,.6.2-.3.8-.3.6.2.7.6.3.6a28.081,28.081,0,0,1,3.9,1,8.6,8.6,0,0,1,3.4,2.1c-.1,0-.3-.1-.4-.1a3.188,3.188,0,0,0,1.7.6,1.74,1.74,0,0,1,1.4.9l-.3-.1a35,35,0,0,1,3.8,3.9,12.776,12.776,0,0,1,1.4,2.1,9.493,9.493,0,0,1,.9,2.1c.4.1.8.9,1.1,1.7.4.8.6,1.6,1.1,1.5a26.943,26.943,0,0,0,.8,4.5c.2.8.9,1,1.2,1.9l-.4.1a8.339,8.339,0,0,1,.8,1.2l-.3.8.3.9c-.1-.4,0-.8.1-.8a6.307,6.307,0,0,1,.4,3.6c.4,1.1.7,2.2,1.1,3.3-.2,0-.3-.6-.5-1,.8,1.7-.3.4.4,2,0-.2.2.1.3.1a20.211,20.211,0,0,0,.8,4.2l-.3-.2c.5,2.5,1.3,5.3,2,8.2-.2-1,.2-.9.4,0l-.2.4c.3.5-.1-.9.4.2.2,1.1-.1.8-.3.2l.4,1.3c-.1.1-.2-.2-.3-.3.3.5.4,2.3.9,3v.1c.9,2.8,1.5,4,2.3,6.2.2,0,.5.9.9,1.5.6,1.6,1.2,3.5,2,5.4.7,1.3.3.3.7.9-.1.2.7,2.1.2,1.1,1,2.3,1.3,2.9,2.6,5.8-.1-.3-.2-.7-.1-.5.2.5.4,1.2.3,1.2l-.1-.1c1.6,3.2,2.5,7.8,3.6,10.4l-.1-.1c.4.9.7,1.8,1,2.7.3,1.3-.4-.7-.2.3,1.2,2.9,1.2,4.8,2,7.3-.2,2.1,1.4,7,1.2,9.8l.2-.2c.3.7,0,.9,0,1.4.1-.1.1-.8.2-.4a53.775,53.775,0,0,1,.4,9c-.2,3.1-.6,6.1-1,9.1-.4,2.1,1.2,1.4.1,4l-.3-.8c-.1,1.1-.2,2.2-.4,3.3s-.5,2.2-.8,3.3c-.6,2.2-1.3,4.2-1.8,6.4,0-.3-.2-.3,0-.7-.7.7-1.2,3.1-.9,3.2-.3.6-.4,0-.7.3-.6.7-.4,2.3-1,2.5-.1,0,0-.3,0-.4-.1.6-1.3,2.4-.6,2.1a13.645,13.645,0,0,0-1.1,2,4.991,4.991,0,0,1-1.1,1.7c0,1-1.7,2.1-1.2,2.8-.6-.6-2.2,1.9-2.6,2.9,0-.4-.8.5-.8,0-.7.9-1.3,1.8-.8,1.9a4.508,4.508,0,0,0-2.2,2.1c-.6.8-1.1,1.4-2,1.3a33.121,33.121,0,0,1-7.2,6.4c-.4-.9,2.9-1.9,2.2-2.6-2.2,1.8-3.3,3.4-6,4.4-.7.2.2-.6.4-.8-2.5,1.6-5.2,2.1-7.6,3.5,0-.1.2-.3.4-.4-.5.2-1.2.3-1,.7l.4-.3c1,.3-1.5,1.9-1.5,2.3.5-1.5-2.6.5-1.8-1.4-.3.2-.7.5-.5.8-.5.1-.7,0-.3-.5-1.7.8-.9,1-2.6,1.6-.1-.2.2-.4.3-.7a5.04,5.04,0,0,1-2.9,1.6c0-.1-.2-.3.2-.4-2.4.8-3.7,2.4-6.5,2.8.5-1.1-1,0-1.4-.7l-1.3.7.7.2c-1.2.4-2.2,1.3-3.3,1.4l.8-.6-2.3.9,1.4-.1c-1.1.8.4.9-1.3,1.2.3-.2-1.2.4-2,.2h0a3.765,3.765,0,0,1-2.1,1c-.3-.2-.1-.9-.3-1-.4.8-2.8,1.1-3.4,2a.6.6,0,0,0,0-.7l-.3.7c-.6,0-.7,0-.7-.4-1.8.5.8.7-1.3,1,.1-.1,0-.1.4-.3-2.1.5-3.9,1.6-5.8,2-.8-.5,1.6-.7.8-1.1-2.7,1-5.4,2.7-8,3.4l.5-.1c-.1,1.1-2.1.2-3.3,1.1.3-.2.3-.7.2-.5a34.774,34.774,0,0,0-6.2,2.6l.3-.3a34.495,34.495,0,0,0-4,1.1c-.3.3-.9.5-.4.7-3.9-.1-6.5,2.8-10,2.8.4-.1.8-.4.5-.4-.9.3-1.7.7-2.6,1,.3.3.4.1,1,.2a3.376,3.376,0,0,1-1.7.8c1.2-.5-.2-.5-.7-.6.1.1,0,.2,0,.3-1.6-.2-.1.7-2.1.8l.1-.2a13.063,13.063,0,0,1-2.1.8c-.4-.3.7-.4.7-.7-1.1.3-2,1.2-3.1,1.1a10.41,10.41,0,0,0,1.6-.6,4.6,4.6,0,0,0-2.1.1h.1a12.252,12.252,0,0,1-1.9.2h.5a3.981,3.981,0,0,1-2.1.9,13.569,13.569,0,0,0-2.5.7c1.8-.8.3-.3.3-.7-.5,0-1.2,0-1-.1-.9.4-1.5.1-2.7.6-.1-.1-1,.1-.8-.2-1.1.2.3.1.2.3a9.893,9.893,0,0,1-3.1.3,23.577,23.577,0,0,0-3.7.2c-1.1.1-1.8.2-2.4.3a14.836,14.836,0,0,1-2.3.1c-.7-.2.6-.2.6-.2a10.4,10.4,0,0,0-1.5-.2c-.5-.1-1-.1-1.5-.2.2,0,0-.1-.3-.2a11.561,11.561,0,0,1-1.7-.1c.2,0,.5-.1.9-.1a15.44,15.44,0,0,1-3-.4c-.2-.1.6,0,1,0-.6-.1-1.3-.2-2-.3-.6-.1-1.2-.3-1.4-.3l.7.3c-.4-.1-.2-.2.1-.1a6.252,6.252,0,0,1,1.4.4l-.7-.1a18.649,18.649,0,0,0,4.4.9l-.7.2h1.6c.3.1.5.3-.2.2a18.134,18.134,0,0,0,1.9.3h1.1c-.2,0,.2.2-.5.1a10.179,10.179,0,0,0,2.3.2c.6,0,1.1-.1,1.4.1h-.2c2.6,0,.3-.2,2.2-.5l1.3.7.2-.3c.3,0,.8,0,.7.1,1-.2-.2-.1.4-.3,1.3.3,3.6-.4,3.9.1.4-.3-1.3-.1.1-.4.5.6,1.6-.3,2.8-.2-.3.4-1.5.3-.2.5.6-.6,2.3-.2,3.3-.5,0-.5,2.1-.5,3.8-1.1a6.225,6.225,0,0,0,1.8-.1c1-.2,2.2-.4,3-.5v.1c.2-.6,1.8-.9,2.9-1.3,0,.3-.1.5-.7.8l1.1-.3a3.658,3.658,0,0,1,1.2-.7l-.2.5c1.4-.4,2.7-1.3,4.6-1.5,0-.4-1.8-.6.1-1.5.1.2.3.5-.2.8a1.884,1.884,0,0,1,.9-.4l-.7.6c.9-.1.3-.4,1-.6.1.3.6.1.5.3-.2.1-.6,0-.8.2a5.19,5.19,0,0,1,2.1-.1c-.1-.2-.1-.4.4-.6,1.4-.5.6.2,1.5.1.3-.3,1.2-.4,1.1-.9a.965.965,0,0,1,.8.2c.7-.4,3.4-1.1,2.4-1.4h-.2a.1.1,0,0,0,.1-.1h0c2.2-1.2,5-1.3,7.3-2.2l.1.2a25.091,25.091,0,0,0,4-1.8c.4-.1,1.1,0,1,.3a5.7,5.7,0,0,1,2.7-.9c-1,.7.5.2-1,.6,1.5-.3,1.9-.1,3.2-1.1-.4.6,1.2.3,1.9-.1h-1.1a8.3,8.3,0,0,1,2.1-.6l-.2.7c3.1-.1,4.8-3,7.4-2.3.6-.7-1.7.2-1.2-.6,1.3-.3,3,.2,3.4.1,1.9-.2,1.4-1.5,3.3-1.8-.3-.2-.7-.7.6-1.4,1.3-.3,1.9.5,1.2.9-.3.1-.5.1-.5,0-.4.2-.9.5-.3.6l.1-.3c.7,0,2.5-.6,2.2,0,.9-.5.3-.5-.5-.4,1.8-.2,2.6-.8,4.5-1.1-.3,0-.7-.2-.4-.3,2.7-.5,1-.8,2.7-1.5,1.1.1-.1,1,1.6.1,1.1-.1.4.6.1.9,1.4-1,3.1-.6,4-.8l-.8.5a4.284,4.284,0,0,1,1.3-.5l-.6-.3c.5-.1.9-.2,1,0,.4-.5-.6-.7.2-1.4.7,0,1.9-.9,2.3-.3-2.1.5.4.6-1.3,1.2a3.373,3.373,0,0,1,1.2-.4c.1,0,0,.2-.1.2,2.2-.1.7-1,2.7-1.7-.1.5.7.5,1,.3-.8.3-.6-.5.1-1,1.4-.2,1.4-.7,2.1-.9l-.8.2c.1-.5.8-.6,1.7-1.1.2.2-.8.5-.4.5.8-1,2.5-.2,3.8-1.2.7,0,.3.6,1,.5,1.4-1.2,1.9-.3,3.4-1.5-.7-.2-.7-.1.2-1.1-.8.6-1.7,1.1-2.5,1.6.5-.5.9-1,1.4-1.5a17.21,17.21,0,0,1-2.1,1.2c.7-.7.6-.6.1-.8,1.4.2,2-1.4,3.4-1.6l.5,1.1a6.332,6.332,0,0,0,2.6-1.6c.4-.4.8-.7,1.2-1.1a5.826,5.826,0,0,1,1.5-1.1l-.8.4c0-.6,1.3-1.1,1.9-1.8.2.4.7.1,1.1.1-.2-.2,1.6-1.3,1.2-2.1l1.2-.5c1.8-1.4,1-2.6,2.6-4-.1.7.7.2,0,1.5.5-.5,1-1,.8-1.1.5-.1.9-1.9,1.6-2.1.1-.3-.2-.7.3-1.3a.1.1,0,0,1,.1.1c-.1-.1.5-1.2-.2-.8a6.941,6.941,0,0,0,2.7-3.1,9.985,9.985,0,0,1,2.3-3.1c.2-.4.3-.7.5-1.1s.3-.8.5-1.2c.3-.8.7-1.5.9-2.2.1.1.2.1,0,.3,1.1-1.6-.4-1.5.7-3.4.5-.4.4-.1.3.2s-.3.7,0,.4c1.2.1.8-2.5,1.9-3.7v.4a5.32,5.32,0,0,0,.5-2c.1-.8.2-1.7.4-2.6a.349.349,0,0,0,.2.1,26.765,26.765,0,0,1,.3-5.5c.3.6,0,.8.5.6.1-.8-.7.1-.5-1.5.3-.5.6-1.6,1.1-1.7l-.2,1.5c.6-.7.3-1.9.4-2.7l.2.1c.1-2.3-.4-2.4-.2-4.8l-.2.2c-.4-1.4.4-1.1,0-2.5l.5-.4c-.1-.9-.5-3.1-.6-4.7a20.622,20.622,0,0,1,.8,3.9,15.839,15.839,0,0,0-.3-3.4,2.161,2.161,0,0,1,.1,1.1,8.709,8.709,0,0,1-.5-1.9c-.1-.7-.2-1.5-.3-2.3.9.3-.1-4.5.3-5.8-.7-3-.9-6.1-1.8-9.6-.2,1.3-.3-1-.7-.7-.2-.8-.3-1.1-.3-1.2l-.4-2.5c0-.6.3.7.4.6-.4-1.8,0-.8-.2-2-.1.3-.4-.5-.6-1.6l.2,1.5c-.9-2.4-.3-2.2-1.3-4.6l.4.7a56.546,56.546,0,0,0-2.3-5.7c0-.2,0-.6.2,0-1-3-2.8-6.4-3.6-8.7l.2.2a11.875,11.875,0,0,1-.8-1.6s.2.2.1-.1a21.716,21.716,0,0,1-1-2.1l.4.6c-1.1-2.9-2.1-4.2-3.1-6.6.3-.1-.5-2.4-.9-3.5h.1c-1.2-3.3-2.2-5.6-3.1-8.7-.1-2.1-1.3-6.8-1.5-10,0,.5-.3,0-.5-.6,0-.8-.6-2-.2-2v.3c.3-.6,0-2.2-.2-3.4l-.6-.1a19.33,19.33,0,0,0-.7-5.7c-.5-1.9-1-3.6-.8-4.6-.4-.7-.6-1.7-1-2.4l.4-.1a22.266,22.266,0,0,0-2-5.8l.5.4a2.973,2.973,0,0,0-1.3-1.4,3.126,3.126,0,0,1-1.4-1.2l.4-.7c-1.3-2.4-2.7-5.1-5.1-6.6a.631.631,0,0,1,.7.1c-.5-.5-1.4-1.4-2.2-2.1s-1.6-1-1.7-.5c.2-.3-.4-.7-1.3-1.1a16.142,16.142,0,0,0-2.6-.9l.4-.3a7.588,7.588,0,0,1-3.2-.4c-.3-.2-.2-.5.3-.2-1.2-.8-1.2,0-2.6-.8l.7-.1a2.693,2.693,0,0,0-2.1-.2c-.9-.1-2.4-1-2.5-1.5a1.932,1.932,0,0,1-1.8-.1c0-.2.3-.2.4-.2-2-1.1-3.4-.6-4.7-1.6,0-.2,0-.3-.1-.4a22.668,22.668,0,0,0,2.9,1.1c.2-.4-1.2-1,.1-1.2-1.2-.1-3.3-.1-4.5-.8,0-.1-.1-.1-.1-.2h.2a3.177,3.177,0,0,0-.9-.3c-.4-.2-.6-.4-1-.6,0-.4-1.4-.8-2.1-1.1-.1.5-1,0-.3.7-.1-.1.1,0,.6.2.1,0,.2.1.3.1h-.1c.4.2,1,.4,1.7.7a2.41,2.41,0,0,1-1.9-.6c-.5.1-1,.3-1.2.3-.6-1-2.2-2.1-2.3-2.6-2.1-.7-4.7-2.1-6.3-2-.6-.2-.5-.6-.7-.8a5.388,5.388,0,0,0,1,.3c-1.2-.4-3.3-1.7-3.8-1.4-1.2-1,1,0-.9-1h.3a15.373,15.373,0,0,0-4.9-2.8,11.8,11.8,0,0,1-4.9-3.4.914.914,0,0,1,.3.5,52.082,52.082,0,0,1-5.9-5.6,15.8,15.8,0,0,1-3.5-7.1,6.2,6.2,0,0,0-.4-1.4,10.374,10.374,0,0,1-.4-1l.2-.4c-.2-.5-.3-1-.5-1.5a10.727,10.727,0,0,1,0-3.1,33.63,33.63,0,0,0,.2-3.6l-.2.4a17.615,17.615,0,0,1,.4-3,1.488,1.488,0,0,1,0-.7h.1a21.051,21.051,0,0,0,.2-2.5c.4-1.9.2.4.7-2.5.1-1.1.4-3,.3-2.6s-.2,1.1-.3,1.1l.2-1c-.1-.2.1-.9-.7,1.4l-.3,1.6-.2.5.3-1.4a8.571,8.571,0,0,0-.4,1.8,1.541,1.541,0,0,0-.3.7c-.1.5-.1,1.1-.2,1.6-.1.2,0-.7-.3.3,0,.8.3-.7.2.6a3.313,3.313,0,0,0-.4,1.5c-.1.1-.1-.1-.1-.5a13.277,13.277,0,0,0-.2,2.6c-.3.8-.2,2.8-.6,2.7a12.143,12.143,0,0,1,.2,2.3c-.2-.7-.2,0-.2.9s.1,1.9-.2,1.7c.5,1,.6,3.9,1.5,5.6a.758.758,0,0,1-.2-.4c.2,1.1.3,1.4.4,2.1.4,0,1.2,1.5,1.9,2.1.3,1.4-.9-.4-1,.1.3-.2,1.5,1.8,1.5,1.3.4,1,.4.8.4,1.5.6-.2.7.7,1.5,1.1.8,1.3-.2.7,1.1,1.7C352.6,278,351.4,277.2,351.4,277.2Zm32.1,18.4h0a2.391,2.391,0,0,1-.7-.3C382.9,295.4,383.1,295.4,383.5,295.6Zm2.8,1.1a6.118,6.118,0,0,1-1.2-.5c0-.2.1-.3.4-.2C385.3,296,386,296.4,386.3,296.7Zm-4.7-5.6c.5.1.6.3.6.4a6.886,6.886,0,0,0-.8-.3h-.1C381.4,291.2,381.5,291.1,381.6,291.1Z" fill="#202020"/>
            <path id="Path_9994" data-name="Path 9994" d="M380.6,291.4h-.2l.2.2c.1,0,.1,0,.2-.1C380.7,291.4,380.7,291.4,380.6,291.4Z" fill="#202020"/>
            <path id="Path_9995" data-name="Path 9995" d="M345.7,490.2Z" fill="#202020"/>
            <path id="Path_9996" data-name="Path 9996" d="M414.3,323l.1-.1-.1-.2Z" fill="#202020"/>
            <path id="Path_9997" data-name="Path 9997" d="M329.1,493.7h-.2C328.9,493.6,329,493.6,329.1,493.7Z" fill="#202020"/>
            <path id="Path_9998" data-name="Path 9998" d="M322.1,495.3l-1,.1A3.083,3.083,0,0,0,322.1,495.3Z" fill="#202020"/>
            <path id="Path_9999" data-name="Path 9999" d="M316.6,496.2c-.1.1-.1.1-.1.2h0Z" fill="#202020"/>
            <path id="Path_10000" data-name="Path 10000" d="M401.2,469.2c.1,0,.1-.1.2-.1C401.8,468.8,401.5,469,401.2,469.2Z" fill="#202020"/>
            <path id="Path_10001" data-name="Path 10001" d="M376.4,478.7a3.039,3.039,0,0,1,.7-.5C376.7,478.3,376.4,478.4,376.4,478.7Z" fill="#202020"/>
            <path id="Path_10002" data-name="Path 10002" d="M424,453.2h0l.1-.1Z" fill="#202020"/>
            <path id="Path_10003" data-name="Path 10003" d="M378.3,477.8a2.145,2.145,0,0,0-1.2.4A4.233,4.233,0,0,0,378.3,477.8Z" fill="#202020"/>
            <path id="Path_10004" data-name="Path 10004" d="M292.7,495.8l-.3-.1h0Z" fill="#202020"/>
            <path id="Path_10005" data-name="Path 10005" d="M292.4,495.7l-.3-.1A.774.774,0,0,0,292.4,495.7Z" fill="#202020"/>
            <path id="Path_10006" data-name="Path 10006" d="M291.5,495.5l.6.2A1.072,1.072,0,0,0,291.5,495.5Z" fill="#202020"/>
            <path id="Path_10007" data-name="Path 10007" d="M300,497.1Z" fill="#202020"/>
            <path id="Path_10008" data-name="Path 10008" d="M302.2,497.2a11.49,11.49,0,0,0-2.1-.2H300A14.982,14.982,0,0,0,302.2,497.2Z" fill="#202020"/>
            <path id="Path_10009" data-name="Path 10009" d="M311.6,498.2a12.051,12.051,0,0,1-1.9,0c.3.1.8.2-.1.3C312,498.8,309.1,498.4,311.6,498.2Z" fill="#202020"/>
            <path id="Path_10010" data-name="Path 10010" d="M317.5,497.8c-1,.2,0,.2,0,.3C318.1,497.8,318.2,497.8,317.5,497.8Z" fill="#202020"/>
            <path id="Path_10011" data-name="Path 10011" d="M358.4,486.7l.1.5C359.2,486.9,358.4,487,358.4,486.7Z" fill="#202020"/>
            <path id="Path_10012" data-name="Path 10012" d="M365.3,481.8l-.8-.1-.2.5Z" fill="#202020"/>
            <path id="Path_10013" data-name="Path 10013" d="M371,483.8l-.3.2,1.2-.6Z" fill="#202020"/>
            <path id="Path_10014" data-name="Path 10014" d="M432.5,449.2l-.6-.1C431.6,449.6,432.2,450.1,432.5,449.2Z" fill="#202020"/>
            <path id="Path_10015" data-name="Path 10015" d="M440.6,419.2a2.391,2.391,0,0,0,.2-1.7C440.8,418.1,440.6,418.8,440.6,419.2Z" fill="#202020"/>
            <path id="Path_10016" data-name="Path 10016" d="M419.3,330.2l.2.5-.3-1.1Z" fill="#202020"/>
          </g>
        </g>
      </g>
    </g>
    <g id="Group_979" data-name="Group 979">
      <g id="Group_978" data-name="Group 978">
        <g id="Group_977" data-name="Group 977">
          <g id="Group_976" data-name="Group 976">
            <path id="Path_10017" data-name="Path 10017" d="M364.9,493.9c.2-.1.1-.1-.5.2l-.3.2Z" fill="#202020"/>
            <path id="Path_10018" data-name="Path 10018" d="M361.2,495.3c-.6.3-1.4.6-.9.6.6-.4.8-.3,1.4-.7.5-.2,1-.4.9-.3a11.731,11.731,0,0,1,1.1-.5,19.463,19.463,0,0,0-2.5.9Z" fill="#202020"/>
            <path id="Path_10019" data-name="Path 10019" d="M305.4,488.6l.3.2A1.235,1.235,0,0,0,305.4,488.6Z" fill="#202020"/>
            <path id="Path_10020" data-name="Path 10020" d="M271.7,477.3c.3.1.4,0,.4,0C271.9,477.2,271.7,477.2,271.7,477.3Z" fill="#202020"/>
            <path id="Path_10021" data-name="Path 10021" d="M266.2,474.7c.1.1.2.1.3.2C266.4,474.7,266.3,474.6,266.2,474.7Z" fill="#202020"/>
            <path id="Path_10022" data-name="Path 10022" d="M305.4,488.6l-.8-.5C304.5,488.3,305,488.5,305.4,488.6Z" fill="#202020"/>
            <path id="Path_10023" data-name="Path 10023" d="M353.6,497.8a4.331,4.331,0,0,0,.5-.1,1.088,1.088,0,0,0-.5.1Z" fill="#202020"/>
            <path id="Path_10024" data-name="Path 10024" d="M320.5,493l.3.1c.1,0,.2-.1.3-.1Z" fill="#202020"/>
            <path id="Path_10025" data-name="Path 10025" d="M332.1,495.8c-.3-.1-.4.3-.5.4a1.268,1.268,0,0,1,.6-.1A.367.367,0,0,1,332.1,495.8Z" fill="#202020"/>
            <path id="Path_10026" data-name="Path 10026" d="M350.9,497.5l.3-.1A.367.367,0,0,0,350.9,497.5Z" fill="#202020"/>
            <path id="Path_10027" data-name="Path 10027" d="M312.3,490.3c0-.1,0-.1-.1-.2C312.2,490.2,312.2,490.2,312.3,490.3Z" fill="#202020"/>
            <path id="Path_10028" data-name="Path 10028" d="M303.8,257.5Z" fill="#202020"/>
            <path id="Path_10029" data-name="Path 10029" d="M302.7,243.7v.2h0Z" fill="#202020"/>
            <path id="Path_10030" data-name="Path 10030" d="M255.8,470.5h0C256.2,470.6,256,470.5,255.8,470.5Z" fill="#202020"/>
            <path id="Path_10031" data-name="Path 10031" d="M214.8,392.2c-.5,1.1.2-1.9-.5-.3C214.5,391.8,214.4,393.6,214.8,392.2Z" fill="#202020"/>
            <path id="Path_10032" data-name="Path 10032" d="M353.3,497.8c-.2,0-.3.1-.5.1C353.1,497.9,353.2,497.9,353.3,497.8Z" fill="#202020"/>
            <path id="Path_10033" data-name="Path 10033" d="M214.4,392h0l-.1.2A.349.349,0,0,1,214.4,392Z" fill="#202020"/>
            <path id="Path_10034" data-name="Path 10034" d="M233.6,460.3v.3Q233.75,460.6,233.6,460.3Z" fill="#202020"/>
            <path id="Path_10035" data-name="Path 10035" d="M249.3,469.6l-.4-.2C249.1,469.5,249.2,469.6,249.3,469.6Z" fill="#202020"/>
            <path id="Path_10036" data-name="Path 10036" d="M226.3,454.2a.887.887,0,0,0-.4-.5v.1C226.1,453.8,226.2,453.9,226.3,454.2Z" fill="#202020"/>
            <path id="Path_10037" data-name="Path 10037" d="M220.6,445.9v.2c.1.1.1.2.2.3Z" fill="#202020"/>
            <path id="Path_10038" data-name="Path 10038" d="M288.4,281.2a1.083,1.083,0,0,1,.6.1C288.7,281.1,289.9,280.2,288.4,281.2Z" fill="#202020"/>
            <path id="Path_10039" data-name="Path 10039" d="M353.6,497.7c-.1.1-.1.1-.3.1a.368.368,0,0,0,.3-.1Z" fill="#202020"/>
            <path id="Path_10040" data-name="Path 10040" d="M222.8,456.5c-.3-.5-.7-.9-1-1.4A9.38,9.38,0,0,0,222.8,456.5Z" fill="#202020"/>
            <path id="Path_10041" data-name="Path 10041" d="M232.7,325.5v0Z" fill="#202020"/>
            <path id="Path_10042" data-name="Path 10042" d="M218.9,450.9a2.959,2.959,0,0,0-.2-1c-.1,0-.1-.1-.2-.1Z" fill="#202020"/>
            <path id="Path_10043" data-name="Path 10043" d="M289,281.2Z" fill="#202020"/>
            <path id="Path_10044" data-name="Path 10044" d="M296.8,274.3c-1.1,1-.2.8-.2,1.2-1.3,1.3-.9.3-1.5.5a23.286,23.286,0,0,1-1.9,2.2c-.1,0-.3,0-.2-.2-.7,1-2.9,2-3.8,3.3H289a1.024,1.024,0,0,1,.6.5c-.6.4-.9,1-1.3.8.4-.2.3-.4.4-.6l-.5.5c-.8-.1.7-.7.5-1-1.1.9-2.3,2.2-3.3,2.6-.5-.3,2.1-1.5.6-1.1l1.5-.7c-1.5,0,.9-.5-.6-.6-1.9,1-2,1.5-3.9,2.5-.3.5.4.3.1.8-2.5,2-2.8,0-4.5,1.7-.4.6-.2,1.3-1.9,1.7l.2-.8c-1.9.9-.7,1.4-2.9,1.9.2-.4,1.4-.9,1.1-.8-1.5.2-.8.8-1.8,1.2l-.5-.4c-2,1-4.1,2.4-6.4,3.4.1-.2.4-.5-.2-.5-2.8,1.5-6.3,2.2-9.4,2.9l-1,.9c-.3.1-.6,0-.3-.2-1.2.2.1.3-.4.7-.6.3-1,0-.6-.3-.9.6-2.3,1.4-3.7,2.2a29.1,29.1,0,0,1-3.9,2c.1-.1.2-.3.3-.4a3.126,3.126,0,0,0-1.4,1.4,2.7,2.7,0,0,1-1.3,1.3l.2-.3a21.914,21.914,0,0,0-4.2,4.4c-.6.8-1.2,1.5-1.7,2.3-.5.7-1,1.4-1.5,2,.2.4-.3,1.3-.7,2.1-.5.8-.7,1.7-.4,2a15.706,15.706,0,0,0-2.3,4.2c-.2.8.2,1.4,0,2.4l-.4-.1c0,.5.1,1,.1,1.5l-.6.6-.1,1c.1-.4.3-.8.4-.7a8.712,8.712,0,0,1-1.2,3.5l-.3,3.5a3.451,3.451,0,0,1-.1-1.2c.1,1.9-.4.3-.4,2,.1-.2.2.2.2.2a26.261,26.261,0,0,0-.8,4.2l-.2-.3c-.4,2.6-.7,5.4-1.3,8.2.3-1,.6-.7.4.1l-.3.3c0,.6.3-.8.2.3-.3,1-.4.6-.4,0l-.2,1.3c-.1.1-.1-.3-.1-.4,0,.6-.7,2.1-.7,2.9l-.1.1c-.8,2.8-1.1,4-1.9,6.2.2.1-.2,1-.3,1.7-.7,1.6-1.5,3.3-2.3,5.3-.5,1.4,0,.5-.2,1.1-.2,0-1,2-.7.9-1,2.3-1.2,3-2.3,6,.2-.3.4-.6.3-.4a4.061,4.061,0,0,1-.6,1.1v-.1c-1.2,3.4-3.5,7.5-4.1,10.4V381c-.3,1-.5,1.9-.8,2.9-.4,1.3.1-.8-.3.1-.7,3.1-1.5,4.8-2,7.4a19.581,19.581,0,0,0-1.4,4.6,42.187,42.187,0,0,1-1.1,5.2l.2-.1c0,.7-.2.8-.4,1.4.2-.1.3-.7.3-.3-.4,3-.7,6.1-1.1,9.3-.3,3.2-.5,6.4-.5,9.6.1,2.3,1.4,1.2,1.1,4.1l-.6-.7c1.1,4.5,1.6,9.5,3.6,13.7-.2-.2-.4-.2-.5-.6-.1,1.1,1.2,3.4,1.5,3.3.2.7-.2.3-.2.7.2,1,1.4,2,1.3,2.7,0,.1-.2-.2-.3-.3.5.5,1.2,2.7,1.4,1.9a15.054,15.054,0,0,0,1.1,2.2,9.342,9.342,0,0,1,1,2c1,.5,1.3,2.7,2.2,2.4-.8.4,1.2,2.9,2.2,3.5-.4-.1.4.9-.2.8.8,1,1.7,1.8,1.9,1.3a5.619,5.619,0,0,0,2.2,2.6c.9.6,1.6,1.1,1.6,2.1a81.636,81.636,0,0,0,9.1,5.5c-.6.7-3.2-1.9-3.6-1,2.9,1.5,4.9,1.7,7.6,3.3.7.5-.6.2-.9.2,3,1,5.5,2.6,8.3,3,0,.1-.3.1-.6,0,.5.2,1.1.6,1.2.1l-.5-.1c-.6-.9,2.5-.5,2.7-.8-1.3.9,2.5,1.2.6,2.2.4,0,.8,0,.9-.3.5.2.6.5,0,.6,1.9.4,1.4-.3,3,.3-.1.2-.4.2-.7.4a5.019,5.019,0,0,1,3.3.4c-.1.1,0,.3-.4.2,2.4.7,4.4.2,6.9,1.5-1.1.6.8.6.7,1.4l1.5.2-.4-.5c1.2.4,2.5.2,3.5.8h-1l2.4.6-1.2-.7c1.4,0,.2-1,1.8-.3-.4,0,1.2.4,1.7,1.1h0a4.018,4.018,0,0,1,2.3.4c.2.3-.5.8-.3,1,.8-.4,3,.7,3.9.3a.723.723,0,0,0-.4.6l.7-.3c.5.3.6.4.4.7,1.7.6-.3-1.1,1.7-.1-.2,0-.1.1-.5.1,2,.9,4.1.9,5.9,1.8.3.9-1.7-.3-1.3.5,2.8.7,5.9.9,8.5,1.9l-.5-.2c.7-.8,1.8,1.1,3.3,1.1a.739.739,0,0,0-.5.3,47.374,47.374,0,0,0,6.6,1.5l-.4.1c1,.5,2.8,1,3.9,1.4.4-.1,1.1.1.8-.3a10.844,10.844,0,0,0,5,1.8,12.852,12.852,0,0,1,4.8,1.5c-.4-.1-1-.1-.7,0,.9.2,1.8.4,2.8.6-.1-.4-.3-.3-.8-.7a4.24,4.24,0,0,1,1.9.1c-1.3-.1-.1.5.4.8-.1-.1.1-.2.1-.3,1.3.9.4-.6,2.3.3l-.1.1a9.08,9.08,0,0,1,2.3.3c.2.4-.8,0-.9.3,1.1.2,2.3-.2,3.3.4-.5,0-1.2-.1-1.7-.1a5.192,5.192,0,0,0,2,.8h-.1a10.548,10.548,0,0,0,1.9.5l-.5-.2c1.6-.6,2.9.4,4.9.1-1.9.3-.4.3-.5.6.5.2,1.2.4,1,.4.9-.2,1.5.4,2.8.1,0,.1,1,.1.7.3,1.2,0-.3-.2-.2-.3,1.8-.2,4.3.7,6.9.1a10.713,10.713,0,0,0,2.4-.4,21.412,21.412,0,0,1,2.3-.5c.7.1-.6.3-.6.3a8.083,8.083,0,0,0,1.6-.1l1.5-.3c-.2.1,0,.1.4.1a6.072,6.072,0,0,1,1.7-.4l-.8.4c1-.2,1.9-.6,3-.9.3,0-.6.3-.9.4.6-.2,1.3-.4,1.9-.6a8.509,8.509,0,0,0,1.3-.6l-.7.2c.4-.1.2,0-.1.2a2.784,2.784,0,0,1-1.5.3l.7-.2a5.811,5.811,0,0,0-1.9.4,11.365,11.365,0,0,1-2.5.6l.6-.4-1.5.5c-.3,0-.6-.1.1-.3-1.1,0-.9.3-1.9.2-.1,0-.1,0,0-.1l-1,.2c.2-.1-.2-.2.5-.2a14.041,14.041,0,0,0-2.3.2,3.222,3.222,0,0,1-1.4,0h.2c-2.6.1-.2.3-2.2.6-.4-.2-.9-.5-1.3-.7l-.3.3c-.3,0-.8-.1-.7-.2-1,.2.2.1-.4.3-.6-.1-1.5-.2-2.3-.3s-1.4-.1-1.5-.4c-.5.2,1.2.3-.2.4-.3-.6-1.6-.1-2.7-.5.4-.3,1.5.1.4-.4a1.986,1.986,0,0,1-1.5-.1,6.4,6.4,0,0,0-1.7-.5c-.1.4-2.2-.2-3.8-.4.1-.1-.7-.3-1.6-.6a29.072,29.072,0,0,1-2.8-1l.1-.1c-.4.4-2-.1-3.1-.3.1-.3.4-.4,1-.3l-1.1-.3a3.158,3.158,0,0,1-1.4,0l.4-.3c-1.4-.4-3-.4-4.7-1.2-.2.4,1.1,1.5-.9,1.2,0-.2,0-.6.6-.6a1.644,1.644,0,0,1-.9-.2l.9-.1c-.8-.4-.5.2-1.2-.1.1-.3-.4-.4-.2-.6.2,0,.5.3.8.3a5.609,5.609,0,0,1-1.8-1.1c0,.2-.1.4-.7.3-1.4-.4-.4-.5-1.1-1-.4.1-1.2-.4-1.4.1-.4-.1-.4-.4-.5-.6-.8,0-3.4-1.1-2.8-.3l.2.1h-.1c-2.5-.3-4.8-1.9-7.3-2.4l.1-.2c-1.5-.3-3.2-.9-4.3-.8-.4-.1-.9-.6-.6-.8a5.285,5.285,0,0,1-2.8-.9c1.2,0-.3-.4,1.2.1-1.3-.6-1.6-1-3.2-1,.7-.3-.9-.9-1.6-1l.9.7a12.931,12.931,0,0,1-2.1-.7l.6-.5c-2.6-1.7-5.6-.4-7.3-2.4-.9.2,1.4.8.6,1.1-1.3-.5-2.4-1.9-2.8-2-1.7-1-2,.4-3.8-.4.2.3.2,1-1.3.8-1.3-.5-1.3-1.5-.4-1.5.3.1.5.2.4.3.5.1,1,.1.6-.3l-.2.2c-.6-.5-2.4-1-1.8-1.3-1.1-.1-.6.3.1.6-1.6-.9-2.6-.9-4.3-1.7.2.2.4.6.1.5-2.5-1.1-1.3.1-3-.4-.9-.7.6-.8-1.2-1-1-.6,0-.7.5-.8-1.7,0-2.9-1.3-3.7-1.6l.9.1a7.008,7.008,0,0,1-1.4-.3l.3.6c-.5-.2-.9-.4-.8-.6-.6.2.1.9-1,1-.6-.5-2.1-.4-2.1-1.1,2,.9,0-.7,1.8-.3a2.843,2.843,0,0,1-1.2-.4c-.1-.1.1-.1.3-.1-1.8-1.2-1.1.4-3.1-.2.4-.3-.2-.8-.6-.9.8.3.2.7-.7.8-1.2-.7-1.5-.3-2.1-.5l.7.4c-.4.3-1,0-1.9-.2,0-.3.9.1.6-.1-1.2.3-2-1.5-3.5-1.6-.5-.5.2-.7-.3-1.1-1.7-.2-1.4-1.1-3-1.5.2.6.3.6-.9.5.9.3,1.8.6,2.6.9-.6,0-1.3-.1-1.9-.1.8.4,1.7.5,2.2.8-1,0-.8-.1-.6.5-.7-1.2-2.3-.6-3.2-1.7l.6-1.1a6,6,0,0,0-2.5-1.3,8.427,8.427,0,0,1-1.4-.6,12.132,12.132,0,0,1-1.4-1l.6.7c-.6.2-1.3-.9-2.1-1.2.3-.3,0-.7-.1-1.1-.2.3-1.4-1.2-2.1-.8l-.5-1.2c-1.4-1.5-2.5-.9-3.8-2.5.7.2.3-.7,1.4.1-.5-.5-.8-1-1-.8-.1-.4-1.6-1.1-1.7-1.8-.3-.1-.7.1-1.1-.6a.1.1,0,0,1,.1-.1c-.1.1-.9-.8-.8,0a10.1,10.1,0,0,0-1.9-3.5c-.8-1.2-1.6-2.4-1.6-3.4-.2-.3-.4-.6-.7-1-.2-.3-.4-.7-.6-1-.4-.7-.8-1.4-1.1-2,.1,0,.2-.1.2.2-.5-1.8-1.4-.6-1.9-2.7.1-.6.2-.4.4-.1s.3.6.3.3c.9-.7-1.1-2.3-1-3.9l.2.3c0-1.1-1.3-2.4-1.7-4.1a.138.138,0,0,0,.2,0c-.9-1-1.6-3.2-2.1-4.9.5.5.4.7.7.3-.2-.7-.6.3-1-1.2.1-.5.1-1.7.5-1.9l.3,1.4c.4-.8-.4-1.8-.4-2.6l.2.1c-.4-2.2-1-2.2-1.1-4.6l-.9-.5c-.6-1.3.2-1.1-.2-2.4l.5-.4a17.321,17.321,0,0,1-.4-2c-.1-.8-.2-1.8-.3-2.6a36.136,36.136,0,0,1,.8,3.8,28.631,28.631,0,0,0-.3-3.4c0,.3.2.8.1,1.1a8.024,8.024,0,0,1-.4-1.8,8.844,8.844,0,0,1,0-2.3c.8.4.5-4.5,1.3-5.6,0-3,.8-5.9,1.4-9.4-.7,1.1.2-1-.4-.9.1-.8.2-1.1.3-1.2l.9-2.4c.3-.5-.1.8,0,.7.4-1.7.4-.7.8-1.8-.2.2-.1-.7.2-1.6l-.6,1.3c.4-2.5.9-2,1.4-4.5l-.1.8c.3-1.3,1.4-4.6,1.5-5.9.1-.2.3-.5.2.1a87.56,87.56,0,0,1,3.2-8.8v.3a6.392,6.392,0,0,1,.6-1.6s0,.3.1,0,.5-1.5.8-2.2l-.2.6c1.3-2.8,1.6-4.4,2.5-6.8.3.1,1.3-2.1,1.7-3.2v.1a53.983,53.983,0,0,0,2.7-9,24.4,24.4,0,0,0,1.4-4.5c.5-1.8.9-3.9,1.4-5.4-.2.5-.3-.1-.2-.7.3-.7.1-2.2.5-2l-.1.3c.5-.5.8-2.1,1-3.3l-.5-.3c1.5-3,1.5-8.3,3-9.7.1-.8.3-1.7.4-2.4l.4.2c.8-1.9,1.2-2.9,2.3-5.2v.6a2.532,2.532,0,0,0,.2-1.7,2.524,2.524,0,0,1,.1-1.7h.8a8.276,8.276,0,0,1,1.1-1.5l1.2-1.4c.4-.5.9-.9,1.2-1.3.4-.4.7-1,1.1-1.5a.726.726,0,0,1-.1.6c.4-.4,1.4-1,2-1.5.7-.5,1.2-1,.8-1.4.4.5,2.1-1.3,3.3-2.2v.5a4.27,4.27,0,0,1,2.1-2.1c.4-.1.5.2-.1.3,1.3-.3.7-.8,2.3-1.2l-.4.5c1.3-.4,1.1-.6,1.7-1.2.7-.5,2.5-.7,2.8-.4a2.336,2.336,0,0,1,1.5-1.1c.2.1-.1.3-.2.4,2.3-.4,3-1.7,4.7-1.8a.52.52,0,0,0,.4.2c-1.7.7-3.1,1.1-3,1.1.2.4,1.6,0,.7,1,1-.7,2.6-2.2,4.1-2.5.1,0,.2,0,.2.1l-.1.1a2.01,2.01,0,0,0,.8-.4,5.639,5.639,0,0,0,1.2-.4c.3.3,1.6-.5,2.3-.8-.3-.4.7-.7-.3-.7.1,0-.1.1-.5.3-.1.1-.2.1-.3.2V294c-.4.2-1,.5-1.7.8a2.48,2.48,0,0,1,1.8-1c.2-.4.5-.9.6-1.1,1.2.2,3.1-.3,3.5-.1,1.9-1.2,4.6-2.6,5.5-4.1.5-.4.8-.1,1-.1-.3.3-.7.5-.8.7,1-.8,3.2-2,3.2-2.6,1.5-.6-.5.9,1.3-.3l-.2.3a12.971,12.971,0,0,0,4.7-3.4,17.941,17.941,0,0,1,4.9-3.7.987.987,0,0,1-.6.2,24.38,24.38,0,0,0,6.1-5.9,27.74,27.74,0,0,0,2.2-3.7,32.039,32.039,0,0,0,1.6-3.9,6.677,6.677,0,0,0,.2-2.7l.3-.3a9.852,9.852,0,0,0-.2-1.7c0-2.3.7-4,0-6.8l-.1.4c-.1-1-.5-3.2-.3-3.1a1.973,1.973,0,0,1-.2-.7h.1l-.6-2.5c-.4-1.9.3.2-.3-2.5-.3-1-.9-2.9-.8-2.5s.2,1.1.2,1.1l-.2-.9c-.1-.1-.3-.9,0,1.5l.4,1.6v.5l-.2-1.4c.1.8.2,1.3.3,1.8v.7l.4,1.6c-.1.2-.3-.7-.2.4.2.7.1-.8.3.5a3.929,3.929,0,0,0,.1,1.5c-.1.1-.1-.1-.2-.4.2.8.2,2.2.4,2.6-.1.8.2,2.8-.2,2.7a10.948,10.948,0,0,1,.2,2.2c-.2-.7-.2,0-.3.8s-.2,1.7-.5,1.5a5.336,5.336,0,0,1-.2,2.4,8.333,8.333,0,0,1-.4,1.5c-.1.5-.3.9-.4,1.4a.6.6,0,0,1,.1-.4,5.537,5.537,0,0,1-1,1.6c.2.1.1.6,0,1-.1.5-.3,1.1-.4,1.5-1,.8-.1-.9-.6-.8.4.1-.8,1.9-.4,1.7-.8.6-.6.5-1.2.7.4.5-.5.7-.7,1.5-1.2.7-.6-.1-1.6,1A7.973,7.973,0,0,1,296.8,274.3Zm-30.2,18.8h0a4.88,4.88,0,0,0,.7-.3A4.88,4.88,0,0,1,266.6,293.1Zm-2.8,1.1c.4-.1.8-.3,1.2-.4.2.1.1.3-.2.4C265,294,264.2,294.2,263.8,294.2Zm7.3.7a.783.783,0,0,1-.7.2,5.9,5.9,0,0,0,.8-.4v-.1A.367.367,0,0,0,271.1,294.9Z" fill="#202020"/>
            <path id="Path_10045" data-name="Path 10045" d="M271.6,294c.1,0,.1-.1.2-.1h-.3c0,.1-.1.1-.1.2C271.5,294.1,271.5,294,271.6,294Z" fill="#202020"/>
            <path id="Path_10046" data-name="Path 10046" d="M305.8,488.9Z" fill="#202020"/>
            <path id="Path_10047" data-name="Path 10047" d="M233.3,322l.1.1v-.3Z" fill="#202020"/>
            <path id="Path_10048" data-name="Path 10048" d="M321.5,495.2l.2.2C321.7,495.3,321.6,495.3,321.5,495.2Z" fill="#202020"/>
            <path id="Path_10049" data-name="Path 10049" d="M328.7,496.9l1,.3A4.051,4.051,0,0,1,328.7,496.9Z" fill="#202020"/>
            <path id="Path_10050" data-name="Path 10050" d="M334.2,498a.1.1,0,0,0,.1-.1h0Z" fill="#202020"/>
            <path id="Path_10051" data-name="Path 10051" d="M248.3,473.5c-.1,0-.1,0-.2-.1C247.6,473.4,247.9,473.5,248.3,473.5Z" fill="#202020"/>
            <path id="Path_10052" data-name="Path 10052" d="M274.1,480.4h-.9C273.6,480.6,273.9,480.7,274.1,480.4Z" fill="#202020"/>
            <path id="Path_10053" data-name="Path 10053" d="M222.9,456.7h0c0-.1-.1-.1-.1-.2Z" fill="#202020"/>
            <path id="Path_10054" data-name="Path 10054" d="M272,480a1.922,1.922,0,0,0,1.2.4A2.843,2.843,0,0,0,272,480Z" fill="#202020"/>
            <path id="Path_10055" data-name="Path 10055" d="M358.5,496.6l.3-.1h0Z" fill="#202020"/>
            <path id="Path_10056" data-name="Path 10056" d="M358.8,496.5l.3-.1C359,496.4,358.8,496.4,358.8,496.5Z" fill="#202020"/>
            <path id="Path_10057" data-name="Path 10057" d="M359.7,496.1l-.6.2A1.072,1.072,0,0,0,359.7,496.1Z" fill="#202020"/>
            <path id="Path_10058" data-name="Path 10058" d="M351.2,498.2Z" fill="#202020"/>
            <path id="Path_10059" data-name="Path 10059" d="M348.9,498.4a16.232,16.232,0,0,0,2.1-.1l.1-.1A13.785,13.785,0,0,1,348.9,498.4Z" fill="#202020"/>
            <path id="Path_10060" data-name="Path 10060" d="M339.5,497.2a11.075,11.075,0,0,0,1.9.2c-.3-.1-.7-.3.1-.3C339.2,496.7,342,497.5,339.5,497.2Z" fill="#202020"/>
            <path id="Path_10061" data-name="Path 10061" d="M333.8,496.3c1,.1,0-.2.1-.3C333.2,496,333.1,496,333.8,496.3Z" fill="#202020"/>
            <path id="Path_10062" data-name="Path 10062" d="M293.4,484.3l.2-.4C292.9,483.7,293.6,484.1,293.4,484.3Z" fill="#202020"/>
            <path id="Path_10063" data-name="Path 10063" d="M284.9,484.4l.6.5.5-.4Z" fill="#202020"/>
            <path id="Path_10064" data-name="Path 10064" d="M281.5,479.4h.3l-1.3-.2Z" fill="#202020"/>
            <path id="Path_10065" data-name="Path 10065" d="M221.9,447.2l-.4.5C221.9,448.1,222.5,447.9,221.9,447.2Z" fill="#202020"/>
            <path id="Path_10066" data-name="Path 10066" d="M212.4,419a2.466,2.466,0,0,0,0-1.7A9.354,9.354,0,0,0,212.4,419Z" fill="#202020"/>
            <path id="Path_10067" data-name="Path 10067" d="M234.6,330.7v.6l.2-1.1Z" fill="#202020"/>
          </g>
        </g>
      </g>
    </g>
    <g id="Group_983" data-name="Group 983">
      <g id="Group_982" data-name="Group 982">
        <g id="Group_981" data-name="Group 981">
          <g id="Group_980" data-name="Group 980">
            <path id="Path_10068" data-name="Path 10068" d="M401.4,512.3c.2,0,.1-.1-.6-.1l-.5.1Z" fill="#202020"/>
            <path id="Path_10069" data-name="Path 10069" d="M396.9,512.1c-.8,0-1.7.1-1.2.3.8-.1,1-.1,1.8-.2.7,0,1.2,0,1.1.1H400a28.53,28.53,0,0,0-3.1-.2C396.6,512.2,396.8,512.1,396.9,512.1Z" fill="#202020"/>
            <path id="Path_10070" data-name="Path 10070" d="M331.2,522.3l.4-.1C331.5,522.3,331.4,522.3,331.2,522.3Z" fill="#202020"/>
            <path id="Path_10071" data-name="Path 10071" d="M292.2,535.9c.3-.1.4-.2.4-.3C292.3,535.7,292.1,535.9,292.2,535.9Z" fill="#202020"/>
            <path id="Path_10072" data-name="Path 10072" d="M285.4,537.7c.1,0,.3-.1.4-.1A1.033,1.033,0,0,0,285.4,537.7Z" fill="#202020"/>
            <path id="Path_10073" data-name="Path 10073" d="M331.2,522.3l-1.1.2C330.1,522.7,330.7,522.4,331.2,522.3Z" fill="#202020"/>
            <path id="Path_10074" data-name="Path 10074" d="M387.7,512.8c.2,0,.4-.1.6-.1a1.269,1.269,0,0,0-.6.1Z" fill="#202020"/>
            <path id="Path_10075" data-name="Path 10075" d="M348.7,517.1l.3-.1c.1-.1.2-.2.2-.3Z" fill="#202020"/>
            <path id="Path_10076" data-name="Path 10076" d="M362.4,514.2c-.3,0-.4.4-.4.6.1-.2.4-.3.6-.4C362.6,514.3,362.6,514.3,362.4,514.2Z" fill="#202020"/>
            <path id="Path_10077" data-name="Path 10077" d="M384.5,512.2l.4-.1C384.8,512.1,384.7,512.2,384.5,512.2Z" fill="#202020"/>
            <path id="Path_10078" data-name="Path 10078" d="M339,519.5c0-.1-.1-.1-.2-.1A.31.31,0,0,1,339,519.5Z" fill="#202020"/>
            <path id="Path_10079" data-name="Path 10079" d="M272.5,485.3h0C272.5,485.4,272.6,485.4,272.5,485.3Z" fill="#202020"/>
            <path id="Path_10080" data-name="Path 10080" d="M286.5,493.5l-.2-.1h-.1Z" fill="#202020"/>
            <path id="Path_10081" data-name="Path 10081" d="M273.1,541.7Z" fill="#202020"/>
            <path id="Path_10082" data-name="Path 10082" d="M164.3,533.1c.7,1.1-1.6-1.4-.5.2C163.7,533.1,165.3,534.3,164.3,533.1Z" fill="#202020"/>
            <path id="Path_10083" data-name="Path 10083" d="M387.3,512.8h0Z" fill="#202020"/>
            <path id="Path_10084" data-name="Path 10084" d="M163.8,533.3h0l.1.2A.349.349,0,0,0,163.8,533.3Z" fill="#202020"/>
            <path id="Path_10085" data-name="Path 10085" d="M245.2,550.4c.1.1.2.1.3.2C245.6,550.5,245.5,550.5,245.2,550.4Z" fill="#202020"/>
            <path id="Path_10086" data-name="Path 10086" d="M266.5,545.5l-.5.1C266.2,545.6,266.3,545.5,266.5,545.5Z" fill="#202020"/>
            <path id="Path_10087" data-name="Path 10087" d="M234.1,552.9a2.134,2.134,0,0,0-.8,0,.1.1,0,0,1,.1.1A.821.821,0,0,1,234.1,552.9Z" fill="#202020"/>
            <path id="Path_10088" data-name="Path 10088" d="M222.3,553.7c.1,0,.1.1.2.1h.4Z" fill="#202020"/>
            <path id="Path_10089" data-name="Path 10089" d="M239.1,470.6c.2.2.3.4.4.5C239.4,470.8,241.1,471.3,239.1,470.6Z" fill="#202020"/>
            <path id="Path_10090" data-name="Path 10090" d="M387.7,512.7c-.1,0-.2.1-.4.1a.756.756,0,0,1,.4-.1Z" fill="#202020"/>
            <path id="Path_10091" data-name="Path 10091" d="M234.1,557.1l-1.9.1A13.419,13.419,0,0,0,234.1,557.1Z" fill="#202020"/>
            <path id="Path_10092" data-name="Path 10092" d="M156.2,461.7a1.38,1.38,0,0,1,.4-.3C156.4,461.5,156.2,461.6,156.2,461.7Z" fill="#202020"/>
            <path id="Path_10093" data-name="Path 10093" d="M226.4,557.6a2.279,2.279,0,0,0-1.1-.3.349.349,0,0,0-.2.1Z" fill="#202020"/>
            <path id="Path_10094" data-name="Path 10094" d="M239.5,471.2Z" fill="#202020"/>
            <path id="Path_10095" data-name="Path 10095" d="M251.5,475.1c-1.7-.7-1,.1-1.4.2-2-.7-.8-.7-1.4-1.2-1.3-.4-2.4-.4-3.4-.8,0-.1-.2-.2,0-.2-1.5-.2-3.9-1.6-5.7-1.7-.1-.1-.1-.2-.2-.2a.746.746,0,0,1,0,.8c-.8-.3-1.5-.2-1.7-.7.5.2.6.1.8,0l-.9-.2c-.5-.8,1.1.2,1.3-.1a24.268,24.268,0,0,1-4.7-1.3c-.1-.6,2.8.9,1.4-.2l1.8.9c-1.1-1.3,1.1.5.1-.8-2.4-1.1-2.8-.8-5.2-1.9-.6.1,0,.5-.6.6-3.6-.8-2.3-2.3-5-2.5-.8.1-1.3.7-3-.3l.8-.4c-2.3-.9-1.7.4-4-.9.5-.1,1.9.5,1.6.3-1.4-1.1-1.3-.1-2.5-.5l-.1-.6c-2.6-.8-5.4-1.4-8.3-2.3.2-.1.8-.1.2-.5a93.031,93.031,0,0,1-10.8-4.2l-1.5.1c-.3-.1-.5-.4-.1-.4-1.3-.6-.2.3-.9.3-.8-.2-.9-.6-.4-.6a67.383,67.383,0,0,1-9.8-1.8l.5-.1c-2.1-.5-2.5.8-4.4.1l.4-.1a20.182,20.182,0,0,0-3.5-.1c-1.2,0-2.3.2-3.5.3-1.1.1-2.2.3-3.2.4s-2,.2-2.9.3c-.2.4-1.3.7-2.4.9-1,.3-2,.7-2,1.2-1.3.2-1.8.3-2.4.4a13.819,13.819,0,0,0-3,1c-.9.4-1.1,1.1-2.1,1.7l-.2-.4-1.2,1.2h-1l-.9.6c.4-.2.9-.3.9-.2a11.879,11.879,0,0,1-2.5,1.3,6.764,6.764,0,0,1-1.5.6c-1.1.9-2.1,1.9-3.1,2.9a2.894,2.894,0,0,1,.8-1.1c-1.4,1.8-.6,0-1.8,1.7.2-.1,0,.3.1.3a14.925,14.925,0,0,0-3.3,3.9v-.4a20.364,20.364,0,0,0-2.3,4.4,21.914,21.914,0,0,0-1.2,5.2c.1-.6.3-.9.3-.8.1.1.1.4.1.9l-.3.4c.1.7.2-1.1.3.3-.1.6-.1.9-.2.8-.1,0-.2-.3-.2-.7,0,.5.1,1.1.1,1.6-.1.1-.1-.3-.2-.4a25.063,25.063,0,0,0,.3,3.7l-.1.1c.5,3.4.9,4.9,1.5,7.6.2,0,.4,1.1.7,1.8a52.107,52.107,0,0,0,1.6,6.6c.6,1.6.3.4.6,1.1-.1.2.7,2.5.2,1.3a57.936,57.936,0,0,0,2.9,6.9c-.1-.4-.3-.8-.1-.6.3.6.5,1.4.4,1.4l-.1-.2c1.9,3.7,3.6,8.9,5.3,11.7l-.1-.2c.6,1,1.1,2,1.8,3,.8,1.4-.6-.8-.1.3,1.1,1.6,1.9,2.8,2.7,3.9a26.115,26.115,0,0,0,2.7,3.3,20.2,20.2,0,0,0,3.6,4.2,45.493,45.493,0,0,1,4.4,4.3V542c.7.4.7.7,1.1,1.2,0-.2-.6-.7-.1-.5,1.4,1.1,2.7,2.3,4.1,3.4a47.13,47.13,0,0,0,4.5,3.3,43.2,43.2,0,0,0,10.2,4.8,2.91,2.91,0,0,0,2.3,0,3.942,3.942,0,0,1,2.7.5l-1,.3c5.4.6,10.9,1.9,16.1,1.6-.3.1-.3.3-.8.2,1.1.5,4.1.3,4.1-.1.8.1.2.3.7.5,1.1.3,2.8-.4,3.4,0,.1.1-.3.1-.5.2.7-.2,3.4.1,2.7-.4,2,.2,3.7-.3,5.3,0,1-.6,3.4.1,3.6-.7,0,.4.8.5,1.9.5a9.755,9.755,0,0,0,2.8-.6c-.4.3,1.1.2.7.6,1.4-.2,2.7-.4,2.4-.9,2.7.8,5.1-1.5,6.7-.4,4.1-1.1,7.8-2.2,11.4-3.3.1,1-4,1-3.7,1.9,3.4-1.2,5.2-2.4,8.7-3.2.9-.1-.4.5-.6.8,3.4-1.3,6.7-1.9,9.5-3.4,0,.1-.3.3-.6.5.6-.2,1.4-.3,1.2-.7l-.5.3c-1.1-.3,1.9-2.1,1.9-2.4-.6,1.5,3-.8,2,1.3.4-.2.8-.6.6-.8.6-.1.8,0,.4.5,2-1,1.1-1.2,3-1.9.1.2-.3.4-.4.7a6.906,6.906,0,0,1,3.3-2c0,.2.2.2-.3.4,2.7-1.1,4.2-2.9,7.3-3.7-.5,1.2,1.1-.1,1.6.6l1.5-.9-.8-.1c1.4-.5,2.4-1.6,3.7-1.8l-.9.7,2.6-1.2-1.6.3c1.3-.9-.5-.9,1.4-1.4-.3.2,1.4-.5,2.3-.4h0a5.567,5.567,0,0,1,2.3-1.3c.4.1.1.9.3,1,.4-.9,3.2-1.5,3.8-2.4a.581.581,0,0,0,0,.7l.4-.7c.7-.1.8-.1.8.3,2-.7-1-.7,1.5-1.2-.2.1-.1.1-.4.4,2.4-.7,4.4-2,6.6-2.6.9.5-1.8.9-.9,1.2,3-1.3,6.1-3.2,9.2-4.1l-.6.1c.1-1.1,2.4-.3,3.8-1.3-.4.2-.3.7-.2.6a76.569,76.569,0,0,0,7.2-3l-.3.4c1.3-.2,3.3-1,4.6-1.3.3-.3,1.1-.5.5-.7a16.057,16.057,0,0,0,6-1.5,19.43,19.43,0,0,1,5.6-1.5c-.4.1-1,.5-.7.4,1-.3,2.1-.7,3.1-1-.3-.3-.5-.1-1.2-.2a5.359,5.359,0,0,1,2-.9c-1.4.6.1.5.8.6-.1-.1.1-.2,0-.3,1.8.2.1-.7,2.5-.9l-.1.2a18.413,18.413,0,0,1,2.5-.9c.5.3-.9.4-.9.7,1.3-.4,2.4-1.2,3.6-1.1-.5.2-1.3.4-1.8.6a8.557,8.557,0,0,0,2.4-.1h-.1l2.2-.3h-.6c1.4-1.2,3.2-.9,5.3-1.7-2,.9-.3.3-.4.7.6,0,1.4,0,1.2.1,1-.5,1.7-.1,3.1-.8.1.1,1.1-.2.9.1,1.3-.3-.3-.1-.2-.3a13.037,13.037,0,0,1,3.6-.5,17.477,17.477,0,0,0,4.3-.7c2.6-.4,3-.7,5.4-1,.8,0-.6.3-.6.3,1.3,0,2.3-.2,3.5-.3-.2.1,0,.1.4.2,1-.1.7-.3,2-.2a4.053,4.053,0,0,1-1,.3c1.2-.1,2.3-.3,3.5-.4.3.1-.7.2-1.2.2,1.4-.1,3.5-.3,4-.3l-.9-.1c.5,0,.3.1-.1.1a4.322,4.322,0,0,1-1.8,0l.9-.1c-.9-.3-3.5.2-5.2.2l.7-.3-1.8.3c-.4-.1-.7-.2.2-.3-1.3-.1-1.1.2-2.2.1-.1,0-.1,0,0-.1l-1.2.2c.2-.1-.2-.2.5-.2-2.2,0-3.5.5-4.4.3h.2c-1.5.1-1.6.3-1.6.3,0,.1.2.2-1,.5l-1.6-.5-.3.3c-.3,0-.9.1-.8-.1-1.1.3.2.1-.4.4a26.445,26.445,0,0,0-2.7.2c-.9.1-1.6.2-1.8,0-.5.3,1.5,0-.1.4-.5-.5-1.8.4-3.2.3.4-.4,1.7-.4.3-.5-.7.7-2.7.3-3.8.6,0,.5-2.5.7-4.4,1.2a5.92,5.92,0,0,0-2,.2c-1.2.2-2.5.4-3.5.5v-.1c-.2.6-2.1.9-3.4,1.3,0-.3.2-.5.9-.8l-.4.8a5.776,5.776,0,0,1-1.4.7l.2-.5c-1.7.4-3.2,1.3-5.4,1.6,0,.4,2,.6-.2,1.5-.1-.2-.3-.5.2-.8a2.3,2.3,0,0,1-1.1.4l.8-.6c-1,.1-.4.4-1.2.6-.1-.3-.6-.1-.6-.3a5.385,5.385,0,0,0,1-.3,7.362,7.362,0,0,1-2.4.2c.1.2.1.4-.5.6-1.6.5-.7-.2-1.7-.1-.3.3-1.5.4-1.3.9-.5.1-.6-.1-.9-.1-.8.4-3.9,1.3-2.8,1.5h.2a.1.1,0,0,0-.1.1h0c-2.6,1.4-5.9,1.5-8.5,2.7l-.1-.2c-1.6.7-3.6,1.3-4.6,2.1-.5.2-1.2.1-1.1-.2a8.927,8.927,0,0,1-3.2,1.2c1.1-.8-.5-.1,1.2-.7-1.7.4-2.1.2-3.7,1.4.4-.7-1.4-.2-2.1.3l1.2-.1a23.41,23.41,0,0,1-2.4.9l.2-.8c-3.6.4-5.4,3.5-8.4,3.1-.7.8,1.9-.4,1.3.5a15.524,15.524,0,0,1-3.9.3c-2.2.4-1.5,1.7-3.8,2.3.4.1.9.6-.6,1.5-1.5.5-2.2-.3-1.4-.8.4-.2.6-.2.6-.1.5-.3,1-.6.4-.6l-.1.3c-.8.1-2.9.9-2.6.3-1,.7-.3.6.6.4-2.1.4-3,1.2-5.1,1.7.4,0,.8.2.5.3-3,.9-1.1,1-3,1.8-1.3.1.1-1-1.8.1-1.3.2-.5-.5-.1-.9-1.6,1.2-3.5,1-4.5,1.3l.9-.6a10.1,10.1,0,0,1-1.5.7l.7.3c-.6.1-1.1.3-1.1.1-.4.5.7.6-.2,1.5-.8,0-2.2,1.1-2.7.6,2.4-.7-.5-.5,1.4-1.4a3.754,3.754,0,0,1-1.4.5c-.1,0,0-.2.2-.3-2.4.3-.7,1.1-3.1,2,.2-.5-.8-.5-1.1-.3.9-.3.7.4-.1,1-1.6.3-1.5.8-2.3,1l.9-.2c-.2.5-.9.7-1.9,1.2-.2-.2.9-.5.5-.5-.9,1-2.8.2-4.3,1.2-.8,0-.3-.6-1-.6-1.7,1-2.1.1-3.9,1,.7.3.8.2-.5,1,1-.4,2-.8,3.1-1.2l-1.8,1.3c1-.3,1.9-.9,2.5-1-.9.7-.8.5-.2.8-1.5-.3-2.5,1.2-4.1,1.1l-.3-1.2c-2.4.1-3.9,1.7-7,2h1c-.3.5-1.8.5-2.8.8,0-.4-.6-.4-1.1-.6.1.3-2.2.4-2.3,1.2l-1.4-.3c-2.5.2-2.6,1.5-5,1.7.7-.5-.4-.6,1.1-1.1-.8.1-1.5.1-1.5.4-.5-.2-2.1.8-2.9.5-.3.2-.4.6-1.3.7a.139.139,0,0,1,0-.2c0,.2-1.4.4-.6.7-1.3-.5-3-.3-4.7-.2s-3.3.3-4.4-.2a50.241,50.241,0,0,1-5.4.3c.1-.1,0-.2.3-.1-2.2-.3-1.4,1-3.8.6-1.3-.6,1.3-.3.5-.5-.3-1.1-3,.1-4.6-.7h.4c-1.2-.4-3.1.3-5.2,0a.139.139,0,0,0,0-.2,24.877,24.877,0,0,1-6.2.2c.7-.3.9-.1.6-.5-.9-.1.2.7-1.6.5-.5-.3-1.8-.7-1.9-1.2.6.1,1.1.2,1.7.3-.8-.7-2.1-.4-3-.6l.2-.2a14.346,14.346,0,0,0-2.6-.2,8.614,8.614,0,0,1-2.7-.5l.2.2c-1.6.1-1.1-.7-2.7-.8l-.2-.7a25.939,25.939,0,0,1-5.1-1.6c1.1.2,3,.9,4.3,1.1a33.114,33.114,0,0,0-3.6-1.3,4.327,4.327,0,0,1,1.2.5,11.286,11.286,0,0,1-4.5-1.9c.4-.3-.7-1-1.8-1.9a11.047,11.047,0,0,1-2.9-2.7,67.825,67.825,0,0,1-8.3-7.3c.7,1.4-.9-.8-1-.3l-1-1c-.6-.8-1.1-1.6-1.7-2.4-.3-.6.7.6.7.5-1.3-1.6-.4-.8-1.2-1.9,0,.3-.6-.4-1.3-1.4.3.5.5,1,.8,1.4a5.941,5.941,0,0,1-1.5-2.2,11.458,11.458,0,0,0-1.4-2.3l.6.7a31.964,31.964,0,0,1-1.7-3,19.7,19.7,0,0,0-1.8-3.1c-.1-.3-.1-.6.2,0-1.6-3.3-3.8-7.1-4.7-9.8l.2.2a15.042,15.042,0,0,1-.9-1.8c.1,0,.2.2.1-.1a16.161,16.161,0,0,1-1.1-2.5l.4.7c-1.1-3.3-2-5-2.9-7.8.2-.1-.3-2.7-.5-4.1h0c-.7-4.1-1.5-6.8-1.9-10.6,0-.6.1-1.3.2-2.2.1-.4.1-.9.2-1.4l.3-1.5a15.082,15.082,0,0,1,2.6-5.4c-.4.4-.2-.3.1-.8.5-.7,1.2-2.1,1.5-1.7l-.2.1c.7-.2,1.8-1.6,2.9-2.5l-.2-.6c1.6-.9,3.5-2.3,5.3-3.4,1.9-1.1,3.7-2.1,4.8-2.1.7-.6,1.7-.9,2.5-1.5l.1.4c1.2-.4,2-.8,2.9-1,.9-.3,1.9-.7,3.3-1.1l-.5.5c1.6-.4,1.7-1.8,3.2-2.2l.6.6a31.278,31.278,0,0,1,4.4-.4c.7,0,1.4-.1,2.2-.1a8.919,8.919,0,0,0,2.2-.3c0,.1-.1.3-.6.3a8.169,8.169,0,0,1,1.4.1,8.806,8.806,0,0,0,1.7.2,5.577,5.577,0,0,0,1.3,0c.3,0,.5-.2.4-.5-.1.7,3,.5,4.6.6l-.3.4a6.367,6.367,0,0,1,3.4-.2c.4.2.3.5-.3.2,1.4.7,1.3-.2,3,.6l-.7.1a3.222,3.222,0,0,0,2.3.2c1,.1,2.8,1,2.9,1.5a2.57,2.57,0,0,1,2.1.1c.1.2-.3.2-.5.2,2.4,1.2,3.9.7,5.4,1.8a.52.52,0,0,0,.2.4,25.981,25.981,0,0,1-3.4-1.3c-.2.4,1.4,1.1-.1,1.2a16.855,16.855,0,0,1,5.3.9l.2.2h-.2a3.808,3.808,0,0,0,1,.3c.5.2.8.4,1.3.6.1.4,1.8.8,2.6,1.1.1-.5,1.1,0,.3-.8.1.1-.2,0-.7-.2-.1,0-.3-.1-.4-.1h.1c-.5-.2-1.2-.4-2-.7a3.22,3.22,0,0,1,2.2.6c.5-.2,1.1-.3,1.4-.4.9,1,2.9,2.1,3,2.6,2.5.6,5.8,1.8,7.6,1.5.7.1.7.5.9.7a5.987,5.987,0,0,0-1.2-.2c1.5.3,4.1,1.3,4.7.9,1.7.9-1.2.2,1.3.9l-.4.1a20,20,0,0,0,6.3,2,17.743,17.743,0,0,1,6.6,2.4c-.3-.2-.5-.3-.5-.4,2.9,1.3,5.9,2.4,9,3.5a68.674,68.674,0,0,1,8.8,3.8,9.989,9.989,0,0,0,2.9.9l.2.4,1.8.5a14.755,14.755,0,0,1,3.3,1.7,27.393,27.393,0,0,0,3.8,1.8l-.3-.3a29.147,29.147,0,0,1,3.2,1.6,2.707,2.707,0,0,1,.8.3v.1l2.7,1.2c2,1-.4.1,2.5,1.5,1.1.5,3.2,1.4,2.8,1.2a4.153,4.153,0,0,1-1.1-.7l1,.5c.2,0,1,.4-1.3-1.1l-1.7-.9-.5-.4,1.4.8a21.87,21.87,0,0,0-1.9-1.1,2.488,2.488,0,0,0-.7-.5,13.36,13.36,0,0,0-1.8-.7c-.2-.2.8.3-.3-.4-.8-.3.7.6-.7-.1-.8-.5-.5-.5-1.5-.9-.1-.1.1-.1.5.1a30.227,30.227,0,0,0-2.8-1.3c-.8-.6-2.9-1.4-2.7-1.7a20.228,20.228,0,0,1-2.4-.9c1.6.3-3-1.5-2.4-1.7-1.2-.2-4-1.7-6-2.4.1,0,.4,0,.5.1a14.883,14.883,0,0,1-2-1.2c-.3.3-2-.4-3.1-.5-1.2-1,1-.1.8-.7-.1.4-2.5-.7-2.1-.2-.9-.7-.8-.5-1.2-1.1-.4.5-1-.3-2-.4-1.4-.9-.2-.7-1.9-1.2C249.9,474.6,251.5,475.1,251.5,475.1Zm-40.1-13.9h0a6.9,6.9,0,0,1,.8.3C212.1,461.4,211.8,461.4,211.4,461.2Zm-3.3-1.2c.4.2.9.3,1.4.5.1.2-.1.3-.5.2C209.3,460.7,208.5,460.4,208.1,460Zm5.9,5.8c-.6-.1-.7-.3-.7-.4.3.1.6.2,1,.3h.1A.6.6,0,0,0,214,465.8Z" fill="#202020"/>
            <path id="Path_10096" data-name="Path 10096" d="M215.2,465.5h.2c-.1-.1-.2-.1-.3-.2a.349.349,0,0,0-.2.1C215,465.4,215.1,465.5,215.2,465.5Z" fill="#202020"/>
            <path id="Path_10097" data-name="Path 10097" d="M331.7,522.2h0c0,.1.1.1,0,0Z" fill="#202020"/>
            <path id="Path_10098" data-name="Path 10098" d="M159.6,459.6v.1l.3-.2Z" fill="#202020"/>
            <path id="Path_10099" data-name="Path 10099" d="M351,518.5h0Z" fill="#202020"/>
            <path id="Path_10100" data-name="Path 10100" d="M359.2,516.6l1.2-.1C359.9,516.5,359.5,516.6,359.2,516.6Z" fill="#202020"/>
            <path id="Path_10101" data-name="Path 10101" d="M365.6,515.5c.1-.1.1-.1.1-.2h0Z" fill="#202020"/>
            <path id="Path_10102" data-name="Path 10102" d="M268.2,549.1a.349.349,0,0,0-.2.1C267.5,549.5,267.8,549.3,268.2,549.1Z" fill="#202020"/>
            <path id="Path_10103" data-name="Path 10103" d="M296.5,536.6c-.3.2-.5.4-.8.6C296.2,537.1,296.6,537,296.5,536.6Z" fill="#202020"/>
            <path id="Path_10104" data-name="Path 10104" d="M234.3,557.1Z" fill="#202020"/>
            <path id="Path_10105" data-name="Path 10105" d="M294.3,537.8a3.2,3.2,0,0,0,1.3-.5A3.5,3.5,0,0,0,294.3,537.8Z" fill="#202020"/>
            <path id="Path_10106" data-name="Path 10106" d="M393.5,512.5h0Z" fill="#202020"/>
            <path id="Path_10107" data-name="Path 10107" d="M393.8,512.4h0Z" fill="#202020"/>
            <path id="Path_10108" data-name="Path 10108" d="M394.9,512.4h0Z" fill="#202020"/>
            <path id="Path_10109" data-name="Path 10109" d="M384.9,512.9Z" fill="#202020"/>
            <path id="Path_10110" data-name="Path 10110" d="M382.3,513.2a20.937,20.937,0,0,0,2.4-.1l.1-.1A24.93,24.93,0,0,0,382.3,513.2Z" fill="#202020"/>
            <path id="Path_10111" data-name="Path 10111" d="M371.3,513.2l2.2-.2c-.4-.1-.9-.2.1-.3C370.8,512.7,374.2,512.9,371.3,513.2Z" fill="#202020"/>
            <path id="Path_10112" data-name="Path 10112" d="M364.6,514c1.2-.2,0-.2,0-.3C363.9,514,363.7,514,364.6,514Z" fill="#202020"/>
            <path id="Path_10113" data-name="Path 10113" d="M317,526.7l-.1-.5C316.1,526.5,317,526.3,317,526.7Z" fill="#202020"/>
            <path id="Path_10114" data-name="Path 10114" d="M309.1,532.3h.9l.3-.6Z" fill="#202020"/>
            <path id="Path_10115" data-name="Path 10115" d="M302.6,530.8l.3-.2-1.3.7Z" fill="#202020"/>
            <path id="Path_10116" data-name="Path 10116" d="M224.4,553.2l.3.6C225.3,553.6,225.4,552.9,224.4,553.2Z" fill="#202020"/>
            <path id="Path_10117" data-name="Path 10117" d="M189.5,550.8a3.261,3.261,0,0,0-1.8-.7C188.4,550.3,189.1,550.7,189.5,550.8Z" fill="#202020"/>
            <path id="Path_10118" data-name="Path 10118" d="M153.3,467.2l-.5.5.9-.8Z" fill="#202020"/>
          </g>
        </g>
      </g>
    </g>
    <g id="Group_987" data-name="Group 987">
      <g id="Group_986" data-name="Group 986">
        <g id="Group_985" data-name="Group 985">
          <g id="Group_984" data-name="Group 984">
            <path id="Path_10119" data-name="Path 10119" d="M251.5,512.1c-.2,0-.1.1.6,0l.5-.1Z" fill="#202020"/>
            <path id="Path_10120" data-name="Path 10120" d="M256.1,512.1c.8-.1,1.7-.2,1.2-.3-.8.2-1,.1-1.8.3h-1.1a7.086,7.086,0,0,0-1.4.1,30.1,30.1,0,0,1,3.1-.1C256.4,512,256.2,512.1,256.1,512.1Z" fill="#202020"/>
            <path id="Path_10121" data-name="Path 10121" d="M321.3,523.9l-.4-.2C321,523.7,321.1,523.8,321.3,523.9Z" fill="#202020"/>
            <path id="Path_10122" data-name="Path 10122" d="M359.8,538.4c-.3-.1-.4-.1-.5,0C359.6,538.5,359.8,538.5,359.8,538.4Z" fill="#202020"/>
            <path id="Path_10123" data-name="Path 10123" d="M366,541.8c-.1-.1-.2-.1-.4-.2C365.8,541.7,365.9,541.8,366,541.8Z" fill="#202020"/>
            <path id="Path_10124" data-name="Path 10124" d="M321.3,523.9l1,.5C322.4,524.2,321.8,524.1,321.3,523.9Z" fill="#202020"/>
            <path id="Path_10125" data-name="Path 10125" d="M265.3,511.7a1.268,1.268,0,0,0-.6.1,1.268,1.268,0,0,1,.6-.1Z" fill="#202020"/>
            <path id="Path_10126" data-name="Path 10126" d="M303.7,519.2l-.3-.1c-.1,0-.2.1-.3.1Z" fill="#202020"/>
            <path id="Path_10127" data-name="Path 10127" d="M290.2,516.1c.3.1.5-.2.6-.4a1.483,1.483,0,0,1-.7.1A.367.367,0,0,0,290.2,516.1Z" fill="#202020"/>
            <path id="Path_10128" data-name="Path 10128" d="M268.4,512.6h0Z" fill="#202020"/>
            <path id="Path_10129" data-name="Path 10129" d="M313.3,522c0,.1,0,.1.1.2C313.4,522.1,313.4,522.1,313.3,522Z" fill="#202020"/>
            <path id="Path_10130" data-name="Path 10130" d="M381.3,487.1Z" fill="#202020"/>
            <path id="Path_10131" data-name="Path 10131" d="M366.5,493.5l.2-.1v-.1Z" fill="#202020"/>
            <path id="Path_10132" data-name="Path 10132" d="M377.8,547.2h0C377.4,547.1,377.6,547.2,377.8,547.2Z" fill="#202020"/>
            <path id="Path_10133" data-name="Path 10133" d="M490.1,534.3c-1,.9,1.3-1.8-.3-.5C490.1,533.8,488.9,535.5,490.1,534.3Z" fill="#202020"/>
            <path id="Path_10134" data-name="Path 10134" d="M265.7,511.7h0Z" fill="#202020"/>
            <path id="Path_10135" data-name="Path 10135" d="M489.9,533.9h0l-.2.1C489.8,534,489.8,533.9,489.9,533.9Z" fill="#202020"/>
            <path id="Path_10136" data-name="Path 10136" d="M406.9,555.1q0-.15-.3-.3Q406.6,554.95,406.9,555.1Z" fill="#202020"/>
            <path id="Path_10137" data-name="Path 10137" d="M385.4,548.7l.5.3C385.7,548.8,385.5,548.8,385.4,548.7Z" fill="#202020"/>
            <path id="Path_10138" data-name="Path 10138" d="M418.5,555.9a1.062,1.062,0,0,0,.8.1l-.1-.1C419.1,556,418.9,556.1,418.5,555.9Z" fill="#202020"/>
            <path id="Path_10139" data-name="Path 10139" d="M430.6,556.6c-.1,0-.1-.1-.2-.1H430Z" fill="#202020"/>
            <path id="Path_10140" data-name="Path 10140" d="M415.1,473.9a1.445,1.445,0,0,1-.7-.2C414.7,473.9,413.1,474.6,415.1,473.9Z" fill="#202020"/>
            <path id="Path_10141" data-name="Path 10141" d="M265.3,511.8c.1,0,.2-.1.4-.1-.2,0-.3,0-.4.1C265.2,511.7,265.2,511.8,265.3,511.8Z" fill="#202020"/>
            <path id="Path_10142" data-name="Path 10142" d="M419.4,551.8l1.8.3A4.5,4.5,0,0,0,419.4,551.8Z" fill="#202020"/>
            <path id="Path_10143" data-name="Path 10143" d="M495.4,464.3c-.1-.1-.3-.1-.4-.2A.758.758,0,0,0,495.4,464.3Z" fill="#202020"/>
            <path id="Path_10144" data-name="Path 10144" d="M426.8,552.4a4.18,4.18,0,0,0,1,.4.349.349,0,0,0,.2-.1Z" fill="#202020"/>
            <path id="Path_10145" data-name="Path 10145" d="M414.4,473.7Z" fill="#202020"/>
            <path id="Path_10146" data-name="Path 10146" d="M403,478.8c1.7-.6.6-.7.9-1.1,2-.9,1.1,0,1.8,0a24.318,24.318,0,0,1,3-1.7c.1.1.3,0,.1.2,1.2-.9,4-1.4,5.3-2.5a.367.367,0,0,1,.3.1c-.3-.2-.5-.4-.5-.6.8-.3,1.3-.8,1.7-.6-.5.2-.5.3-.6.5l.7-.4c.9.2-1,.6-.9.9a34.073,34.073,0,0,1,4.4-2.1c.4.4-2.7,1.2-1,1l-1.9.5c1.7.3-1.1.3.5.7,2.5-.7,2.6-1.2,5.1-1.9.4-.5-.3-.3.1-.8,3.3-1.7,3.2.4,5.5-1.2a2.936,2.936,0,0,1,2.5-1.6l-.4.8c2.4-.7,1-1.3,3.7-1.8-.4.4-1.8.8-1.4.8,1.8-.1,1-.7,2.3-1.1l.4.5c2.5-.9,5.2-2.3,7.9-3.4-.1.2-.5.6.2.5a55.444,55.444,0,0,1,11-3.3l1.1-.9c.3-.1.6.1.3.3,1.4-.2,0-.3.5-.7.7-.3,1.1,0,.6.3,2.2-1.1,6.4-2.8,9-2.5l-.5.2c1.9-.1,2.1-1.3,3.9-1l-.3.1c1.1-.1,2.1,0,3.2,0s2.2.1,3.2.2a23.421,23.421,0,0,1,3,.5,9.234,9.234,0,0,1,2.5.9c.4-.3,1.4.1,2.3.4,1,.3,1.9.7,2.2.3,1.1.6,1.4.9,1.9,1.2s1.1.7,2.6,1.5c.8.4,1.5,0,2.6.5l-.2.4,1.6.3.5.8,1,.4c-.4-.2-.7-.6-.6-.6,1.6.6,3.4,2.2,3.3,2.4a30.239,30.239,0,0,1,3.3,2.1,3.042,3.042,0,0,1-1.1-.6c1.8,1,.1.5,1.7,1.5-.1-.2.2-.1.3-.1.6.8,2,2.3,3,3.5l-.3-.1a27.314,27.314,0,0,1,2.3,3.8,14.116,14.116,0,0,1,1.4,4.4c0-.6,0-.8.1-.8s.3.3.3.8l-.2.4c.2.6,0-1,.3.2.1.6-.1.8-.1.8-.1,0-.2-.3-.3-.6a7.084,7.084,0,0,1,.1,1.4c-.1.1-.1-.3-.2-.3.2.6-.3,2.5-.1,3.4l-.1.1c-.4,3.3-.6,4.8-1.1,7.5.2.1-.1,1.1-.1,2-.4,2-1.1,4.1-1.8,6.4-.4,1.6,0,.5-.1,1.3-.2.1-1,2.4-.7,1.1-1,2.7-1.2,3.5-2.6,6.9.2-.3.4-.7.4-.5-.2.6-.7,1.4-.7,1.2l.1-.2c-1.4,3.9-4.5,8.4-5.7,11.5l.1-.2c-.5,1-.9,2-1.4,3-.8,1.3.4-.9-.3.1-1.7,3.2-3.3,4.6-5.2,7-2,1.3-5.9,5.8-8.7,7.4h.3c-.5.6-.8.5-1.3.9.2.1.8-.4.5,0a41.182,41.182,0,0,1-4.1,3.2,33,33,0,0,1-4.5,2.6,43.729,43.729,0,0,1-9.9,3.1,3.25,3.25,0,0,0-1.9,1c-.4.3-.8.7-2.5.6l.8-.6c-4.9,1.5-10.4,1.3-15.4,2,.3-.1.3-.3.8-.3-1.1-.4-4,.1-4,.4-.8,0-.2-.3-.7-.5-1.1-.2-2.7.6-3.3.1-.1-.1.3-.1.5-.2-.7.2-3.3-.1-2.6.4-1.9-.3-3.7.1-5.2-.3-1,.5-3.2-.5-3.6.3.1-.4-.7-.6-1.7-.7a8.3,8.3,0,0,0-2.8.1c.4-.2-1-.4-.5-.7-1.4-.2-2.6-.2-2.4.3-2.4-1.4-5.2.1-6.4-1.5a80.392,80.392,0,0,1-11.5-1.4c.3-.8,4,.9,4-.1-3.4-.4-5.6-.1-8.9-1.4-.8-.4.6-.3.9-.3-3.5-.6-6.4-2.1-9.5-2.6,0-.1.4-.1.7,0-.6-.2-1.3-.6-1.4-.2l.6.1c.7.9-2.7.4-3,.7,1.4-.8-2.8-1.4-.7-2.3-.4-.1-1-.1-1,.3-.5-.3-.6-.5,0-.6-2.1-.6-1.6.2-3.4-.6.1-.2.5-.1.8-.3a7.739,7.739,0,0,1-3.7-.7c.1-.1,0-.3.5-.1-2.7-1-5-.8-7.9-2.4,1.2-.5-.9-.7-.8-1.5l-1.7-.4.5.6c-1.4-.6-2.9-.5-4-1.2l1.2.1-2.7-.9,1.4.9c-1.6-.2-.2,1-2,.1.4.1-1.4-.6-2-1.3h0a4.64,4.64,0,0,1-2.6-.7c-.2-.3.5-.7.4-.9-.9.3-3.4-1.1-4.5-.8.3,0,.5-.4.4-.5l-.8.3c-.6-.4-.7-.5-.4-.8-1.9-.8.3,1.1-1.9-.1.2,0,.1-.1.5,0-2.3-1.1-4.7-1.4-6.7-2.4-.4-.9,2,.5,1.4-.3-3.2-1-6.8-1.5-9.8-2.7l.5.3c-.8.8-2.1-1.2-3.8-1.3.4.1.7-.4.5-.3-2-.9-4.4-1.2-7.6-1.9l.5-.1c-1.2-.6-3.2-1.1-4.5-1.6-.5.1-1.2-.1-.9.3a16.523,16.523,0,0,0-5.9-2,16.185,16.185,0,0,1-5.7-1.6c.4.1,1.1.1.8,0-1.1-.2-2.1-.4-3.2-.6.2.4.4.3,1,.7a8.766,8.766,0,0,1-2.2-.1c1.5.1.1-.5-.5-.9.1.1-.2.2-.1.3-1.5-1-.4.6-2.6-.3l.2-.1a23,23,0,0,1-2.6-.3c-.3-.4.9,0,1.1-.2-1.3-.3-2.7.1-3.8-.4.6,0,1.4.2,1.9.2a5.262,5.262,0,0,0-2.3-.8h.1l-2.2-.6.5.2a4.6,4.6,0,0,1-2.6,0,9.678,9.678,0,0,0-3-.2c2.2-.2.4-.2.6-.6-.5-.2-1.4-.4-1.1-.5-1.1.1-1.7-.5-3.2-.3-.1-.1-1.1-.2-.8-.4-1.4-.1.3.2.2.3-2.1.1-4.9-.9-8-.8-2.6,0-3.1.2-5.6.2-.8-.2.7-.2.7-.2a14.523,14.523,0,0,0-3.6-.2c.3-.1,0-.1-.4-.2a11.515,11.515,0,0,1-2,.1,2.152,2.152,0,0,1,1-.2c-1.2,0-2.3.1-3.6.2-.3-.1.7-.1,1.2-.2a20.728,20.728,0,0,0-4,.2h.9c-.5,0-.3-.1.1-.1a5.389,5.389,0,0,1,1.8.1h-.9c.9.3,3.5,0,5.2.1l-.7.2,1.8-.2c.4.1.6.3-.2.3,1.2.2,1.1,0,2.2.2h1.2c-.2,0,.2.2-.6.1,2.2.4,3.5,0,4.3.4h-.2c3,.2.3-.2,2.6-.3.5.3,1,.6,1.4.9l.3-.3c.3,0,.9.1.8.3,1.2-.1-.2-.2.5-.3a19.345,19.345,0,0,0,2.7.4,2.84,2.84,0,0,1,1.8.6c.6-.2-1.4-.4.2-.3.4.6,1.9.2,3.2.7-.5.2-1.7-.1-.4.4.9-.4,2.6.5,3.8.7.1-.4,2.5.3,4.4.6-.1.1.8.3,1.9.6s2.5.7,3.3,1l-.1.1c.5-.4,2.3.1,3.6.3-.1.3-.4.4-1.1.3l1.2.3a3.056,3.056,0,0,1,1.6.1l-.4.3c1.6.4,3.4.4,5.5,1.3.2-.4-1.4-1.5.9-1.2,0,.2,0,.6-.6.6a2.557,2.557,0,0,1,1.1.2l-1,.1c.9.4.6-.2,1.3.1-.1.3.5.4.3.6-.2,0-.6-.3-1-.3a6.594,6.594,0,0,1,2.1,1.1c0-.2.1-.4.8-.3,1.6.5.4.5,1.3,1,.5-.1,1.4.4,1.6,0,.5.1.5.4.6.6.9,0,3.9,1.2,3.2.4l-.2-.1h.1c2.9.4,5.6,2.1,8.4,2.9l-.1.2a43.068,43.068,0,0,0,4.9,1.2c.5.2,1,.7.7.9a8.67,8.67,0,0,1,3.2,1.1c-1.4-.1.3.4-1.4-.2,1.5.7,1.8,1.2,3.7,1.3-.8.2,1,1,1.8,1.2l-1-.8c.9.3,1.6.6,2.3.9l-.6.5c3,2,6.4.9,8.3,3.2,1-.1-1.6-1-.7-1.2a17.552,17.552,0,0,1,3.1,2.4c1.9,1.2,2.3-.2,4.3.9-.2-.3-.2-1.1,1.5-.7,1.5.7,1.4,1.7.4,1.5a.738.738,0,0,1-.5-.3c-.5-.1-1.2-.3-.7.2l.3-.2c.6.5,2.7,1.3,2.1,1.5,1.2.2.6-.2-.2-.6,1.8,1.1,3,1.2,4.9,2.2-.3-.3-.4-.6-.1-.5,2.8,1.4,1.4.1,3.4.7,1,.8-.7.7,1.3,1.2,1.1.7,0,.7-.6.7,2,.3,3.2,1.6,4.2,2.1l-1-.2a7.492,7.492,0,0,1,1.6.5l-.4-.7c.5.3,1,.5.9.7.7-.1-.1-1,1.2-.9.7.5,2.4.6,2.4,1.3-2.3-1.1,0,.7-2,.1a5.343,5.343,0,0,1,1.4.6c.1.1-.1.1-.3.1,2.1,1.4,1.3-.3,3.7.6-.4.2.3.9.7.9-1-.3-.2-.8.7-.7,1.4.8,1.7.4,2.5.7l-.9-.4c.4-.2,1.2.1,2.3.3,0,.3-1-.1-.7.1,1.4-.2,2.5,1.5,4.3,1.6.7.5-.1.7.5,1.1,2,.1,1.9,1.1,4,1.2-.4-.6-.6-.5,1-.6-1.1-.2-2.2-.4-3.4-.6l2.3-.1c-1-.3-2.2-.3-2.7-.5,1.1-.1,1,0,.6-.6,1.1,1.1,2.8.4,4.2,1.2l-.4,1.2a6.722,6.722,0,0,0,3.4.7,21.587,21.587,0,0,1,4,.6l-.9-.4c.5-.4,1.9.3,2.9.3-.2.4.4.6.8.9,0-.3,2.3.4,2.7-.3l1.3.7c2.5.6,3-.7,5.4-.2-.8.3.3.7-1.4.8.8.1,1.5.3,1.6,0,.4.3,2.3-.3,3,.2.4-.1.5-.5,1.4-.4a.139.139,0,0,1,0,.2c0-.2,1.4-.1.7-.6,2.4,1.4,6.9.4,9.1,1.4,1.8-.1,3.9-.2,5.5-.2-.1.1,0,.2-.3.1,2.2.3,1.3-1,3.9-.7,1.3.5-1.3.3-.5.5.4,1.1,3-.3,4.8.3l-.4.1c1.3.3,3.1-.6,5.3-.8a.139.139,0,0,0,0,.2,37.707,37.707,0,0,1,6.1-1.7c-.6.5-.9.3-.4.7.9-.2-.4-.6,1.4-1,.6.1,1.9,0,2.2.4-.6.1-1.1.3-1.7.4,1,.4,2.2-.5,3.1-.6l-.1.3a13.968,13.968,0,0,0,2.5-1,23.25,23.25,0,0,1,2.7-1.1l-.3-.1c1.3-1,1.3-.1,2.7-1l.6.3c.9-.5,3.1-1.9,4.7-2.9a19.528,19.528,0,0,1-3.8,2.7c1-.4,3.2-1.5,3.5-2a4.13,4.13,0,0,1-1.1.7,12.7,12.7,0,0,1,1.7-1.4c.7-.5,1.4-1,2.3-1.6.1.5,1.3-.2,2.5-1.2a18.332,18.332,0,0,1,3.3-2.3c2.5-2.5,5.4-4.6,8.3-7.7-1.4.7.8-.9.3-1.1.6-.7.9-1,1-1l2.1-2.1c.5-.5-.5.8-.4.8,1.4-1.7.7-.6,1.7-1.6-.3.1.3-.7,1-1.7-.4.4-.8.9-1.2,1.3a19.248,19.248,0,0,1,1.6-2.3,8.289,8.289,0,0,0,1.5-2.4l-.4.9c.4-.7,1-2,1.6-3.3a26.955,26.955,0,0,0,1.3-3.3c.2-.2.4-.5.1.1,1.6-3.3,3.1-7.5,4.4-10v.3a8.922,8.922,0,0,1,.7-1.9c0,.1,0,.3.1,0s.5-1.7.9-2.6l-.2.8a42.714,42.714,0,0,0,2.3-8.2c.3.1,1.1-2.7,1.4-4v.1a70,70,0,0,0,1.5-10.8,12.941,12.941,0,0,0,.3-2.4,9.15,9.15,0,0,0-.1-1.6,12.236,12.236,0,0,0-.3-1.7,24.288,24.288,0,0,0-2.4-6.4c.2.6-.3.1-.8-.5-.4-.9-1.8-1.9-1.3-2l.2.3c-.1-.8-1.4-2.3-2.5-3.3l-.6.3a15.06,15.06,0,0,0-5.2-4.4c-2.1-1.1-3.9-1.9-4.6-2.9-.9-.3-1.9-.7-2.8-1l.2-.4a27.93,27.93,0,0,0-3-1.5c-1-.4-2-.8-3.6-1.3l.7-.1c-1.8-.6-2.6.6-4.2.1l-.3-.8c-1.6-.3-3.1-.9-4.7-1.1a19.669,19.669,0,0,0-2.4-.3,19.418,19.418,0,0,0-2.4.2c.1-.1.1-.3.7-.3-.4,0-.9-.1-1.6-.1a12.1,12.1,0,0,0-1.9.1,6.052,6.052,0,0,0-1.5.2c-.3.1-.5.3-.3.6-.1-.6-3.3.3-4.8,1.1l.2-.5a10.133,10.133,0,0,1-3.1,1.8c-.5.1-.5-.3.1-.3-1.6.2-1.1.8-2.9,1l.6-.5a3.415,3.415,0,0,0-2.1,1.2c-.9.5-2.9.8-3.3.5a2.292,2.292,0,0,1-1.7,1.1c-.2-.1.1-.3.3-.4-2.6.6-3.5,1.9-5.4,2a.52.52,0,0,0-.4-.2,26.565,26.565,0,0,1,3.5-1.1c-.2-.4-1.8.1-.7-1-1.2.8-3.1,2.3-4.7,2.6a.367.367,0,0,1-.3-.1l.1-.1a3,3,0,0,0-1,.4c-.5.1-.9.2-1.3.3-.3-.3-1.9.5-2.7.7.2.4-.8.7.3.8-.1,0,.1-.1.7-.3.1-.1.3-.1.3-.2v.1c.5-.2,1.2-.4,2-.7a2.755,2.755,0,0,1-2.1.9,13.5,13.5,0,0,1-.9,1.1c-1.3-.3-3.5.1-4-.1-2.4,1.1-5.7,2.2-6.9,3.6-.7.4-.9.1-1.2,0a4.372,4.372,0,0,0,1-.6c-1.3.7-4.1,1.6-4.2,2.3-1.8.4.8-.9-1.6.1l.3-.3a16.1,16.1,0,0,0-6.1,2.6,18.211,18.211,0,0,1-6.6,2.6,2.638,2.638,0,0,1,.7-.1c-3,1-6,2.3-9,3.6s-5.9,2.6-8.9,3.7a9.214,9.214,0,0,0-2.7,1.5l-.5-.1-1.5,1.1c-2.3,1.3-4.3,1.4-7.2,3.3l.4-.1c-1.1.5-3.3,1.8-3.2,1.6a1.4,1.4,0,0,1-.7.4l-.1-.1-2.5,1.5c-2,1,.2-.4-2.7,1.2-1.1.6-3,1.9-2.6,1.6a12.884,12.884,0,0,1,1.2-.6l-1,.6c-.1.2-.9.6,1.7-.5l1.7-.9.6-.2-1.5.7a5.58,5.58,0,0,0,1.9-1,4.5,4.5,0,0,0,.8-.2,14,14,0,0,0,1.6-1c.2,0-.7.5.5,0,.8-.5-.9.2.4-.5a5.228,5.228,0,0,0,1.6-.6c.2,0,0,.1-.4.3.8-.5,2.3-1.1,2.7-1.4.9-.2,3-1.4,3-1a15.846,15.846,0,0,1,2.2-1.3c-1.3,1,3.1-1.3,2.9-.6.9-.9,3.9-1.8,5.8-2.8a2.185,2.185,0,0,1-.5.3,15.829,15.829,0,0,1,2.3-.6c0-.4,1.7-1.2,2.5-1.9,1.5-.1-.6.8,0,1-.2-.3,2.2-1.2,1.6-1.4,1.1-.1.9-.2,1.6-.1,0-.6.9-.5,1.7-1.1,1.6-.3.6.4,2.2-.4C404.4,478.1,403,478.8,403,478.8Zm39.4-15.1h0a4.116,4.116,0,0,1-.8.3A2,2,0,0,0,442.4,463.7Zm3.4-1.2c-.4.1-.9.3-1.5.5-.2-.1-.1-.3.2-.4C444.4,462.8,445.2,462.6,445.8,462.5Zm-8.2-.7a1.014,1.014,0,0,1,.8-.2c-.2.1-.5.2-.9.4v.1A.367.367,0,0,1,437.6,461.8Z" fill="#202020"/>
            <path id="Path_10147" data-name="Path 10147" d="M436.8,462.8c-.1,0-.1.1-.2.1h.4c0-.1.1-.1.1-.2A.368.368,0,0,0,436.8,462.8Z" fill="#202020"/>
            <path id="Path_10148" data-name="Path 10148" d="M320.8,523.6Z" fill="#202020"/>
            <path id="Path_10149" data-name="Path 10149" d="M491.8,462.8l.1-.1-.4-.1Z" fill="#202020"/>
            <path id="Path_10150" data-name="Path 10150" d="M302.4,516.9l-.2-.2C302.1,516.8,302.2,516.8,302.4,516.9Z" fill="#202020"/>
            <path id="Path_10151" data-name="Path 10151" d="M294.1,515.1l-1.2-.3A10.392,10.392,0,0,1,294.1,515.1Z" fill="#202020"/>
            <path id="Path_10152" data-name="Path 10152" d="M287.7,513.8c-.1,0-.1.1-.2.1h0Z" fill="#202020"/>
            <path id="Path_10153" data-name="Path 10153" d="M386.3,544.8c.1,0,.2,0,.2.1C387.1,544.9,386.7,544.8,386.3,544.8Z" fill="#202020"/>
            <path id="Path_10154" data-name="Path 10154" d="M357.2,535a3.4,3.4,0,0,1,1,.1C357.7,534.8,357.3,534.7,357.2,535Z" fill="#202020"/>
            <path id="Path_10155" data-name="Path 10155" d="M419.2,551.7Z" fill="#202020"/>
            <path id="Path_10156" data-name="Path 10156" d="M359.5,535.6a2.665,2.665,0,0,0-1.3-.5A6.941,6.941,0,0,0,359.5,535.6Z" fill="#202020"/>
            <path id="Path_10157" data-name="Path 10157" d="M259.5,511.6h0Z" fill="#202020"/>
            <path id="Path_10158" data-name="Path 10158" d="M259.2,511.7h0Z" fill="#202020"/>
            <path id="Path_10159" data-name="Path 10159" d="M258.1,511.8l.7-.1C258.6,511.7,258.2,511.7,258.1,511.8Z" fill="#202020"/>
            <path id="Path_10160" data-name="Path 10160" d="M268.1,511.8l.1-.1A.1.1,0,0,1,268.1,511.8Z" fill="#202020"/>
            <path id="Path_10161" data-name="Path 10161" d="M270.8,511.9a16.591,16.591,0,0,0-2.4-.2l-.1.1C268.7,511.7,270.2,512,270.8,511.9Z" fill="#202020"/>
            <path id="Path_10162" data-name="Path 10162" d="M281.5,514.2l-2.2-.4c.4.2.8.4-.1.3C281.9,514.8,278.7,513.8,281.5,514.2Z" fill="#202020"/>
            <path id="Path_10163" data-name="Path 10163" d="M288.1,515.5c-1.2-.1,0,.2-.1.2C288.8,515.8,289,515.8,288.1,515.5Z" fill="#202020"/>
            <path id="Path_10164" data-name="Path 10164" d="M335.1,529l-.3.4C335.7,529.7,334.9,529.2,335.1,529Z" fill="#202020"/>
            <path id="Path_10165" data-name="Path 10165" d="M344.9,529.8l-.8-.6-.5.2Z" fill="#202020"/>
            <path id="Path_10166" data-name="Path 10166" d="M348.7,535.2l-.4-.1,1.5.4Z" fill="#202020"/>
            <path id="Path_10167" data-name="Path 10167" d="M428.4,557l-.3-.6C427.5,556.5,427.4,557.2,428.4,557Z" fill="#202020"/>
            <path id="Path_10168" data-name="Path 10168" d="M464.1,552.7a3.142,3.142,0,0,0,2-.5A14.33,14.33,0,0,0,464.1,552.7Z" fill="#202020"/>
            <path id="Path_10169" data-name="Path 10169" d="M501.6,465l.6.4-1.1-.9Z" fill="#202020"/>
          </g>
        </g>
      </g>
    </g>
    <g id="Group_991" data-name="Group 991">
      <g id="Group_990" data-name="Group 990">
        <g id="Group_989" data-name="Group 989">
          <g id="Group_988" data-name="Group 988">
            <path id="Path_10170" data-name="Path 10170" d="M347.4,243.4c-.1.1,0,.1.2-.2l.1-.2Z" fill="#202020"/>
            <path id="Path_10171" data-name="Path 10171" d="M348.9,241.7c.2-.4.3-.8.1-.7-.1.4-.2.5-.3.9a1.2,1.2,0,0,1-.4.4,3.112,3.112,0,0,0-.4.6,6.342,6.342,0,0,0,1-1.2Z" fill="#202020"/>
            <path id="Path_10172" data-name="Path 10172" d="M360.6,210.8l-.1.2C360.5,210.9,360.6,210.9,360.6,210.8Z" fill="#202020"/>
            <path id="Path_10173" data-name="Path 10173" d="M363.4,190.1c0,.2.1.2.2.2C363.5,190.1,363.4,190,363.4,190.1Z" fill="#202020"/>
            <path id="Path_10174" data-name="Path 10174" d="M363.7,186.4v.2C363.8,186.5,363.8,186.4,363.7,186.4Z" fill="#202020"/>
            <path id="Path_10175" data-name="Path 10175" d="M360.6,210.8l.4-.5C360.8,210.2,360.7,210.5,360.6,210.8Z" fill="#202020"/>
            <path id="Path_10176" data-name="Path 10176" d="M350.9,237.6c0,.1-.1.2-.1.3l.1-.3Z" fill="#202020"/>
            <path id="Path_10177" data-name="Path 10177" d="M358.3,219.5v.2c0,.1.1.1.2.2Z" fill="#202020"/>
            <path id="Path_10178" data-name="Path 10178" d="M356.5,226.2c.1-.1-.3-.3-.4-.4.1.1.2.3.1.4Z" fill="#202020"/>
            <path id="Path_10179" data-name="Path 10179" d="M352.3,236.5l-.1.2A.31.31,0,0,1,352.3,236.5Z" fill="#202020"/>
            <path id="Path_10180" data-name="Path 10180" d="M359.8,214.8h0Z" fill="#202020"/>
            <path id="Path_10181" data-name="Path 10181" d="M299.6,235.9Z" fill="#202020"/>
            <path id="Path_10182" data-name="Path 10182" d="M302.5,243.5Z" fill="#202020"/>
            <path id="Path_10183" data-name="Path 10183" d="M363.1,179.7h0C363.2,179.9,363.2,179.8,363.1,179.7Z" fill="#202020"/>
            <path id="Path_10184" data-name="Path 10184" d="M314.6,150.4c.7,0-1,.6.1.5C314.5,150.8,315.4,150.2,314.6,150.4Z" fill="#202020"/>
            <path id="Path_10185" data-name="Path 10185" d="M351,237.4l.1-.3A.774.774,0,0,0,351,237.4Z" fill="#202020"/>
            <path id="Path_10186" data-name="Path 10186" d="M314.6,150.9Z" fill="#202020"/>
            <path id="Path_10187" data-name="Path 10187" d="M355.2,166a.367.367,0,0,0-.1.3C355.1,166.2,355.2,166.1,355.2,166Z" fill="#202020"/>
            <path id="Path_10188" data-name="Path 10188" d="M360.9,176.2v-.3A.187.187,0,0,0,360.9,176.2Z" fill="#202020"/>
            <path id="Path_10189" data-name="Path 10189" d="M350.9,162.1c-.1-.1,0-.2-.3-.4v.1C350.7,161.9,350.8,161.9,350.9,162.1Z" fill="#202020"/>
            <path id="Path_10190" data-name="Path 10190" d="M346.2,157.9v.2c.1,0,.1.1.2.1Z" fill="#202020"/>
            <path id="Path_10191" data-name="Path 10191" d="M291.4,219.8c-.1.2-.1.3-.2.4C291.4,220,291.8,220.7,291.4,219.8Z" fill="#202020"/>
            <path id="Path_10192" data-name="Path 10192" d="M351,237.6v-.2c0,.1-.1.2,0,.2C350.9,237.7,351,237.7,351,237.6Z" fill="#202020"/>
            <path id="Path_10193" data-name="Path 10193" d="M347.5,164.6c-.2-.2-.3-.5-.5-.7A1.794,1.794,0,0,0,347.5,164.6Z" fill="#202020"/>
            <path id="Path_10194" data-name="Path 10194" d="M289,180.3v.2A.138.138,0,0,0,289,180.3Z" fill="#202020"/>
            <path id="Path_10195" data-name="Path 10195" d="M345.2,162.2c0-.2-.1-.4-.1-.6h-.2Z" fill="#202020"/>
            <path id="Path_10196" data-name="Path 10196" d="M291.2,220.2Z" fill="#202020"/>
            <path id="Path_10197" data-name="Path 10197" d="M294.7,225.3c-.4-.8-.6-.1-.9-.2-.6-.9.1-.6.1-1.1-.4-.5-1-.7-1.2-1.2.1-.1,0-.2.2-.1-.7-.4-.9-1.9-1.7-2.3,0-.1,0-.1.1-.2-.2.2-.4.4-.6.4-.2-.4-.6-.5-.4-.8.1.2.2.2.4.2l-.3-.3c.3-.6.4.4.7.3-.5-.7-1.3-1.3-1.4-2,.4-.3.7,1.3.8.3l.2,1c.4-1,.2.6.7-.4-.4-1.2-.8-1.2-1.1-2.4-.4-.1-.4.3-.7.1-1.2-1.5.7-1.8-.4-2.8-.5-.2-1.2-.1-1.1-1.1l.7.1c-.3-1.2-1.1-.3-1.1-1.7.3.1.5.8.5.6.2-1-.5-.4-.7-1l.5-.3c-.5-1.2-1.3-2.4-1.8-3.8.2,0,.4.2.5-.2a11.57,11.57,0,0,1-.6-5.5l-.6-.6c0-.2.2-.3.3-.2.1-.7-.3,0-.6-.3-.1-.4.3-.5.4-.3-.6-1.1-1.2-3.3-.5-4.5l.1.2c.2-.9-1-1.1-.4-2l.1.2c.4-2,.5-4.4,1.6-5.8-.6-.5.9-1.9,0-2.3.8-1,.8-.6,1.7-2.1.2-.4-.2-.8-.1-1.4l.4.2-.1-.9.6-.2.1-.5a.536.536,0,0,1-.4.3A3.086,3.086,0,0,1,290,179c.2-.7.4-1.3.6-1.9.1.1,0,.4,0,.7.2-1.1.4,0,.6-1-.1.1-.1-.2-.2-.2a5.8,5.8,0,0,0,1.2-2.1l.1.3c.8-1.3,1.4-2.8,2.3-4.2-.4.5-.6.2-.3-.3h.3c0-.4-.4.4-.2-.3.4-.5.5-.2.4.2l.3-.7c.1,0,0,.2.1.3,0-.3.9-1,.9-1.5h.1c.9-1.4,1.3-2.1,2.1-3.2-.1-.1.2-.5.4-.9.7-.8,1.5-1.5,2.2-2.4.5-.7.1-.3.2-.6.2.1,1-.8.6-.3a35.854,35.854,0,0,0,2.5-2.7c-.2.1-.4.2-.3.1.2-.2.6-.5.6-.4l-.1.1c.4-.4.8-.7,1.2-1.1.5-.3,1-.6,1.4-.9a9.8,9.8,0,0,0,2.5-1.6l-.1.1a10.985,10.985,0,0,1,1.4-.9c.7-.3-.4.3.2.2a7.454,7.454,0,0,1,2-1,8.923,8.923,0,0,0,1.9-.7,4.744,4.744,0,0,0,1.2,0c.5,0,.9-.2,1.5-.2a7.719,7.719,0,0,1,1.5-.2,4.887,4.887,0,0,1,1.3.1l-.1-.2c.4-.2.5.1.8.2,0-.1-.4-.2-.2-.3a16.723,16.723,0,0,1,5,.6,34.262,34.262,0,0,1,4.8,1.9c1.1.5,1.1-1,2.3.2l-.6.3c2.5.4,4.6,2.2,6.9,3-.2,0-.3.2-.5.1a1.883,1.883,0,0,0,1.8.8c.3.2-.1.3,0,.6.3.5,1.4.3,1.4.8,0,.1-.2,0-.3,0,.4,0,1.3,1,1.3.4.6.7,1.5.9,1.9,1.6.7-.1.9,1.2,1.6.7-.6.6.6,1.6,1.2,1.7-.3,0,.1.5-.3.6.2.2.4.5.6.6a.471.471,0,0,0,.6-.1c0,1.7,2.3,1.5,1.7,2.9a32.8,32.8,0,0,1,4.3,3.9c-.8.5-1.2-1.6-2-.9,1.3,1.1,2.5,1.5,3.2,3,.1.4-.5,0-.7,0,1.2,1.2,1.4,2.7,2.2,3.8-.1,0-.2-.1-.3-.2.1.2,0,.6.5.5-.1-.1-.1-.2-.2-.2.2-.3.6-.2,1,.1s.7.6.9.6c-1.3-.2.1,1.6-1.7,1.2a.482.482,0,0,0,.7.2c0,.3-.2.4-.6.2.5,1,.9.5,1.1,1.5-.2,0-.3-.1-.6-.2.5.4,1.1.8,1,1.6-.1,0-.3.1-.3-.1.4,1.4,1.6,2.2,1.4,3.8-1-.3-.2.6-1,.8l.4.8.3-.4c.1.7.8,1.3.6,2l-.4-.5.3,1.3.2-.8c.5.7,1-.2.9.8-.1-.2.1.7-.4,1.2h0a1.19,1.19,0,0,1,.4,1.3c-.2.2-.9-.1-1,0,.7.3.2,1.7.9,2.2-.2-.2-.6-.2-.6-.1l.5.3c-.2.3-.3.4-.6.3-.1,1,1-.3.5.9,0-.1-.1-.1-.2-.3-.2,1.2.2,2.4-.1,3.5-.8.3-.1-1-.8-.7,0,1.6.5,3.4.1,4.9l.1-.3c.9.4-.7,1.1-.4,1.9,0-.2-.5-.4-.4-.3a13.379,13.379,0,0,0-.4,3.8l-.2-.3a11.2,11.2,0,0,0-.9,2.2c.2.3,0,.7.4.5a3.781,3.781,0,0,0-1.2,2.9,4.592,4.592,0,0,1-.8,2.8c0-.2,0-.6-.1-.4l-.2,1.6c.4,0,.3-.2.6-.4a1.376,1.376,0,0,1,.1,1.1c0-.8-.5-.1-.8.1.1,0,.2.1.3.1-.8.7.6.3,0,1.3l-.2-.1a5.652,5.652,0,0,1,0,1.3c-.4.1-.1-.5-.3-.6-.1.6.4,1.4-.1,1.9a3.352,3.352,0,0,0,0-1c-.6.5-.5.6-.6,1.1h0l-.4,1,.2-.2c.7,1-.2,1.7,0,2.9-.2-1.2-.2-.2-.6-.4-.2.2-.4.6-.4.5.2.6-.4.8-.2,1.6-.1,0-.1.5-.4.3-.1.7.2-.1.3,0a3.686,3.686,0,0,1-.5,1.7,6.464,6.464,0,0,0-.6,2.1,12.612,12.612,0,0,1-.5,2.8c-.3.3-.1-.4-.1-.4a11.114,11.114,0,0,0-.7,1.6c0-.1-.1,0-.2.1-.2.5.1.4-.3.9v-.6c-.2.6-.4,1.1-.6,1.6-.2.1.1-.4.1-.6a9.743,9.743,0,0,1-.5,1.1,1.74,1.74,0,0,0-.3.7l.3-.3c-.1.2-.2,0-.1-.1a1.564,1.564,0,0,1,.5-.7l-.1.7c.5-.2.9-1.5,1.2-2.3l.1.4.2-.9c.1-.1.4-.2.2.2.4-.5.2-.5.5-.9h0l.2-.6c0,.1.2,0,0,.3.6-.9.5-1.7.9-2v.1c.4-1.5-.2-.2-.1-1.4l.9-.5-.2-.2c.1-.1.2-.4.3-.3,0-.6-.2.1-.2-.3.5-.6.5-2,1-2-.2-.3-.4.6-.3-.2.6-.1.2-.9.6-1.5.2.3-.1.9.4.3-.4-.5.5-1.3.6-1.9-.4-.1.2-1.3.2-2.3a26.409,26.409,0,0,0,1.1-2.5h.1c-.5-.3-.1-1.2-.1-1.9a.548.548,0,0,1,.4.6l.2-.6a.989.989,0,0,1-.1-.8l.4.3c.2-.8,0-1.8.6-2.7-.4-.2-1.3.5-1.3-.7.2,0,.6.1.6.4,0-.1-.1-.4.1-.6l.2.5c.3-.4-.2-.3-.1-.7.3.1.3-.2.5-.1,0,.1-.2.3-.2.5.2-.4.5-.9.8-1-.2,0-.4-.1-.4-.5.2-.8.5-.2.8-.6-.2-.3.3-.7-.2-.9.1-.2.3-.2.5-.2-.1-.5.6-2-.1-1.7l-.1.1v-.1h0a5.548,5.548,0,0,1,.6-2.2,5.787,5.787,0,0,0,.7-2.1h.2a11.739,11.739,0,0,0,.1-2.6c.1-.2.4-.5.7-.4a2.654,2.654,0,0,1,.2-1.7c.2.7.3-.2.1.7.3-.8.6-1,.2-2,.5.4.7-.6.6-1-.1.2-.3.4-.4.6,0-.5.1-.9.1-1.3l.6.3a2.747,2.747,0,0,0-.1-2.5c-.2-.8-.5-1.5.2-2.2-.5-.5-.3,1-.9.6.1-.8,1.1-1.7,1.1-2,.3-1.2-1.1-1-.9-2.2-.2.2-.9.4-1.2-.5,0-.8,1-1.1,1.2-.6,0,.2,0,.3-.1.3.1.3.3.6.5.2l-.3-.1c.2-.4.1-1.6.5-1.3-.3-.6-.4-.2-.5.3.2-1.1-.2-1.6-.1-2.8-.1.2-.4.4-.4.2,0-1.6-.6-.6-.9-1.6.3-.7,1,0,.4-1,.1-.7.6-.3.9,0-.7-.9-.1-1.9-.1-2.5l.3.5a2.613,2.613,0,0,1-.3-.8l-.4.4c0-.3,0-.6.2-.6-.4-.2-.8.4-1.4-.1.2-.5-.6-1.1.1-1.4.1,1.3.6-.3,1,.7a1.549,1.549,0,0,1-.2-.8c.1-.1.1,0,.2.1.3-1.3-.9-.4-1.2-1.6.4.1.6-.5.5-.7.1.5-.5.4-1,0a1.549,1.549,0,0,0-.2-.8c-.1-.2-.3-.3-.4-.5v.6c-.4-.1-.5-.5-.8-1,.3-.2.4.4.4.2-.9-.4,0-1.7-.8-2.3,0-.5.6-.4.6-.8-1-.7-.1-1.3-1.1-2-.2.5-.1.5-.9.1l1.3,1.3-1.2-.6c.3.4.9.8,1,1.1-.6-.3-.5-.3-.7.2.3-1-1.1-1-1.2-1.9l1-.7c-.3-1.4-1.8-1.4-2.6-2.8l.2.5c-.5.1-.7-.7-1.1-1,.3-.2.2-.5.3-.9-.2.2-.7-.9-1.4-.5l-.1-.9c-.7-1.1-1.8-.4-2.4-1.4.6,0,.4-.6,1.2-.2-.3-.3-.4-.6-.6-.5,0-.3-1.1-.5-1.1-1.1-.2,0-.6.2-.9-.2a.1.1,0,0,1,.1-.1c-.1.1-.7-.4-.7.2a2.624,2.624,0,0,0-1.4-2,3.705,3.705,0,0,1-1.6-1.7c-.8-.4-1.8-1-2.5-1.4.1-.1.1-.1.2,0-.8-.9-1.1.5-2-.5-.3-.8.7.1.5-.3.4-1-1.4-.7-1.8-1.6h.2c-.4-.6-1.6-.4-2.6-.9l.1-.1a7.384,7.384,0,0,1-3.2-.5c.5-.3.5,0,.5-.5-.5-.1-.1.6-1,.4-.2-.3-.7-.7-.7-1.1l.8.3c-.2-.7-1.1-.4-1.5-.6l.1-.2c-1.3-.3-1.5.2-2.9-.2l.1.2c-.9.3-.6-.5-1.4-.2l-.1-.6a22.676,22.676,0,0,1-2.8.1,9.269,9.269,0,0,1,2.4-.4,4.932,4.932,0,0,0-2.1,0c.2,0,.5-.1.7,0a4.937,4.937,0,0,1-2.5.3c.3-.9-2.6-.4-3.4-.9a12.65,12.65,0,0,1-2.8.3,18.726,18.726,0,0,0-3,.5c.9.3-.6.2-.3.6-.5.1-.6.2-.7.2l-1.5.2c-.4,0,.4-.3.3-.3-1,.3-.5,0-1.2.1.2.1-.3.4-.9.6l.9-.2c-1.3.8-1.3.2-2.6,1.1l.4-.3a10.585,10.585,0,0,0-2.9,2.2c-.1,0-.3.1-.1-.2-1.6,1-3.1,2.8-4.2,3.6v-.2a2.51,2.51,0,0,1-.7.8s0-.2-.1-.1-.5.8-.9,1l.2-.3a7.626,7.626,0,0,0-1.5,1.7c-.4.5-.7,1.1-1.2,1.7-.2-.2-1.2.8-1.7,1.3h0a40.314,40.314,0,0,0-3.1,4.5c-1,.7-2.5,3.2-3.8,4.6.2-.2.3.2.1.5-.3.3-.4,1.2-.7.9l.1-.1c-.5.1-1,.9-1.4,1.5l.4.4a6.829,6.829,0,0,0-2,2.7c-.5,1-.9,2-1.5,2.3a7.972,7.972,0,0,0-.3,1.5l-.4-.2a11.267,11.267,0,0,0-1.5,3.3l-.2-.4c-.4.9.8,1.5.6,2.3h-.7c-.5,1.5-1.5,3-1.1,4.7-.1,0-.3-.1-.3-.4-.2.7-.9,2.9.2,2.7-.7,0-.2,1.7.1,2.5l-.5-.1c.6.7.8.7,1.1,1.7a.161.161,0,1,1-.3-.1c-.2.8.5.6.3,1.6l-.4-.3c0,.8.2.7.6,1.1a1.473,1.473,0,0,1-.3,1.7.983.983,0,0,1,.7.9c-.2.1-.3-.1-.4-.1-.1,1.4,1,1.8.7,2.9-.2.1-.2.1-.2.2a16.431,16.431,0,0,1-.4-1.8c-.5.1-.3,1-1.1.4.5.6,1.5,1.6,1.5,2.5a.1.1,0,0,1-.1.1l-.1-.1a.764.764,0,0,0,.2.5,1.483,1.483,0,0,0,.1.7c-.3.2.1,1,.2,1.4.4-.2.6.4.8-.2,0,.1-.1-.1-.2-.3,0-.1-.1-.1-.1-.2h0a6.9,6.9,0,0,0-.4-1c.3.3.6.5.5,1.1a9.2,9.2,0,0,0,.9.3c-.5.8-.4,1.9-.8,2.2.7,1.2,1.3,2.8,2.4,3.3.2.3-.1.5-.1.7-.2-.2-.2-.4-.4-.5.5.6,1,2,1.6,1.9.1,1-.7-.3-.1.9l-.2-.1a4.556,4.556,0,0,0,1.7,2.9,5.583,5.583,0,0,1,1.8,3.1c0-.2-.1-.3,0-.4,1.2,3,3.9,5.4,5,8.2a3.157,3.157,0,0,0,1,1.2l-.2.3a2.337,2.337,0,0,1,.7.7c.8,1.1.6,2.2,1.7,3.5v-.2c.3.5,1,1.6.8,1.6a.747.747,0,0,1,.3.3l-.1.1.8,1.2c.5,1-.3,0,.5,1.4a9.871,9.871,0,0,1,.9,1.2l-.3-.6.3.5c.1,0,.4.4-.1-.9l-.5-.8-.1-.3.3.7a2.344,2.344,0,0,0-.5-1,.756.756,0,0,0-.1-.4c-.2-.3-.4-.5-.6-.8,0-.1.3.3.1-.3-.3-.4,0,.5-.4-.2-.1-.5.1-.4-.3-.8,0-.1.1,0,.2.2-.3-.4-.5-1.2-.8-1.3,0-.5-.7-1.5-.4-1.6a6.291,6.291,0,0,1-.8-1.1c.7.5-.7-1.5-.1-1.6-.6-.4-1.1-1.9-1.8-2.7a.215.215,0,0,1,.2.2,10.332,10.332,0,0,1-.3-1.2c-.4.2-1-.6-1.5-.9,0-.9.7.1.9-.3-.3.2-.9-.9-1.1-.5,0-.6-.1-.5.1-.9-.6.2-.3-.4-.9-.6-.1-.9.4-.5-.2-1.1A4.2,4.2,0,0,1,294.7,225.3Zm-8.8-18.7h0a.756.756,0,0,1,.1.4A.756.756,0,0,0,285.9,206.6Zm-.4-1.7a1.854,1.854,0,0,0,.2.7c-.2.1-.3.1-.4-.1C285.4,205.7,285.4,205.2,285.5,204.9Zm-2.3,4.6c-.2-.3-.1-.4,0-.4a1.689,1.689,0,0,0,.2.5h.1A.774.774,0,0,0,283.2,209.5Z" fill="#202020"/>
            <path id="Path_10198" data-name="Path 10198" d="M283.9,209.8a.1.1,0,0,0,.1.1c0-.1,0-.1.1-.2-.1,0-.1,0-.2-.1Z" fill="#202020"/>
            <path id="Path_10199" data-name="Path 10199" d="M360.5,211Z" fill="#202020"/>
            <path id="Path_10200" data-name="Path 10200" d="M288.5,182.2l-.1-.1v.2Z" fill="#202020"/>
            <path id="Path_10201" data-name="Path 10201" d="M356.2,219.9a.1.1,0,0,0-.1.1A.1.1,0,0,0,356.2,219.9Z" fill="#202020"/>
            <path id="Path_10202" data-name="Path 10202" d="M355.2,224l-.3.5A.55.55,0,0,0,355.2,224Z" fill="#202020"/>
            <path id="Path_10203" data-name="Path 10203" d="M354.4,227.1a.1.1,0,0,0,.1.1h0Z" fill="#202020"/>
            <path id="Path_10204" data-name="Path 10204" d="M357.1,177.7h0C356.9,177.4,357,177.6,357.1,177.7Z" fill="#202020"/>
            <path id="Path_10205" data-name="Path 10205" d="M361.3,192.1c-.1-.2-.2-.3-.3-.5C361,191.9,361,192.1,361.3,192.1Z" fill="#202020"/>
            <path id="Path_10206" data-name="Path 10206" d="M347.5,164.7Z" fill="#202020"/>
            <path id="Path_10207" data-name="Path 10207" d="M360.9,190.9a.821.821,0,0,0,.1.7A1.952,1.952,0,0,0,360.9,190.9Z" fill="#202020"/>
            <path id="Path_10208" data-name="Path 10208" d="M349.6,240.1l-.1.1h0Z" fill="#202020"/>
            <path id="Path_10209" data-name="Path 10209" d="M349.5,240.3l-.1.2A.31.31,0,0,0,349.5,240.3Z" fill="#202020"/>
            <path id="Path_10210" data-name="Path 10210" d="M349.3,240.8l.2-.3C349.4,240.5,349.3,240.7,349.3,240.8Z" fill="#202020"/>
            <path id="Path_10211" data-name="Path 10211" d="M351.5,236.4Z" fill="#202020"/>
            <path id="Path_10212" data-name="Path 10212" d="M352,235.2a11.731,11.731,0,0,0-.5,1.1v.1C351.5,236.1,352,235.5,352,235.2Z" fill="#202020"/>
            <path id="Path_10213" data-name="Path 10213" d="M354.9,230.4l-.4,1c.2-.1.4-.3.2.1C355.5,230.4,354.4,231.8,354.9,230.4Z" fill="#202020"/>
            <path id="Path_10214" data-name="Path 10214" d="M356,227.2c-.1.6.2,0,.2.1C356.3,226.9,356.3,226.8,356,227.2Z" fill="#202020"/>
            <path id="Path_10215" data-name="Path 10215" d="M362.9,203.6l.5.1C363.4,203.2,363.2,203.7,362.9,203.6Z" fill="#202020"/>
            <path id="Path_10216" data-name="Path 10216" d="M360.8,198.6l-.3.4.5.3Z" fill="#202020"/>
            <path id="Path_10217" data-name="Path 10217" d="M364.7,196l.1.2a2.353,2.353,0,0,0-.2-.8A1.268,1.268,0,0,0,364.7,196Z" fill="#202020"/>
            <path id="Path_10218" data-name="Path 10218" d="M347.4,158.2l-.2.5C347.4,158.8,347.9,158.4,347.4,158.2Z" fill="#202020"/>
            <path id="Path_10219" data-name="Path 10219" d="M330.8,150.6a.886.886,0,0,0-1-.4C330.2,150.3,330.5,150.6,330.8,150.6Z" fill="#202020"/>
            <path id="Path_10220" data-name="Path 10220" d="M287.8,176.5l.1-.3-.3.6Z" fill="#202020"/>
          </g>
        </g>
      </g>
    </g>
  </g>
</svg>
