<svg xmlns="http://www.w3.org/2000/svg" width="393.153" height="406.32" viewBox="0 0 393.153 406.32">
  <g id="tea" transform="translate(-512.4 -202.801)">
    <g id="Group_1205" data-name="Group 1205">
      <g id="Group_1204" data-name="Group 1204">
        <g id="Group_1203" data-name="Group 1203">
          <g id="Group_1202" data-name="Group 1202">
            <g id="Group_1201" data-name="Group 1201">
              <path id="Path_12822" data-name="Path 12822" d="M605.6,574c.8.7.5.1-1.6-1.9l-1.7-1.2Z" fill="#202020"/>
              <path id="Path_12823" data-name="Path 12823" d="M591.8,560.2c-2.6-2.2-5.6-4.7-4.2-3,2.7,2.1,3.2,2.7,6.1,5a25.314,25.314,0,0,1,3.2,3.3c.8.6,3.2,3.1,4.5,4.1a113.182,113.182,0,0,0-9.8-9.3C590.8,559.4,591.6,560.1,591.8,560.2Z" fill="#202020"/>
              <path id="Path_12824" data-name="Path 12824" d="M648.9,416c-.6,0-1.2.1-1.8.1C647.6,416.1,648.2,416,648.9,416Z" fill="#202020"/>
              <path id="Path_12825" data-name="Path 12825" d="M824,423.1c-1.3-.2-1.9-.3-1.9-.3C823.3,423,824.3,423.1,824,423.1Z" fill="#202020"/>
              <path id="Path_12826" data-name="Path 12826" d="M853.5,428.7c-.6-.1-1.2-.2-1.7-.3A6.094,6.094,0,0,0,853.5,428.7Z" fill="#202020"/>
              <path id="Path_12827" data-name="Path 12827" d="M648.9,416l4.7-.1A42.108,42.108,0,0,0,648.9,416Z" fill="#202020"/>
              <path id="Path_12828" data-name="Path 12828" d="M562.9,533.9c.7.7,1.3,1.2,1.9,1.7-.6-.6-1.2-1.1-1.8-1.6A.1.1,0,0,0,562.9,533.9Z" fill="#202020"/>
              <path id="Path_12829" data-name="Path 12829" d="M572.2,425.7l-1.4.3a3.582,3.582,0,0,0-1.1.4Z" fill="#202020"/>
              <path id="Path_12830" data-name="Path 12830" d="M516.8,443.6a10.5,10.5,0,0,0,1.3-1.9c-.5.6-1.1,1.4-1.8,2.3C516.3,443.9,516.5,443.8,516.8,443.6Z" fill="#202020"/>
              <path id="Path_12831" data-name="Path 12831" d="M554.2,523.7l1.2,1.2Z" fill="#202020"/>
              <path id="Path_12832" data-name="Path 12832" d="M614.2,419.3h0Z" fill="#202020"/>
              <path id="Path_12833" data-name="Path 12833" d="M741.7,204h0C742.1,204,742.2,203.9,741.7,204Z" fill="#202020"/>
              <path id="Path_12834" data-name="Path 12834" d="M744.1,223.5a2.769,2.769,0,0,0-.9.1c-.1.1-.2.1-.2.2l.5-.2Z" fill="#202020"/>
              <path id="Path_12835" data-name="Path 12835" d="M901.6,448.3c0-.1,0-.1-.1-.2C900.9,446.9,901.2,447.6,901.6,448.3Z" fill="#202020"/>
              <path id="Path_12836" data-name="Path 12836" d="M609.2,426.5c-2.8.3-.6-.1,1.4-.5,1.9-.3,3.5-.6-.8-.2C610.6,425.8,602.1,427.3,609.2,426.5Z" fill="#202020"/>
              <path id="Path_12837" data-name="Path 12837" d="M561.8,532.8c-.6-.6-1.2-1.1-1.8-1.7C560.8,531.9,561.4,532.4,561.8,532.8Z" fill="#202020"/>
              <path id="Path_12838" data-name="Path 12838" d="M609.8,425.8h0l-.9.1C609.3,425.9,609.5,425.8,609.8,425.8Z" fill="#202020"/>
              <path id="Path_12839" data-name="Path 12839" d="M792.8,485.2a6.637,6.637,0,0,1,1.3.1A11.635,11.635,0,0,1,792.8,485.2Z" fill="#202020"/>
              <path id="Path_12840" data-name="Path 12840" d="M885.3,470.2c-.7.2-1.5.5-2.2.7C884,470.6,884.7,470.4,885.3,470.2Z" fill="#202020"/>
              <path id="Path_12841" data-name="Path 12841" d="M743.9,486.5c-1.3,0-1.7-.1-3.4-.1h.5A21.914,21.914,0,0,0,743.9,486.5Z" fill="#202020"/>
              <path id="Path_12842" data-name="Path 12842" d="M693.1,484.3c.3,0,.6.1.9.1.5,0,1.1.1,1.6.1Z" fill="#202020"/>
              <path id="Path_12843" data-name="Path 12843" d="M744.7,300.9c.9-.6,1.5-1,1.9-1.3-.4.2.8-.9,1.2-1.4.2-.2.2-.3-.2.1A17.27,17.27,0,0,1,744.7,300.9Z" fill="#202020"/>
              <path id="Path_12844" data-name="Path 12844" d="M563,533.7a6.7,6.7,0,0,1-1.2-1l1.2,1.2C563.1,534,563.2,534,563,533.7Z" fill="#202020"/>
              <path id="Path_12845" data-name="Path 12845" d="M741.8,488.7l-4.1-.1-4-.2C736,488.6,738.9,488.7,741.8,488.7Z" fill="#202020"/>
              <path id="Path_12846" data-name="Path 12846" d="M857.9,474.1c-.6.1-1.2.3-1.8.4A6.914,6.914,0,0,0,857.9,474.1Z" fill="#202020"/>
              <path id="Path_12847" data-name="Path 12847" d="M709.7,487.5c-1.4-.2-3-.3-4.5-.5h-.9Z" fill="#202020"/>
              <path id="Path_12848" data-name="Path 12848" d="M746.7,299.7Z" fill="#202020"/>
              <path id="Path_12849" data-name="Path 12849" d="M733.8,261.6c3.4,1.6,4.2,2,4.4,1.9.2,0-.3-.4.5-.2a22.116,22.116,0,0,1,2.4,1.4,14.669,14.669,0,0,0,1.5.9c.7.5,1,.7,1.1.8.2.3-.3.1.9,1.1a41.023,41.023,0,0,1,5.7,4.8,14.948,14.948,0,0,1,1.1,1.3l.5.6.4.7a9.131,9.131,0,0,1,.8,1.3c.2.5.4.9.6,1.4.1.3.4,1-.1.2a15.193,15.193,0,0,1,.6,11.1,22.75,22.75,0,0,1-3,5.8,44.784,44.784,0,0,1-3.8,4.5c-.4.3-.6.5-.7.5,1-.6,1.2-.6,1.1-.3a28.576,28.576,0,0,1-6.1,4.6,11.628,11.628,0,0,0,2.6-2c-.9.7-1.9,1.4-2.9,2.1-1.5.7-.4.1.9-.9a18.9,18.9,0,0,0,2.9-2.2c-5.4,4.4-12.8,8-17.7,10.2-.6.1,2.3-1.3,4.4-2.3,2.1-1.1,3.6-1.8.3-.4,2.5-1.2,5-2.4,7.4-3.8-2.9,1.3-1.8.7-.6.1,1.1-.7,2.3-1.4-.3-.1-4.7,2.6-7.5,3.9-10.3,5.2-2.8,1.4-5.6,2.6-10.5,5.2-2.1,1.4.9-.2-1.2,1.2-3.4,2-5.6,3.7-7.3,4.9-.8.6-1.5,1.2-2.1,1.7s-1.1.9-1.6,1.4a8.636,8.636,0,0,0-1.4,1.3c-.5.5-1,1-1.5,1.6a25.868,25.868,0,0,0-3.6,5.6,23.048,23.048,0,0,0-1.3,4.2,33.286,33.286,0,0,0-.9,8.3,28.862,28.862,0,0,1-.4-2.9,21.6,21.6,0,0,0,.5,5.9c.3,1.3.6,2,.8,2.8.6,1.5,1.1,3.1,3.3,8.3a45.8,45.8,0,0,1-2-4.3c-.6-1.6-1-2.7-.8-1.9a25.324,25.324,0,0,0,2.3,5.6c.5.9,1,1.7,2.2,4.2l.2,1.2a54.8,54.8,0,0,1,3,8,27.7,27.7,0,0,1,.9,8.6,38.526,38.526,0,0,1-5.4,17.2c.3-.6,1.2-2.5-.3-.1a49.6,49.6,0,0,1-7.1,9.6c-2.8,3-5.8,6-8.6,9.2a37.175,37.175,0,0,0-7,10.8,19.239,19.239,0,0,0-1.4,6.2,18.4,18.4,0,0,0,.5,6.2,28.653,28.653,0,0,0,2.4,5.7c.6,1.3,1.2,2.3.3,1.1a14.854,14.854,0,0,0,1.4,2.3c.2.3.2.2.1.1-.1-.3-.4-1,.4.2,1,1.4,1.8,2.3,2,2.7.3.4,0,.2-.7-.6a36.057,36.057,0,0,0,7.3,6.3,52.178,52.178,0,0,0,10,5.1c7.1,2.9,14.5,4.8,19.8,6.5l-2.1-.5a45.98,45.98,0,0,0,5.1,1.4c1.4.3,2.6.5,3.8.8s2.3.5,3.6.8,2.9.6,4.8,1.1l-1.5-.3c2.3.5,4.6,1,7,1.5,2.4.4,4.7.9,7.1,1.3l3.6.6c1.2.2,2.4.3,3.6.5,2.4.3,4.7.7,7,1,9.3,1.1,18,1.8,25.2,2.3,2.7-.2,18.6.5,19.8-.3,5.4-.1,7.3,0,9.8-.1,1.2-.1,2.6-.1,4.6-.2,1-.1,2.2-.1,3.5-.2,1.4-.1,3-.3,4.9-.4,4-.4,6-1,10.9-1.8l.2.3c2.2-.4,4.4-.8,6.7-1.3l3.6-.3,4.6-.9c-1.8.3-3.9.6-3.7.4,1.8-.3,3.8-.7,5.8-1.1s3.9-.8,5.7-1.2c1.8-.3,3.3-.6,4.4-.8a7.581,7.581,0,0,1,1.8-.3l8.4-2.3a48.883,48.883,0,0,0,8.2-3.4,26.05,26.05,0,0,1-5.1,2.5c4.4-1.8,4.7-2.1,5.1-2.2.2,0,.3-.1.9-.3a26.77,26.77,0,0,0,3.4-2.2c-1,.6.4-.5.5-.7.2-.2.5-.3.7-.5s.5-.4.8-.7a9.084,9.084,0,0,0,1.7-1.7,13.812,13.812,0,0,0,2.8-5.1,11.269,11.269,0,0,0-3.7-11.6l1.2.9c-2.4-2.7-5.7-4.2-8.9-5.4a86.831,86.831,0,0,0-10-2.7c-3.4-.8-6.8-1.6-10.3-2.4-1.7-.4-3.5-.8-5.2-1.2-1.8-.4-3.5-.7-5.3-1.1,5,1.1,3.8,1.2-.3.4l-1.6-.7c-2.7-.3,4.3,1-1.2.1-5.3-1.1-3.5-1.1-.4-.6l-6.4-1.2c-.4-.2,1.2.1,1.6,0-1.3-.1-4.1-.9-7-1.4-2.9-.6-6-1.1-7.9-1.3l-.3-.2c-3.5-.6-6.6-1.2-9.4-1.5-2.8-.4-5.3-.7-7.7-1-4.9-.6-9.4-1.3-15.2-1.9-.3.3-4.8-.3-8.3-.5-2.1-.3-4.3-.5-6.6-.8-2.3-.2-4.6-.4-6.9-.7-2.4-.2-4.8-.5-7.3-.7s-5-.5-7.6-.6c-7.3-.3-2.1.1-5.4.1-.5-.3-10.9-.8-5.5-.7-6.2-.4-10.2-.4-14.6-.5s-9.2-.3-17-.2c1.7.1,3.6.2,2.6.3-2.9,0-6.5-.1-6.1-.3h.8c-8.8,0-19,.1-28.8.1-4.9.1-9.6.2-14,.4q-3.3.15-6.3.3c-2,.2-3.9.3-5.7.5l.8-.1L649.5,420c-6.7.5,4-.5-1-.3-7.8.9-14,1.4-19.9,2-5.8.6-11.3,1.2-17.8,2-2.5.1-6,.5-10,1-2,.3-4.1.5-6.3.8-1.1.2-2.2.3-3.4.5-1.1.2-2.3.4-3.4.5-9.2,1.5-18.9,3-25.6,4.1h.8c-3.4.8-4.2.7-6.7,1.2.4.1,3.8-.6,1.6-.1a177.153,177.153,0,0,0-21.9,5.8c-1.8.6-3.6,1.3-5.4,1.9-.9.3-1.8.7-2.7,1.1-.9.3-1.8.8-2.7,1.2a15.863,15.863,0,0,0-4.9,3.7,10,10,0,0,0-1.7,2.8,6.9,6.9,0,0,0-.3,3.5,7.139,7.139,0,0,0,1.4,3.2,9.982,9.982,0,0,0,2.4,2.2,20.6,20.6,0,0,0,5.4,2.6l5.4,2.1c1.8.7,3.6,1.3,5.5,1.9,3.6,1.3,7.3,2.4,11,3.5,3.7,1,7.4,2.1,11.1,3a57.031,57.031,0,0,0,9,1.7c1,.1,2,.3,3.7.6s4,.8,7.4,1.5l-4-.4c22.1,3.9,45.4,6.7,67.3,8.3a22.426,22.426,0,0,1-3.5-.1c2.3.3,6.6.7,10.3,1,1.9.1,3.6.2,4.8.3a5.823,5.823,0,0,0,2.1,0c3.4.3.8.2,2.9.5,4.6.5,11.7.6,14.1,1.1a9.246,9.246,0,0,1-2.2-.1c1.5.1,5,.3,7.8.5s4.8.3,3.4.1c4.1.4,8,.6,11.8.8,3.7.2,7.2.4,10.5.7,4.3,0,14.1.8,15.5.5-.6.5,14.4.9,19.6.8-1.7.1,4.5.2,2.5.4,5.9.1,11.4.1,10.4-.2,5.5.2,11,.2,15.9,0a102.747,102.747,0,0,1,12.3-.1c17.7-.9,34-2.6,49.7-4.9a12.225,12.225,0,0,1-2.9.6c-1.6.3-3.8.6-5.9.8-4.2.5-8.3.9-7.9,1.1,3.7-.5,7.1-.9,10.2-1.3,3.1-.5,6.1-1,9-1.4,1.5-.2,2.9-.5,4.4-.7,1.5-.3,3-.6,4.5-.8,3.1-.6,6.4-1.2,10.1-1.8,1.9-.4,1.4-.2.2.1s-3,.6-3.6.8c3.7-.6,7.3-1.5,10.9-2.3,1.8-.4,3.6-.8,5.3-1.1,1.8-.4,3.5-.9,5.2-1.3,6.8-1.8,13.6-3.2,19.9-6a4.766,4.766,0,0,1-.8.4c-.5.2-1.2.5-1.8.8,2.5-.9,5.8-2.5,5.4-2.6-.8.4-1.5.8-2.3,1.2-2.1.7.4-.4,3.2-2.2a23.965,23.965,0,0,0,3.8-3c1-1,1.6-1.8,1.7-1.9-.6.9-.4.8.3.1a15.669,15.669,0,0,0,2.4-3.3,16.552,16.552,0,0,0,1.5-3.3c.2-.6.3-.3-.2,1.5.7-1.7,1-4.1.8-3.7.2-1.3.2-2.3.3-2.5,0-.2.2.3.1,1.7a12.569,12.569,0,0,0-.6-5.4,9.757,9.757,0,0,0-.6-1.4,3.881,3.881,0,0,0-.6-1.1,17.221,17.221,0,0,0-1.5-2.1c-.2-.2-.3-.5-.6-.7a5.718,5.718,0,0,1-.7-.8l-.9-.9a12.7,12.7,0,0,0-1.2-1,13.982,13.982,0,0,1,2.3,1.6c-3.4-3.1-7.7-4.9-14.6-7.1.4.1-.3-.3,1.7.4q-4.5-1.35-8.4-2.4c-2.7-.8-5.3-1.4-8-2-5.3-1.2-10.8-2.3-17.5-3.6,4,.3-4.5-1-5.2-1.5l-7.2-1.2,2.9.7c-6.3-1.2-12-1.9-17.4-2.9l4.7.7-11.9-2,6.7,1.3c-6.4-.9.6.6-7.8-1,1.7.3-6.3-1.1-9.6-1.9h0c-3.2-.4-6.4-.8-11.1-1.5-1.2-.3,1-.3.2-.5-1.6,0-5.3-.5-9.2-.8s-7.8-.6-9.8-.6c1.3,0,1.4-.2,1-.2l-2.6.1c-3-.3-3.4-.3-2.9-.5-8.9-.5,2.8.6-7.8-.1h2.2c-10.7-.6-20.6-.6-30.4-.9-2.9-.4,8.6.1,5.3-.3-14.1-.2-29.3-.2-42.9-.3l2.5.1c-1.9.5-10.2-.3-17.1,0,1.7-.1,2.2-.3,1.8-.3-4.7,0-9.5.1-14.9.3-5.4.3-11.4.5-18.5,1l1.7-.2c-2.8.1-6.4.2-10.1.5-3.7.2-7.4.5-10.4.7-1.8.3-5.2.6-3.1.6-18.4.8-34.8,4.1-51,6.3,1.9-.4,4.6-1,3-.7-4.5.9-9.1,1.7-13.6,2.7a40.618,40.618,0,0,0,4.7-.6c-.9.2-2.2.5-3.8.9s-3.4.8-5.1,1.1c6.1-1.4-.1-.4-2.8.1.5,0-.4.2-.2.3-3.6.5-3.9.7-4.5,1s-1.5.6-6.3,1.7l.5-.2c-1.8.5-3.5.9-5.3,1.4-1.7.5-3.5,1-5.5,1.5-1.7.2,3.8-1.2,4-1.4-5.4,1.5-10.6,3.3-15.5,4.6,1.1-.4,2.5-.8,3.9-1.3,1.4-.4,2.8-.8,3.9-1.2-2.7.6-4.2.9-5.5,1.3s-2.5.7-4.4,1.3l.4-.1-4.6,1.3a20.154,20.154,0,0,0-2.3.7,9.41,9.41,0,0,0-2.2,1.2,16.273,16.273,0,0,1,2.3-1.1,18.11,18.11,0,0,0-4.4,3.3,30.952,30.952,0,0,0-3.7,4.3A11.483,11.483,0,0,0,514,447a15.468,15.468,0,0,0-.6,3.1,22.5,22.5,0,0,0,.9,6.7,36.869,36.869,0,0,1-.9-4.1c-.1-.6-.1-.5-.1-.2,0,.7.2,2.4,0,2.1.4,2.4,1,6.1.7,5,.1.6.3,1.1.4,1.6s.3,1,.4,1.5c.3,1,.5,2,.8,3a48.166,48.166,0,0,0,2.5,7.2c-.1.3,1.9,4.4,1.2,3.6,2.4,5.4-.4-1.3-.1-.9.5,1,1,2.1,1.5,3.2s1.1,2.2,1.7,3.4,1.1,2.4,1.8,3.6,1.4,2.4,2.1,3.7A95.276,95.276,0,0,0,537,504.6c1.7,2.2,3.3,3.8,4.5,5.3,1.3,1.4,2.4,2.6,3.5,3.8,2.2,2.3,4.4,4.5,8,8.2,1.2,1.3.6.9-.3.1s-2-1.9-2-1.9c3.8,4.2,6.8,7.1,10.7,10.8-.8-.7-.1.1,1,1.3,3.1,2.9,2.3,1.7,6.3,5.7-.8-.6-1.8-1.3-3.3-2.6,3.7,3.4,7.4,6.7,11.2,10.1.9,1.1-2.5-2-3.9-3.1,4.3,3.9,11.1,10.3,12.6,11.3l-2.7-2.6c1.6,1.4.6.9-.5-.1-3.8-3.3-5.2-5-5.3-5.3l2.7,2.5c-2.4-3-10.9-10.1-16.2-15.3l2.5,1.8c-1.9-1.7-3.8-3.3-5.7-5.1-1.1-1.2-1.7-2.2,1,.4-3.6-3.9-3.5-3.2-6.5-6.6-.3-.4-.2-.2.2.1-1.2-1.2-2.5-2.4-3.7-3.7.8.7-.4-.8,1.8,1.5-6.3-6.9-10.4-10.9-12.4-13.8l.5.6c-2.1-2.4-3.2-3.8-3.7-4.4-.6-.7-.6-.7-.7-.6,0,.1,0,.2-.3-.1a31.989,31.989,0,0,1-2.6-3,64.535,64.535,0,0,1-3.1-5.8l-1-.9c-.7-1.1-2.2-3.3-1.8-3-2.7-4.2.3.8-1.3-1.6-1.6-2.8-3.7-6.7-5.3-10.2-.8-1.7-1.5-3.4-2-4.6a9.015,9.015,0,0,1-.7-2.6c-1-2.1,1.9,5.9-.6-.6,0-1-.9-2.8-1.5-5.2-.4-1.2-.7-2.5-1.1-3.8-.3-1.4-.6-2.8-.8-4.3.6,1.7,1.5,7.2.6,1.4a27.252,27.252,0,0,1-1.2-7.5,10.294,10.294,0,0,1,.8-4.3,16.571,16.571,0,0,1,2.2-3.4A4.177,4.177,0,0,1,518,442a21.686,21.686,0,0,1,3.4-3,14.813,14.813,0,0,1,2.5-1.4c.9-.3,2-.6,3-.9,2.1-.6,4.2-1.3,6.2-1.9-.2.1,3.5-1,8.3-2.2,2.4-.6,5-1.3,7.5-2,2.5-.6,4.9-1.1,6.8-1.5l-.2.1a37.554,37.554,0,0,1,5.8-1.7c2.8-.6,6.2-1.4,9-2-.2.3-1.2.6-4.2,1.3l5.3-1.1a45.061,45.061,0,0,1,6.4-1.4l-1.3.5c3.6-.6,7.1-1.4,11-2.1,3.9-.6,8-1.4,12.6-1.9.5-.3-7.5.3,2.3-1.2.4.1.8.3-1.8.7.8-.1,3-.5,4.7-.7l-3.9.7c4.2-.5,2.2-.5,5.6-.9,0,.2,2.5-.2,2.1,0a38.468,38.468,0,0,0-4.2.6c1.9-.2,4-.5,5.8-.7s3.4-.3,4.1-.3c-.3-.1,0-.3,2.8-.6,7.2-.8,2.5,0,6.7-.4,1.7-.3,6.4-.6,6.5-.9a20.677,20.677,0,0,1,3.3-.1c3.7-.5,17.5-1.3,13.3-1.3h-1a1.268,1.268,0,0,0,.6-.1h0c12.3-1,25.6-1.1,37.8-1.4v.1c7.3-.2,16.3-.2,21.5-.4,2.2,0,5.1.2,4.2.3,5.6,0,6.2-.1,14.3.2-5.6.1,1.9.2-5.8,0,7.3.2,8.9.4,16.7.3-2.7.2,5.5.4,8.9.4l-5.1-.3c3.9,0,7.3.1,10.7.2l-1.9.3c14.8.8,26.8.2,38,1.9,3.9.1-8-.8-4.5-.8,6.8.5,13.8,1.8,15.9,2.1a53.5,53.5,0,0,0,5.4.7c1.4.2,2.5.3,3.6.4A92.284,92.284,0,0,1,816,421c-1.2-.3-2.3-.9,4.9.3,6.7,1.2,8.2,2,3.9,1.3-1.6-.3-2.4-.4-2.3-.5-2.2-.3-5-.8-2.4-.2h.9c3.3.7,12.6,2.3,10.4,2.1,5.1.8,2.2.2-1.5-.5,4.3.8,7.7,1.4,11.1,2s6.8,1.2,11.3,2.1c-1.4-.3-2.7-.7-1.3-.4,6.5,1.3,7.9,1.5,8.8,1.6a47.842,47.842,0,0,1,5.7,1c4.9,1.3-1.9,0,6.9,1.9,5.3,1.5,1,.6-1.1.1,4,.9,7.6,2,10.9,3s6,2,8.1,2.8c-1.3-.5-2.7-.9-4-1.3a38.047,38.047,0,0,1,6.3,2.3,21.171,21.171,0,0,0-2.1-1.1,15.443,15.443,0,0,1,4,2c1.1.5.8.2.7,0,0-.1,0-.1.3,0a11.108,11.108,0,0,1,2,1.1,17.215,17.215,0,0,1,4.2,4.6c.1.2.3.5.4.7s.2.5.3.7a11.209,11.209,0,0,1,.5,1.3,6.633,6.633,0,0,1,.2,1.7,9.767,9.767,0,0,0-.8-2.7,6.39,6.39,0,0,0-.6-1.2c-.3-.4-.2-.2-.1,0s.2.5,0,.2c-.2-.2-.6-1-1.9-2.6a12.363,12.363,0,0,1,2.8,5.1c.1.3-.1-.3-.4-.9a12.583,12.583,0,0,1,.6,4.5,4.122,4.122,0,0,1-.1,1.2,2.769,2.769,0,0,1-.1.9,7.638,7.638,0,0,1-.5,2.1,12.035,12.035,0,0,1-2.5,4.4c.3-.6-.1-.1-.7.5-.6.7-1.6,1.5-2.2,2.1,1.5-1.3,1.8-1.7,1.6-1.2a15.919,15.919,0,0,1-2.7,2.7,34.921,34.921,0,0,1-5.7,3.1,38.873,38.873,0,0,1-3.9,1.6c1.3-.4,2.5-.8,3.8-1.3a47.324,47.324,0,0,1-8.9,3.2c-.4,0,4.1-1.3,2.5-.9a74.625,74.625,0,0,1-8.5,2.2c-1.6.4-3.2.7-4.9,1.1s-3.4.9-5.2,1.3c-3.3.6-.4-.3-3.3.3-4,1-6.2,1.4-8.4,1.8s-4.5.7-8.8,1.5c2.5-.2,2.9-.3-3,1l7-1.3c2.3-.4,4.6-.8,6.9-1.4-2.9.8-5.9,1.3-8.9,2,2.1-.4,4.3-.8,6.3-1.2,2-.5,3.8-.9,5-1.1-4.2,1.1-3.8.9-1.7.7-2.9.5-5.7,1-8.7,1.6s-6,1.2-9.4,1.6l.1-.6c-5,.6-9.5,1.3-14.3,2-2.4.3-4.9.6-7.7,1-2.7.3-5.7.7-9,.9,1.4-.1,2.8-.1,4.2-.3-1.7.4-8.1.7-12.4,1.1.4-.2-2.3-.1-4.1-.1.2.1-9.6.5-10.8.9-2,0-3.9,0-5.9-.1-5.3.1-8.4.3-11.4.5s-5.9.3-11.1.3c3.1-.2-1.6-.3,5.3-.5-3.4,0-6.5,0-6.6.1-2-.1-9.5.1-12.6-.1a29.376,29.376,0,0,1-5.8.1c-.4-.1,0-.1,0-.1,0,.1-6-.1-2.7.3-10.5-.8-29.5-1.3-38.6-2.4-7.5-.4-16.4-1-23.2-1.6a4.147,4.147,0,0,1,1.3,0c-9.3-.9-5.8.1-16.4-1-5.4-.8,5.7.3,2.3-.1-1.4-.8-12.8-1-19.9-2l1.7.1c-5.4-.7-13.3-1-22.2-2,0,0,.4,0,.1-.1-6.1-.3-17.6-1.6-26.1-2.9,2.7.2,3.9.5,2.3,0-3.8-.6,1.1.6-6.6-.5-2.4-.6-7.9-1.6-8.6-2.1,2.4.5,4.8.8,7.1,1.3-1.8-.5-4.1-.9-6.4-1.3s-4.7-.8-6.5-1.2l.5-.1c-2.7-.5-4.8-1-6.5-1.3s-3.1-.6-4.6-.9c-1.4-.3-2.9-.6-4.7-1s-4-1-6.9-1.8l1.2.4a28.014,28.014,0,0,1-5.8-1.6c-1.3-.5-2.6-.9-5.7-1.8l-1.7-1c-1-.3-2.4-.8-4.1-1.3s-3.5-1.2-5.5-1.9a38.35,38.35,0,0,1-5.9-2.4c-1.8-1-3.5-2.5-3.9-4.3a6.643,6.643,0,0,0,2.2,3,17.557,17.557,0,0,0,4.3,2.3c1.6.6,3.3,1.2,4.9,1.7s3.1,1.1,4.5,1.5c-2-.7-5.4-2-8.6-3.1a30.332,30.332,0,0,1-4-1.9,17.892,17.892,0,0,1-2.1-1.7,14.008,14.008,0,0,0,4.2,3,13.715,13.715,0,0,1-3.5-2,5.42,5.42,0,0,1-2.1-3.9,6.229,6.229,0,0,1,2-4.6,15.879,15.879,0,0,1,4.9-3.4c-.5.6,4.5-1.6,10.7-3.6s13.4-3.8,16.5-4.1a227.4,227.4,0,0,1,22.4-4.1c7.7-1.1,15.7-2.4,24.4-3.5-6.3.2,5.1-.7,3.9-1.2,4.1-.6,5.6-.8,6-.8l12.4-1c2.9-.1-3.9.6-3.5.7,8.9-.9,3.8-.2,9.7-.7-.6,0,.1-.2,1.7-.4s3.9-.4,6.4-.6l-7.2.4c6.2-.7,8.9-.8,11.6-.9,1.4-.1,2.7-.1,4.5-.2,1.8-.2,4.1-.3,7.2-.6l-4,.5c3.2-.3,9.2-.7,15.1-1.1,1.5-.1,3-.2,4.4-.3s2.8-.2,4.1-.3c2.6-.2,4.9-.4,6.5-.5,1.1,0,2.7.1-.2.3,1.9-.1,3.9-.2,5.9-.3,1,0,2-.1,3.1-.1,1,0,2.1-.1,3.1-.1,4.1-.1,8.3-.3,12.4-.4,4.1-.2,8.1-.1,11.8-.1s7.1,0,10.2.1l-1.2.1a62.759,62.759,0,0,1,8.6.1c-.2.1-1.2.1.2.2,1.5,0,7.7,0,11.5.2l-3.3.1c1.9.1,3.7.1,5.3.2,1.7.1,3.3.2,4.8.2,3.1.1,5.9.2,8.6.3,5.5.1,10.7.4,17,.9,0,.2,2.9.6,6.6,1,3.7.5,8.1,1,11,1.4h-.2c2.2.2,4.3.5,6.3.7s4,.4,5.9.7c3.8.5,7.5.9,11.1,1.4,1.8.2,3.6.4,5.4.7s3.6.6,5.4.8c3.7.6,7.4,1.2,11.5,1.8.6.1,1.3.3,2,.4.7.2,1.5.3,2.3.5,1.6.4,3.4.7,5.3,1.2,3.8.8,8.2,1.7,12.8,2.7,4.5,1.1,9.2,2.2,13.8,3.3s8.9,2.2,12.4,4c-2.1-1,.6-.3,2.9,1.3.4.3.7.6,1.1.9a11.4,11.4,0,0,1,1.1,1.1,10.143,10.143,0,0,1,1.6,2.6,8.4,8.4,0,0,1,.4,1.2,3.752,3.752,0,0,1,.1,1c.1.6,0,.8-.1.7a5.018,5.018,0,0,0-.2-1.2v1.2a6.623,6.623,0,0,0-.1,1.5,10.289,10.289,0,0,1-1.3,3.4l-.3.5-.3.4a5.5,5.5,0,0,1-.7.9c-.5.5-1,1.1-1.6,1.6a30.726,30.726,0,0,1-3.6,2.7l-.6.9a38.9,38.9,0,0,1-5.8,2.4c-1,.3-2.1.7-3.2,1s-2.3.6-3.4.9c-2.3.6-4.7,1.2-7.1,1.8-2.4.5-4.8,1.1-7.1,1.6-1.2.3-2.3.5-3.4.8-1.1.2-2.3.4-3.3.6-2.2.4-4.3.8-6.2,1.1-3.9.6-7.1,1-9.3,1.1-1.9.4-4,.6-6.2.9-2.1.3-4.3.5-6.2.8l.2-.3c-2.7.2-5,.3-7.2.5-1.1.1-2.2.1-3.2.2-1.1,0-2.1.1-3.2.1-2.2.1-4.4.2-6.9.3s-5.3,0-8.6.1l2.7-.2c-1.9,0-3.4,0-4.7.1s-2.5.1-3.6.2a65.63,65.63,0,0,1-7.9.1l-2-.6c-13-.8-25.9-2.8-38.6-4.9a9.437,9.437,0,0,1,2.7.3c-3-.5-8.8-1.9-13.5-2.9-4.7-1.2-8.4-2.1-7.4-1.5,0-.2-3.3-1-7.3-2.2-2-.6-4.3-1.2-6.4-1.8s-4.2-1.3-5.8-1.8l1.1.1c-2.8-.8-4.3-1.3-6-1.9a43.482,43.482,0,0,1-7.1-3.5c-.8-.5-1.1-.8-1-.8a15.908,15.908,0,0,1,1.8,1.1A57.321,57.321,0,0,1,689,453a12.41,12.41,0,0,1-1.9-1.6,21.406,21.406,0,0,1-2.9-3.3c.6.7,1.3,1.4,2,2.1a30.249,30.249,0,0,1-3.6-4.7,33.87,33.87,0,0,1-1.9-3.2,20.282,20.282,0,0,1-1.2-3.5,19.31,19.31,0,0,1-.5-4.2,15.862,15.862,0,0,1,.9-5.4,8.908,8.908,0,0,1,.2-1.1,9.415,9.415,0,0,1,.6-1.8,21.67,21.67,0,0,1,2.5-4.7c.4-.4-.4.8-.7,1.5a64.678,64.678,0,0,1,4.4-5.9c1.4-1.7,2.7-3.1,4-4.5,2.5-2.8,4.8-5.1,7.4-8.1a5.8,5.8,0,0,0,1-.9,108.121,108.121,0,0,1-7.6,8.5c-2,2-3.1,3.2-2.8,3,.2.2,5.2-5,1.5-.6,1.9-2.2,4.6-5,7.2-8.3a69.831,69.831,0,0,0,6.7-10,9.215,9.215,0,0,0,.5-.8l-.3.7a36.129,36.129,0,0,0,1.9-4.1,38.522,38.522,0,0,0,2-5.7,9.426,9.426,0,0,0,.5-1.7c.1-.4.2-1,.3-1.5a9.91,9.91,0,0,0,.2-1.8,34.932,34.932,0,0,0-.1-7.3c-.2.3-.9-4.5-.5.1,0-.3,0-.1.1.4.1.6.1,1.5.2,2.7v1.3a33.008,33.008,0,0,1-1.4,9,43.275,43.275,0,0,0,1.3-9.9c-.1-.9-.3-1.9-.4-2.8-.2-.9-.4-1.7-.5-2.2a39.049,39.049,0,0,0-2.4-9c-1.1-3-2.2-5.5-2.4-6.1a51.338,51.338,0,0,1-3.2-8,23.428,23.428,0,0,1-1.1-8.7,24.19,24.19,0,0,1,2-7.8,29.656,29.656,0,0,1,3.2-5.5,15.477,15.477,0,0,1,3.3-3.3,26.128,26.128,0,0,0-3.1,3.7c.9-1.2,2.2-2.6,3.6-4.1a42.231,42.231,0,0,1,4.7-3.9c3.2-2.3,6.2-4,6.8-4.5,3.5-1.7,2.6-1.1,2-.8-.6.4-1,.5,3.9-1.8l-1.3.7c4.8-2.2,9.3-4.1,13.4-6.3a52.151,52.151,0,0,0,11.2-7.8,31.7,31.7,0,0,0,4.5-5.2,21.65,21.65,0,0,0,3.1-6.5,18.855,18.855,0,0,0-2.7-15.7,14.957,14.957,0,0,1,1.4,2.5,26.525,26.525,0,0,0-6.6-7.9,50.142,50.142,0,0,0-8.7-5.7c-3.1-1.6-6.3-3-9.5-4.3a87.777,87.777,0,0,1-9.5-4.1,48.968,48.968,0,0,1-8.8-5.3,26.589,26.589,0,0,1-6.8-7.4,17.7,17.7,0,0,1-2.5-9.4,18.817,18.817,0,0,1,2.9-9.2,19.835,19.835,0,0,1,2.6-3.6c.8-.9,1.4-1.6,2-2.2a29.3,29.3,0,0,1,4-3.4l1.5-.6a41.212,41.212,0,0,1,7-3.4,64.6,64.6,0,0,1,15.2-2.9,54.222,54.222,0,0,1,8.1-.1,27.064,27.064,0,0,1,9.1,2.1l-1.5-.9a15.517,15.517,0,0,1,4,2.1A14.905,14.905,0,0,1,761,212c1.9,2.6,2.3,5.1,2.1,4.7.1.2.2.6.4,1.2.1.3.1.6.2,1a5.635,5.635,0,0,1,0,1.3l-.2.1a9.818,9.818,0,0,1-.5,2.9,13.047,13.047,0,0,1-1.4,2.6,12.552,12.552,0,0,1-4.7,3.8,13.43,13.43,0,0,1-3.8,1.2c-.5.1-.5,0-.6-.1s-.3-.1-1.4.1a10.949,10.949,0,0,1-2.2.2,11.32,11.32,0,0,1-3.8-.5,6.529,6.529,0,0,1-1.7-.8,4.357,4.357,0,0,1-1.3-1.4,4.586,4.586,0,0,1-.1-3.8,2.946,2.946,0,0,1,1.9-1.7c.6,0,.8-.1.4-.1a2.76,2.76,0,0,0-2.5,1.4,8.59,8.59,0,0,0-.8,1.8,4.53,4.53,0,0,1,.8-2.2,2.937,2.937,0,0,1,1.8-1.3.52.52,0,0,1,.4-.2c.2-.1.4-.1.5-.2.3-.1.5-.2.3-.3-.1-.1-.3-.1-.8-.2a3.464,3.464,0,0,0-1.8.4,5.142,5.142,0,0,0-2,2.3,9.723,9.723,0,0,0-.5,2,5.7,5.7,0,0,0,.3,2.5,6.255,6.255,0,0,0,3.5,3.3,11.4,11.4,0,0,0,4.4.8,13.1,13.1,0,0,0,2.8,0,12.659,12.659,0,0,1-7.4-.8,10.441,10.441,0,0,0,5.4,1.1,19.285,19.285,0,0,0,4.3-.8,16.075,16.075,0,0,0,3.5-.9,14.728,14.728,0,0,0,6.5-5.6c.4-.4-.1.5-.3.8-.1.2-.1.2.2-.1a9.476,9.476,0,0,0,1.4-2.3,3.259,3.259,0,0,0,.3-1V223c-.1.1-.2.4-.4.7s-.3.5-.2.2c0-.1.1-.4.2-.8a12.756,12.756,0,0,0,.4-1.8,8.32,8.32,0,0,0,.2-1.3c0-.4.1-.7.1-1v-1.4a13.113,13.113,0,0,0-.3-1.5,25.381,25.381,0,0,0-1-2.5c-.2-.7.4.2,1.1,2.1a19.178,19.178,0,0,0-4-6.6,14.706,14.706,0,0,0-5-3.5,17.654,17.654,0,0,0-3.8-1.5,37.346,37.346,0,0,0-4.6-.9c-3-.3-5.4-.2-5.2-.4-.7.1-2.5.3-4.6.6s-4.5.8-6.4,1.1c3.4-.8-.1-.3-4.3.6-2.1.5-4.3,1.1-5.8,1.6-1.6.5-2.5.9-2.1.5a43.748,43.748,0,0,0-10.6,7,28.459,28.459,0,0,0-4.9,6.5,29.533,29.533,0,0,0-1.6,3.7,12.678,12.678,0,0,0-.7,3.7,7.957,7.957,0,0,1,.4-2.4,20.459,20.459,0,0,0-.7,5.9,16.346,16.346,0,0,0,.2,2.2,10.612,10.612,0,0,0,.5,2.3c.2.1.3.8.8,1.6a10.741,10.741,0,0,1,.7,1.5c.3.5.7,1.1,1,1.6a25.639,25.639,0,0,0,5.5,5.8c2.4,2.1,1.5,1.6.3.8-1.3-.9-2.8-2.3-2.2-1.4,0-.1.5.3,1.3.9a16.97,16.97,0,0,0,1.4,1,9.063,9.063,0,0,0,1.6,1.1c.5.3,1.1.7,1.5,1,.5.3.9.5,1.2.7.7.4.9.5.5.1,2,1.3,2.9,1.8,3.6,2.2s1,.6,2.1,1.3c1-.1,4.1,1.8,7.9,3a30.067,30.067,0,0,1,4,1.9,39.21,39.21,0,0,0,4.4,2c1.5.9.8.6-.3.1A3.622,3.622,0,0,1,733.8,261.6ZM701.5,398h0c.7-1.3,1.4-2.5,1.7-3.2C702.9,395.4,702.4,396.4,701.5,398Zm-9.2,11.8a57.51,57.51,0,0,0,4.3-4.9c.4-.4.1.2-.8,1.3.2-.3-.2.2-.9.9C694.1,408,693.1,409,692.3,409.8Zm16.6-27.1c-.2,1.2-.3,2.1-.4,2.6a4.053,4.053,0,0,1-.3,1c.1-.6.3-1.2.4-1.9s.2-1.5.3-2.4v.7Z" fill="#202020"/>
              <path id="Path_12850" data-name="Path 12850" d="M708.7,378.2c0-.4-.1-.6-.1-1v1.5c0,.3.1.6.1.9Z" fill="#202020"/>
              <path id="Path_12851" data-name="Path 12851" d="M646.8,416.1h0Z" fill="#202020"/>
              <path id="Path_12852" data-name="Path 12852" d="M841.3,477.1l-.1-.1-1.3.3Z" fill="#202020"/>
              <path id="Path_12853" data-name="Path 12853" d="M564.1,426.1a3.079,3.079,0,0,0-1.1.2C563.1,426.3,563.5,426.2,564.1,426.1Z" fill="#202020"/>
              <path id="Path_12854" data-name="Path 12854" d="M529.2,435.1l-4.9,1.4C526.4,435.9,528,435.5,529.2,435.1Z" fill="#202020"/>
              <path id="Path_12855" data-name="Path 12855" d="M512.4,454.5c.1.3.1.4.2.5v-.1Z" fill="#202020"/>
              <path id="Path_12856" data-name="Path 12856" d="M887.7,471.3a10.371,10.371,0,0,0-1,.4C884.3,472.6,886,472,887.7,471.3Z" fill="#202020"/>
              <path id="Path_12857" data-name="Path 12857" d="M808.7,419.3c1.4.2,2.7.4,4.2.6C810.6,419.5,808.8,419.1,808.7,419.3Z" fill="#202020"/>
              <path id="Path_12858" data-name="Path 12858" d="M742.7,488.7Z" fill="#202020"/>
              <path id="Path_12859" data-name="Path 12859" d="M818.9,420.9c-2.3-.5-4.2-.8-6-1.1C814.8,420.2,817,420.7,818.9,420.9Z" fill="#202020"/>
              <path id="Path_12860" data-name="Path 12860" d="M580.8,550.9l1,.9a.1.1,0,0,1,.1.1Z" fill="#202020"/>
              <path id="Path_12861" data-name="Path 12861" d="M581.9,551.9l1.1,1A7.364,7.364,0,0,0,581.9,551.9Z" fill="#202020"/>
              <path id="Path_12862" data-name="Path 12862" d="M585.3,555l-2.3-2.1C583.8,553.6,584.7,554.5,585.3,555Z" fill="#202020"/>
              <path id="Path_12863" data-name="Path 12863" d="M554.4,525.4l-.4-.2C554.2,525.3,554.3,525.4,554.4,525.4Z" fill="#202020"/>
              <path id="Path_12864" data-name="Path 12864" d="M546.7,517.4c1.8,2,4.4,5,7.1,7.6l.3.2a46.892,46.892,0,0,1-3.5-3.7C549.1,519.9,547.6,518.2,546.7,517.4Z" fill="#202020"/>
              <path id="Path_12865" data-name="Path 12865" d="M521,478.8c.6,1.4,1.4,2.8,2,4.2l1,2.1,1.2,2c-.7-1.5-1.7-3.4.5.3-1.4-2.5-2-3.8-2.2-4.2-.2-.5-.1-.2-.1.1C523.6,483.7,523.7,484.2,521,478.8Z" fill="#202020"/>
              <path id="Path_12866" data-name="Path 12866" d="M513.5,451.2c.3,4.8.1-.1.2.2a11.091,11.091,0,0,1,.1-2.5C513.9,448.8,513.6,449.4,513.5,451.2Z" fill="#202020"/>
              <path id="Path_12867" data-name="Path 12867" d="M712,414.9l-.5.3C715.4,415.2,711.6,415.1,712,414.9Z" fill="#202020"/>
              <path id="Path_12868" data-name="Path 12868" d="M752,414.4l-3.7-.3-1.8.2Z" fill="#202020"/>
              <path id="Path_12869" data-name="Path 12869" d="M775.5,417.2l-1.7-.1c2.1.1,4.3.2,6.4.3C778.7,417.4,777.1,417.3,775.5,417.2Z" fill="#202020"/>
              <path id="Path_12870" data-name="Path 12870" d="M702.1,484.6l1.1.4C705.9,485.1,706.5,484.8,702.1,484.6Z" fill="#202020"/>
              <path id="Path_12871" data-name="Path 12871" d="M552.1,466.2c-.8-.3-2.2-.7-3.7-1.2s-3.2-1-4.4-1.3c1.6.5,3.2,1,4.7,1.5A23.735,23.735,0,0,0,552.1,466.2Z" fill="#202020"/>
              <path id="Path_12872" data-name="Path 12872" d="M880,466.2c.9-.3,1.8-.7,2.7-1.1a54.414,54.414,0,0,1-5.2,1.9C878.3,466.7,879.1,466.5,880,466.2Z" fill="#202020"/>
            </g>
          </g>
        </g>
      </g>
    </g>
    <g id="Group_1210" data-name="Group 1210">
      <g id="Group_1209" data-name="Group 1209">
        <g id="Group_1208" data-name="Group 1208">
          <g id="Group_1207" data-name="Group 1207">
            <g id="Group_1206" data-name="Group 1206">
              <path id="Path_12873" data-name="Path 12873" d="M903.6,455.4c0-.2-.3-.1-.3.4l.2.5Z" fill="#202020"/>
              <path id="Path_12874" data-name="Path 12874" d="M902.2,458.9c0,.7.1,1.5.5,1.1-.2-.7,0-.8-.2-1.6.1-.6.3-.9.4-.8a4.12,4.12,0,0,0,.1-1.2,5.135,5.135,0,0,0-.6,2.5C902.3,459.2,902.3,459,902.2,458.9Z" fill="#202020"/>
              <path id="Path_12875" data-name="Path 12875" d="M878.7,507.4l.2-.3C878.9,507.2,878.8,507.3,878.7,507.4Z" fill="#202020"/>
              <path id="Path_12876" data-name="Path 12876" d="M856.4,532.2c.2-.2.2-.3.2-.3C856.4,532.1,856.3,532.2,856.4,532.2Z" fill="#202020"/>
              <path id="Path_12877" data-name="Path 12877" d="M852.3,536.2l.2-.2A.215.215,0,0,0,852.3,536.2Z" fill="#202020"/>
              <path id="Path_12878" data-name="Path 12878" d="M878.7,507.4l-.6.7C878.2,508.2,878.5,507.8,878.7,507.4Z" fill="#202020"/>
              <path id="Path_12879" data-name="Path 12879" d="M900.9,466.4c0-.2.1-.3.1-.5a4.333,4.333,0,0,0-.1.5Z" fill="#202020"/>
              <path id="Path_12880" data-name="Path 12880" d="M885.9,494.5l.1-.2V494Z" fill="#202020"/>
              <path id="Path_12881" data-name="Path 12881" d="M891.3,484.6c-.1.2.1.4.1.6a1.269,1.269,0,0,1,.1-.6C891.5,484.5,891.4,484.5,891.3,484.6Z" fill="#202020"/>
              <path id="Path_12882" data-name="Path 12882" d="M899,468.4l.1-.3C899.1,468.2,899,468.3,899,468.4Z" fill="#202020"/>
              <path id="Path_12883" data-name="Path 12883" d="M881.8,501.6Z" fill="#202020"/>
              <path id="Path_12884" data-name="Path 12884" d="M612.9,583Z" fill="#202020"/>
              <path id="Path_12885" data-name="Path 12885" d="M605,572.3h0c.2.1.2.1.2,0Z" fill="#202020"/>
              <path id="Path_12886" data-name="Path 12886" d="M844.3,542.5Z" fill="#202020"/>
              <path id="Path_12887" data-name="Path 12887" d="M771,601.5c1.1,0-1.7.7,0,.6C770.8,602,772.3,601.4,771,601.5Z" fill="#202020"/>
              <path id="Path_12888" data-name="Path 12888" d="M900.8,466.6c0,.1-.1.3-.1.4C900.7,466.9,900.8,466.8,900.8,466.6Z" fill="#202020"/>
              <path id="Path_12889" data-name="Path 12889" d="M771,602.1Z" fill="#202020"/>
              <path id="Path_12890" data-name="Path 12890" d="M825.7,558h0Z" fill="#202020"/>
              <path id="Path_12891" data-name="Path 12891" d="M839.7,546.9l-.3.3Z" fill="#202020"/>
              <path id="Path_12892" data-name="Path 12892" d="M818.4,564a1.755,1.755,0,0,0-.5.4h.1A.781.781,0,0,1,818.4,564Z" fill="#202020"/>
              <path id="Path_12893" data-name="Path 12893" d="M811,570.2c.1,0,.1-.1.2-.1.1-.1.2-.1.2-.2Z" fill="#202020"/>
              <path id="Path_12894" data-name="Path 12894" d="M636.5,601a.781.781,0,0,1-.4-.4C636.2,600.9,634.7,600.6,636.5,601Z" fill="#202020"/>
              <path id="Path_12895" data-name="Path 12895" d="M900.8,466.3c0,.1.1.2,0,.3,0-.1.1-.2,0-.3Z" fill="#202020"/>
              <path id="Path_12896" data-name="Path 12896" d="M819.5,566l-1.2.9A12.477,12.477,0,0,1,819.5,566Z" fill="#202020"/>
              <path id="Path_12897" data-name="Path 12897" d="M706,608.5h-.4C705.8,608.6,705.9,608.6,706,608.5Z" fill="#202020"/>
              <path id="Path_12898" data-name="Path 12898" d="M814.8,569.8a2.993,2.993,0,0,0-.8.4c0,.1-.1.1-.1.2Z" fill="#202020"/>
              <path id="Path_12899" data-name="Path 12899" d="M636.1,600.6Z" fill="#202020"/>
              <path id="Path_12900" data-name="Path 12900" d="M626.1,596.9c1.3.9.8.1,1.2.1,1.6.9.6.7,1,1.2a29.045,29.045,0,0,0,2.8.9c0,.1.2.2,0,.2,1.2.2,3.4,1.2,4.8,1.2.1.1.1.1.2.1-.2-.2-.2-.4-.1-.5.6.2,1.3.1,1.4.4a1.579,1.579,0,0,0-.7,0l.7.1c.5.5-1-.1-1,.1,1.4.2,3,.3,4,.5.2.4-2.4-.4-1.1.2l-1.6-.5c1.1.8-1-.2,0,.6,2.1.5,2.4.3,4.5.8.5-.1-.1-.3.4-.4,3,.1,2.2,1.2,4.4,1.1a3.429,3.429,0,0,1,2.4-.1l-.6.3c2,.4,1.2-.3,3.3.2-.4.1-1.6-.1-1.3,0,1.3.5,1-.1,2.1.1l.2.4c2.2.3,4.6.4,7,.6-.1.1-.6.1,0,.3,3,.2,6.4.9,9.3,1.4l1.1-.2c.3,0,.5.2.2.2,1.1.2.1-.2.6-.2.6,0,.8.3.4.3a41.013,41.013,0,0,1,7.8.6l-.4.1c1.6.3,1.9-.4,3.4,0h-.3c3.6.5,7.5.4,10.2,1.1.5-.4,3.5.4,3.8-.2a23.766,23.766,0,0,0,4.3.8c.8.1,1.2-.3,2.1-.3v.3l1.3-.3.7.4.9-.1c-.4,0-.8-.2-.7-.2,1.4-.1,3.4.3,3.4.5,1.1-.1,2.2-.1,3.3-.2a2.332,2.332,0,0,1-1.1.2c1.8-.3.3.3,1.9,0-.2-.1.1-.2.2-.2a16.8,16.8,0,0,0,4,.1l-.3.2c2.5.1,5.2-.2,7.9-.2-1-.1-.8-.4,0-.5l.3.3c.5-.2-.8-.1.2-.4,1,0,.7.4.1.5l1.2-.1c.1.1-.2.2-.3.3.5-.2,2.2.3,2.9-.1l.1.1c2.8-.1,4-.3,6.2-.4,0-.3.9-.3,1.6-.5,1.6,0,3.5,0,5.5-.1,1.4-.2.4-.3,1-.5.1.3,2.1.1,1.1.3,2.4-.3,3-.4,6-.9-.3-.1-.7-.1-.5-.2.5-.1,1.2,0,1.2.1h-.1a46.8,46.8,0,0,1,5.5-.5,22.8,22.8,0,0,0,5-.6H761l2.7-.7c1.3-.2-.7.3.2.3,2.9-.9,4.7-.7,7.1-1.4a15.474,15.474,0,0,0,4.4-.5,40.176,40.176,0,0,1,4.9-.9l-.2-.1c.6-.3.8-.1,1.4-.2-.1-.1-.8.1-.4-.2a22.144,22.144,0,0,0,4.2-1.8,15.131,15.131,0,0,0,3.6-3c1.1-1.1,2-2.3,3-3.4s1.9-2.2,2.9-3.3c1.4-1.6.1-1.5,2.1-3.3l-.2.8c2.5-3.5,5.8-6.4,8.5-9.6a3.284,3.284,0,0,1-.3.6,7.483,7.483,0,0,0,2.2-2.4c.5-.4.2,0,.6-.2.7-.5,1.4-1.7,1.9-1.9.1,0-.1.2-.2.3.3-.5,2-1.8,1.4-1.6,1.2-.9,2.1-2.1,3.2-2.8.4-.8,2.1-1.6,2-2.1.2.4,2.3-1.5,3-2.2-.2.3.8-.4.6,0,.9-.7,1.6-1.4,1.3-1.5,2-.8,3.1-2.8,4.4-3,2.6-2.2,5-4.2,7.3-6.2.2.4-2.6,2.1-2.2,2.4,2.2-1.9,3.2-3.3,5.5-5,.6-.4-.2.4-.3.6a81.129,81.129,0,0,0,5.9-5.6,1.726,1.726,0,0,1-.3.4c.4-.3.9-.7.7-.8l-.3.4c-.8.3,1.1-1.8,1.1-1.9-.3,1,2.1-1.4,1.5,0,.2-.2.5-.5.4-.6.4-.3.6-.3.3.1,1.4-1.1.7-.9,2.1-1.9.1.1-.2.3-.3.5a12.162,12.162,0,0,1,2.3-2c0,.1.1.1-.2.3,2-1.5,2.8-3.1,4.7-4.9-.2.9.7-.6,1.1-.4l.9-1.1-.5.3a29.909,29.909,0,0,1,2.2-2.6l-.5.8,1.5-1.7-1,.9c.7-1-.4-.2.7-1.4-.2.3.8-.9,1.4-1.2h0a8.561,8.561,0,0,1,1.3-1.7c.2-.1.2.4.3.4.2-.6,1.9-2.1,2.2-2.9-.1.2,0,.4.1.3l.2-.5c.5-.4.5-.4.6-.2,1.2-1.2-.7.1.8-1.2-.1.1,0,.1-.2.4,1.5-1.4,2.7-2.9,4.1-4,.7-.1-1.1,1.2-.5,1,.9-.9,1.9-1.9,2.9-3,.9-1.1,1.8-2.1,2.7-3.1l-.4.3c-.2-.6,1.5-1.3,2.1-2.6-.2.3,0,.5,0,.4a34.135,34.135,0,0,0,3.4-5.4l-.1.4c.7-.8,1.5-2.3,2.2-3.3.1-.4.4-.9,0-.7,2.5-2.6,3-6,5.1-8.4-.2.3-.3.8-.2.6l1.2-2.4c-.3.1-.3.2-.7.6a3.977,3.977,0,0,1,.6-1.6c-.4,1.1.3.2.7-.2-.1,0-.1-.2-.2-.1,1-1-.3-.4.9-1.9l.1.1a17.589,17.589,0,0,1,.9-2c.4-.1-.3.7-.1.9.5-.9.6-2.1,1.3-2.8-.1.4-.5,1-.6,1.5a5.1,5.1,0,0,0,1.2-1.6v.1l1-1.5-.3.4c0-1.5,1.2-2.5,1.6-4.3-.4,1.8.1.4.3.6.3-.4.7-1,.7-.7.2-.9.8-1.2,1-2.5.1,0,.4-.8.5-.5.4-1-.3.2-.3,0,.4-1.7,2.1-3.5,2.6-6,.6-2.1.5-2.5,1-4.4.4-.6.1.6.1.6a9.869,9.869,0,0,0,1-2.7c0,.2.2,0,.3-.2.2-.8-.2-.6.3-1.6,0,.2.1.5.1.9.2-.9.3-1.9.5-2.9.2-.2.1.6.1,1,.2-1.1.7-2.8.5-3.2a4.875,4.875,0,0,0-.3.7c.1-.4.3-.1.2.2-.1,1-.5,1.3-.6,1.3l.1-.7c-.4.3-.5,1-.7,1.7a13.153,13.153,0,0,1-.5,2.3l-.2-.7-.1,1.5c-.2.3-.5.4-.3-.3-.5.9-.2.9-.7,1.6-.1.1-.1,0-.1-.1l-.2,1c0-.2-.3.1-.1-.5-.8,1.6-.7,2.8-1.3,3.3v-.1c-.8,2.3.2.3-.2,2.2l-1.2.9.2.3c-.1.2-.3.7-.4.5-.2.9.2-.1.1.5-.7,1-1.3,3.1-1.9,3.2,0,.5.7-1,.2.3-.6.1-.6,1.4-1.3,2.3-.1-.4.5-1.3-.2-.4.1.8-1.1,1.9-1.4,2.8.3.2-.8,1.9-1.5,3.3a40.36,40.36,0,0,0-2.4,3.8v-.1c.2.4-.6,1.7-1.1,2.7-.2-.1-.1-.4.1-.9l-.5.9a2.708,2.708,0,0,1-.4,1.2l-.1-.4c-.7,1.2-1.1,2.6-2.1,4.1.2.2,1.3-.9.5.8-.2,0-.4-.1-.2-.5-.1.1-.2.6-.4.8l.2-.8c-.5.7,0,.5-.4,1-.2-.1-.4.3-.5.2.1-.2.4-.5.4-.7a7.041,7.041,0,0,1-1.2,1.5c.1,0,.2.1,0,.6-.7,1.2-.4.3-.9.9,0,.4-.6,1-.4,1.2-.2.3-.4.3-.5.4-.2.7-1.7,2.9-1,2.3l.1-.1a.1.1,0,0,1-.1.1h0c-1,2.2-2.8,4-4.1,5.9l-.1-.1c-.7,1.2-1.8,2.5-2.3,3.3-.3.3-.8.6-.7.4a14.594,14.594,0,0,1-1.8,2c.6-.9-.4.2.7-.9a11.449,11.449,0,0,0-2.2,2.2c.2-.5-1,.5-1.4,1l.8-.5a19.2,19.2,0,0,1-1.5,1.4v-.5c-2.4,1.7-3.2,4.1-5.2,5.2-.4.7,1.2-1,.9-.3a27.546,27.546,0,0,1-2.5,1.9c-1.4,1.2-.8,1.6-2.2,2.8.3-.1.6,0-.2,1.1-.9.9-1.5.8-1,.2.2-.2.3-.3.4-.3.3-.3.6-.8.1-.5v.2c-.5.4-1.7,1.7-1.6,1.3-.6.8-.1.4.4-.1-1.3,1.1-1.8,1.9-3,3.1.2-.2.5-.2.3,0-1.8,1.8-.6,1-1.7,2.3-.8.5-.1-.5-1.1.7-.8.6-.4-.1-.1-.4a10.05,10.05,0,0,1-2.9,2.2l.6-.6a7.008,7.008,0,0,1-1,.8l.5-.1c-.4.2-.7.5-.8.4-.3.4.5.1-.1.8-.6.3-1.5,1.2-1.9,1.1,1.7-1.1-.4-.1,1-1.2a8.647,8.647,0,0,1-1,.7c-.1,0,0-.1.1-.2-1.8.9-.5.8-2.2,2,.1-.3-.6,0-.8.3.7-.5.5,0,0,.6-1.1.8-1,1.1-1.5,1.5l.6-.5a8.9,8.9,0,0,1-1.2,1.4c-.1,0,.5-.6.3-.5-.5.9-1.9,1.3-2.8,2.4-.6.3-.3-.2-.7.1-1,1.2-1.4.9-2.6,2.1.5-.1.5-.2-.2.7l2-1.9-1.1,1.4c.6-.5,1.2-1.2,1.6-1.5-.5.7-.5.6,0,.5-1.1.5-1.6,1.6-2.7,2.2l-.3-.5c-1.7,1-2.5,2.4-4.6,3.8l.7-.4c-.1.4-1.2,1-1.8,1.5-.1-.2-.5,0-.9.2.1.1-1.5,1.1-1.4,1.5l-1.1.5c-1.7,1.1-1.6,1.8-3.1,3,.3-.5-.5-.1.5-1-.5.4-1,.7-.9.8-.4.1-1.3,1.3-1.9,1.6-.2.2-.1.5-.7.9a.1.1,0,0,1-.1-.1c.1.1-.8.8-.2.6-2,.8-4.3,3.6-6,4.4-1,1-2.3,2.2-3.2,3.1,0-.1-.1-.1.1-.2-1.4,1.1-.4,1.2-2,2.4-1,.5.7-.9.1-.5-.7-.3-1.7,1.8-2.9,2.5l.2-.3c-.9.6-1.6,2-2.8,3.2a.1.1,0,0,0-.1-.1,41.918,41.918,0,0,1-3,4.1c.2-.6.4-.7,0-.6-.5.6.5.1-.5,1.3-.4.3-1.2,1-1.5.9l.9-1.1c-.7.3-1.2,1.4-1.7,1.9l-.1-.2c-1.4,1.7-1.1,1.9-2.5,3.7l.2-.1c-.5,1.2-.8.7-1.4,1.8l-.5.1a43.41,43.41,0,0,1-2.4,3.7c.3-.8,1.3-2.2,1.8-3.2a20.846,20.846,0,0,0-1.8,2.6l.6-.9a7.787,7.787,0,0,1-2.3,3.1c-.2-.4-.9.3-1.9.9s-2.3,1.1-2.9.9c-2.5,1.1-5.5,1.1-8.7,1.8,1.3.4-1,.2-.6.8a5.417,5.417,0,0,1-1.1.2c-.8,0-1.6.1-2.4.1-.6-.1.7-.3.6-.4-1.7.2-.8-.1-1.9-.1.3.2-.5.4-1.5.5l1.4.1c-2.3.7-2.1-.2-4.4.5l.7-.3c-.6.2-1.7.3-2.8.6a8.536,8.536,0,0,0-2.8.8c-.2,0-.5-.2,0-.3-1.5.2-3.1.5-4.6.8a22.694,22.694,0,0,1-4.2.5l.2-.2a3.808,3.808,0,0,1-1.6.3c0-.1.2-.2,0-.2a8.687,8.687,0,0,1-2.2.4l.6-.2c-2.9.1-4.4.8-6.8,1.1,0-.4-2.3-.4-3.4-.4v-.1a76.942,76.942,0,0,0-8.7,1c-1.9-.4-6.5,0-9.6-.3.5.1-.1.3-.6.4-.7-.1-2,.3-1.9-.1h.3c-.5-.4-2-.3-3.2-.3l-.2.5c-3-.8-8,.1-9.6-.6-.7.1-1.6.1-2.4.2l.1-.3c-2-.2-3-.2-5.6-.3l.5-.2c-1.4-.1-1.8.7-3.1.6l-.4-.4a46.018,46.018,0,0,0-7.4-.5c0-.1.1-.2.5-.2-1.2-.1-4.5-.7-4.1-.1,0-.4-2.5-.3-3.9-.2l.2-.3a10.882,10.882,0,0,1-2.8.3c-.4-.1-.3-.3.2-.1-1.2-.3-1,.2-2.5-.1l.6-.1a2.744,2.744,0,0,0-1.9.1,5.521,5.521,0,0,1-2.6-.6,3.89,3.89,0,0,1-1.7.1c-.1-.1.2-.1.3-.1-2.1-.5-3.2-.1-4.6-.5a.215.215,0,0,0-.2-.2c1.7.2,3.1.4,2.9.4,0-.3-1.3-.5-.2-.7a21.512,21.512,0,0,1-4.4,0c-.1,0-.1-.1-.2-.1h.1a2.486,2.486,0,0,0-.8-.1,4.254,4.254,0,0,0-1.1-.2,7.845,7.845,0,0,0-2.2-.4c0,.3-.9.1-.1.5h.9c.4.1,1,.1,1.7.2a3.272,3.272,0,0,1-1.9-.2,9.259,9.259,0,0,1-1,.3c-.9-.5-2.6-1-2.9-1.3-2.1-.1-4.9-.7-6.3-.3-.6,0-.7-.3-.9-.4.3,0,.8.1.9,0-1.2-.1-3.5-.5-3.8-.2-1.4-.4.9-.2-1.2-.5l.3-.1a27.062,27.062,0,0,0-5.2-.9,11.944,11.944,0,0,1-5.3-1.8,2.964,2.964,0,0,1,.4.3,33.527,33.527,0,0,1-11.6-9.9,6.13,6.13,0,0,0-1.9-1.6V586l-1.3-.9c-1.6-1.4-1.9-3.2-4.1-4.9l.1.4c-.6-.7-2.2-2.2-1.9-2.2a.6.6,0,0,1-.5-.4l.1-.1-1.8-1.6c-1.2-1.4.7-.2-1.1-2.2-.7-.7-2.3-1.8-2.1-1.5.3.3.6.8.5,1l-.7-.6c-.5.2-1.3,0,0,1.9l1.3,1,.2.5-.9-1a2.5,2.5,0,0,0,1.3,1.2,1.329,1.329,0,0,0,.3.7l1.4.8c0,.3-.7-.3-.1.6.6.4-.2-.8.7,0,.3.7.1.7.8,1.2,0,.2-.2.1-.5-.1.6.5,1.4,1.5,1.9,1.6.3.8,1.8,1.9,1.5,2.2a10.97,10.97,0,0,1,1.7,1.3c-1.3-.6,1.8,2,1.1,2.1,1,.4,2.5,2.5,3.9,3.6a.536.536,0,0,1-.4-.3c.6.7.7,1.1,1.1,1.6.4-.2,1.5.9,2.3,1.3.6,1.1-.8-.2-.8.3.2-.3,1.7,1.3,1.6.8.5.8.5.6.7,1.2.4-.3.7.5,1.5.8.9,1,0,.6,1.3,1.4.3.3.1.2-.2.2C626.4,597,626.1,596.9,626.1,596.9Zm34,7.5h0c-.3,0-.5-.1-.7-.1C659.5,604.4,659.7,604.4,660.1,604.4Zm2.9.4a5.985,5.985,0,0,1-1.2-.2c-.1-.1,0-.2.3-.2C661.9,604.5,662.5,604.6,663,604.8Zm-5.8-2.8c.5,0,.6.1.7.2a2.486,2.486,0,0,1-.8-.1H657A.311.311,0,0,0,657.2,602Z" fill="#202020"/>
              <path id="Path_12901" data-name="Path 12901" d="M656.3,602.3h0c.1.1.2.1.2,0Z" fill="#202020"/>
              <path id="Path_12902" data-name="Path 12902" d="M879,507.1Z" fill="#202020"/>
              <path id="Path_12903" data-name="Path 12903" d="M702.8,608.6l-.1-.1-.2.1Z" fill="#202020"/>
              <path id="Path_12904" data-name="Path 12904" d="M887.8,493.8a.349.349,0,0,1,.2-.1C887.9,493.7,887.9,493.8,887.8,493.8Z" fill="#202020"/>
              <path id="Path_12905" data-name="Path 12905" d="M891.2,487.8l.5-.8C891.5,487.4,891.3,487.6,891.2,487.8Z" fill="#202020"/>
              <path id="Path_12906" data-name="Path 12906" d="M893.7,483.2c0-.1,0-.1-.1-.1h0Z" fill="#202020"/>
              <path id="Path_12907" data-name="Path 12907" d="M841.3,548h0C840.8,548.6,841,548.3,841.3,548Z" fill="#202020"/>
              <path id="Path_12908" data-name="Path 12908" d="M859.2,530.7c-.1.2-.3.5-.4.7C859.1,531.1,859.3,530.9,859.2,530.7Z" fill="#202020"/>
              <path id="Path_12909" data-name="Path 12909" d="M819.6,565.9Z" fill="#202020"/>
              <path id="Path_12910" data-name="Path 12910" d="M858,532.3a6.468,6.468,0,0,0,.8-.9A6.475,6.475,0,0,0,858,532.3Z" fill="#202020"/>
              <path id="Path_12911" data-name="Path 12911" d="M902.3,461.8l.1-.2h0Z" fill="#202020"/>
              <path id="Path_12912" data-name="Path 12912" d="M902.4,461.5v0Z" fill="#202020"/>
              <path id="Path_12913" data-name="Path 12913" d="M902.5,460.7l-.1.6A1.487,1.487,0,0,0,902.5,460.7Z" fill="#202020"/>
              <path id="Path_12914" data-name="Path 12914" d="M900.1,468.5l.1.1Z" fill="#202020"/>
              <path id="Path_12915" data-name="Path 12915" d="M899.4,470.5a15.862,15.862,0,0,0,.8-1.8l-.1-.1C900.2,469,899.4,470,899.4,470.5Z" fill="#202020"/>
              <path id="Path_12916" data-name="Path 12916" d="M894.8,478.2l.8-1.6c-.2.2-.5.5-.2-.2C894.1,478.4,895.8,476.1,894.8,478.2Z" fill="#202020"/>
              <path id="Path_12917" data-name="Path 12917" d="M892.2,483.1c.4-.9-.1-.1-.2-.1C891.8,483.6,891.8,483.7,892.2,483.1Z" fill="#202020"/>
              <path id="Path_12918" data-name="Path 12918" d="M871.5,516.9l-.1-.2C870.9,517.2,871.4,516.7,871.5,516.9Z" fill="#202020"/>
              <path id="Path_12919" data-name="Path 12919" d="M866.9,523.1l.7-.3v-.4Z" fill="#202020"/>
              <path id="Path_12920" data-name="Path 12920" d="M862.4,525l.2-.2-.7.9Z" fill="#202020"/>
              <path id="Path_12921" data-name="Path 12921" d="M812.1,568.9l.4.1C812.8,568.6,812.7,568.3,812.1,568.9Z" fill="#202020"/>
              <path id="Path_12922" data-name="Path 12922" d="M792.1,590a2.605,2.605,0,0,0-1.1,1.2C791.4,590.7,791.9,590.3,792.1,590Z" fill="#202020"/>
              <path id="Path_12923" data-name="Path 12923" d="M710.5,606.3l.6-.1c-.4,0-.7.1-1.1.1Z" fill="#202020"/>
            </g>
          </g>
        </g>
      </g>
    </g>
  </g>
</svg>
